<?xml version="1.0" encoding="utf-8"?>
<!-- Generator: Adobe Illustrator 22.0.1, SVG Export Plug-In . SVG Version: 6.00 Build 0)  -->
<svg version="1.1" id="圖層_1" xmlns="http://www.w3.org/2000/svg" xmlns:xlink="http://www.w3.org/1999/xlink" x="0px" y="0px"
	 viewBox="0 0 472 472" style="enable-background:new 0 0 472 472;" xml:space="preserve">
<style type="text/css">
	.st0{fill:none;stroke:#649E6E;stroke-width:14;stroke-linecap:round;stroke-linejoin:round;stroke-miterlimit:10;}
</style>
<path fill="#649E6E" d="M468,256v-48h-80v48h32v16h-16v16h48v-16h-16v-16H468z"/>
<path fill="#649E6E" d="M52,400h32v16H68v16h48v-16h-16v-16h32v-48H52V400z"/>
<path fill="#649E6E" d="M340,400h32v16h-16v16h48v-16h-16v-16h32v-48h-80V400z"/>
<path fill="#649E6E" d="M196,48h32v16h-16v16h48V64h-16V48h32V0h-80V48z"/>
<path fill="#649E6E" d="M196,440h32v16h-16v16h48v-16h-16v-16h32v-48h-80V440z"/>
<path fill="#649E6E" d="M84,128H68v16h48v-16h-16v-16h32V64H52v48h32V128z"/>
<path fill="#649E6E" d="M372,128h-16v16h48v-16h-16v-16h32V64h-80v48h32V128z"/>
<path fill="#649E6E" d="M20,272v16h48v-16H52v-16h32v-48H4v48h32v16H20z"/>
<polyline class="st0" points="236,96 146,336 371,241 "/>
<line class="st0" x1="121" y1="158" x2="227" y2="375"/>
<line class="st0" x1="146" y1="336" x2="311" y2="353"/>
<path fill="#649E6E" d="M132,327"/>
<line class="st0" x1="60" y1="158" x2="40" y2="194"/>
<line class="st0" x1="61.6" y1="300.4" x2="82.4" y2="336"/>
<line class="st0" x1="418" y1="153" x2="438" y2="189"/>
<line class="st0" x1="418.4" y1="301.4" x2="397.6" y2="337"/>
<line class="st0" x1="146" y1="411" x2="181" y2="432"/>
<line class="st0" x1="305" y1="29.5" x2="340" y2="50.5"/>
<line class="st0" x1="329.2" y1="415.8" x2="292.8" y2="435.2"/>
<line class="st0" x1="173.7" y1="31.8" x2="137.3" y2="51.2"/>
</svg>
