<?xml version="1.0" encoding="utf-8"?>
<!-- Generator: Adobe Illustrator 16.0.0, SVG Export Plug-In . SVG Version: 6.00 Build 0)  -->
<!DOCTYPE svg PUBLIC "-//W3C//DTD SVG 1.1//EN" "http://www.w3.org/Graphics/SVG/1.1/DTD/svg11.dtd">
<svg version="1.1" id="圖層_1" xmlns="http://www.w3.org/2000/svg" xmlns:xlink="http://www.w3.org/1999/xlink" x="0px" y="0px"
	 width="75px" height="100.013px" viewBox="0 0 75 100.013" enable-background="new 0 0 75 100.013" xml:space="preserve">
<g>
	<path fill-rule="evenodd" clip-rule="evenodd" fill="#649E6E" d="M37.51,21.884c-8.638,0-15.626,6.988-15.626,15.626
		c0,8.621,6.988,15.626,15.626,15.626c8.621,0,15.626-7.005,15.626-15.626C53.136,28.872,46.131,21.884,37.51,21.884L37.51,21.884z
		 M37.51,46.878c-5.191,0-9.387-4.196-9.387-9.368c0-5.191,4.195-9.388,9.387-9.388c5.172,0,9.367,4.196,9.367,9.388
		C46.877,42.682,42.682,46.878,37.51,46.878L37.51,46.878z M37.51,0C16.786,0,0,16.786,0,37.51c0,15.669,31.268,62.53,37.51,62.503
		C43.643,100.04,75,52.968,75,37.51C75,16.786,58.214,0,37.51,0L37.51,0z M37.51,90.626C32.307,90.657,6.258,50.569,6.258,37.51
		c0-17.274,13.978-31.252,31.252-31.252c17.259,0,31.252,13.978,31.252,31.252C68.762,50.386,42.619,90.657,37.51,90.626
		L37.51,90.626z M37.51,90.626"/>
</g>
</svg>
