<?xml version="1.0" encoding="utf-8"?>
<!-- Generator: Adobe Illustrator 16.0.0, SVG Export Plug-In . SVG Version: 6.00 Build 0)  -->
<!DOCTYPE svg PUBLIC "-//W3C//DTD SVG 1.1//EN" "http://www.w3.org/Graphics/SVG/1.1/DTD/svg11.dtd">
<svg version="1.1" id="圖層_1" xmlns="http://www.w3.org/2000/svg" xmlns:xlink="http://www.w3.org/1999/xlink" x="0px" y="0px"
	 width="118.917px" height="107.909px" viewBox="0 0 118.917 107.909" enable-background="new 0 0 118.917 107.909"
	 xml:space="preserve">
<g>
	<g>
		<path fill="#649E6E" d="M64.958,0c-29.755,0-53.959,24.204-53.95,53.805c-0.028,0.466-0.293,8.303,1.938,16.742l-7.269-4.232
			c-1.812-1.054-4.105-0.45-5.166,1.353c-1.044,1.8-0.44,4.113,1.362,5.167l17.025,9.93c0.037,0.019,0.072,0.019,0.11,0.035
			c0.183,0.101,0.365,0.166,0.566,0.238c0.129,0.047,0.257,0.092,0.393,0.129c0.167,0.035,0.321,0.045,0.485,0.063
			c0.119,0.009,0.239,0.047,0.358,0.047c0.063,0,0.117-0.028,0.192-0.028c0.063,0,0.117,0.01,0.183,0.01
			c0.091-0.01,0.173-0.057,0.265-0.066c0.183-0.035,0.356-0.072,0.531-0.126c0.146-0.056,0.293-0.11,0.429-0.173
			c0.157-0.085,0.302-0.167,0.449-0.258c0.136-0.092,0.265-0.183,0.384-0.283c0.136-0.11,0.246-0.236,0.365-0.365
			c0.11-0.119,0.211-0.248,0.302-0.384c0.044-0.073,0.119-0.129,0.164-0.201c0.028-0.065,0.028-0.129,0.056-0.183
			c0.054-0.11,0.136-0.201,0.183-0.312l6.765-16.771c0.787-1.938-0.145-4.134-2.074-4.92c-1.94-0.768-4.134,0.156-4.921,2.095
			l-3.474,8.612c-2.324-7.771-2.058-15.745-2.048-15.965c0-25.593,20.811-46.405,46.396-46.405
			c25.596,0,46.405,20.813,46.405,46.405c0,25.586-20.81,46.396-46.405,46.396c-2.086,0-3.775,1.692-3.775,3.777
			c0,2.084,1.689,3.776,3.775,3.776c29.755,0,53.959-24.205,53.959-53.95C118.917,24.204,94.712,0,64.958,0L64.958,0z M64.958,0"/>
	</g>
	<path fill="#649E6E" d="M63.513,69.211c0.384,0.164,0.777,0.22,1.189,0.246c0.082,0,0.163,0.047,0.245,0.047
		c0.45,0,0.879-0.101,1.281-0.248c0.119-0.045,0.229-0.102,0.34-0.155c0.309-0.154,0.592-0.339,0.858-0.575
		c0.063-0.057,0.136-0.073,0.201-0.129l24.563-31.572c1.482-1.473,1.482-3.86,0-5.34c-1.473-1.473-3.857-1.473-5.34,0L64.071,61.264
		L45.522,45.08c-1.931-0.805-4.134,0.101-4.939,2.02c-0.805,1.932,0.101,4.144,2.021,4.949l20.892,17.162
		C63.495,69.211,63.504,69.211,63.513,69.211L63.513,69.211z M63.513,69.211"/>
</g>
</svg>
