<?xml version="1.0" encoding="utf-8"?>
<!-- Generator: Adobe Illustrator 16.0.0, SVG Export Plug-In . SVG Version: 6.00 Build 0)  -->
<!DOCTYPE svg PUBLIC "-//W3C//DTD SVG 1.1//EN" "http://www.w3.org/Graphics/SVG/1.1/DTD/svg11.dtd">
<svg version="1.1" id="圖層_1" xmlns="http://www.w3.org/2000/svg" xmlns:xlink="http://www.w3.org/1999/xlink" x="0px" y="0px"
	 width="126px" height="116.038px" viewBox="0 0 126 116.038" enable-background="new 0 0 126 116.038" xml:space="preserve">
<g>
	<path fill="#649E6E" d="M14.064,55.755c0.372,0.201,0.772,0.297,1.168,0.297c0.875,0,1.722-0.468,2.167-1.292
		c4.396-8.135,12.482-13.592,21.635-14.597c6.279-0.689,12.435,0.698,17.798,4.014c1.156,0.714,2.673,0.356,3.388-0.8
		s0.356-2.672-0.8-3.387c-6.306-3.898-13.541-5.529-20.923-4.72c-10.759,1.182-20.265,7.593-25.428,17.149
		C12.423,53.616,12.869,55.109,14.064,55.755L14.064,55.755z"/>
	<path fill="#649E6E" d="M2.461,68.788h10.421c1.359,0,2.461-1.102,2.461-2.461c0-1.358-1.102-2.461-2.461-2.461H2.461
		C1.102,63.866,0,64.969,0,66.327C0,67.687,1.102,68.788,2.461,68.788L2.461,68.788z"/>
	<path fill="#649E6E" d="M76.127,41.078c3.498-1.013,7.145-1.32,10.839-0.915c9.151,1.005,17.239,6.462,21.635,14.597
		c0.445,0.824,1.292,1.292,2.167,1.292c0.396,0,0.796-0.096,1.168-0.297c1.195-0.646,1.642-2.139,0.995-3.335
		c-5.163-9.557-14.669-15.968-25.428-17.149c-4.337-0.476-8.625-0.112-12.743,1.079c-1.306,0.378-2.059,1.742-1.681,3.048
		S74.822,41.455,76.127,41.078L76.127,41.078z"/>
	<path fill="#649E6E" d="M110.657,66.327c0,1.359,1.102,2.461,2.461,2.461h10.421c1.359,0,2.461-1.102,2.461-2.461
		c0-1.358-1.102-2.461-2.461-2.461h-10.421C111.759,63.866,110.657,64.968,110.657,66.327L110.657,66.327z"/>
	<path fill="#649E6E" d="M58.895,99.504c-7.553-1.689-14.459-5.479-19.972-10.954c-2.912-2.893-5.048-6.347-6.178-9.99
		c-0.578-1.864-0.872-3.641-0.872-5.282c0-2.853,1.199-5.596,3.376-7.726c2.478-2.422,5.879-3.763,9.334-3.688
		c2.694,0.06,5.239,0.968,7.361,2.625c1.784,1.393,4.002,1.995,6.246,1.699c1.847-0.244,3.517-1.074,4.81-2.367
		c1.293,1.294,2.963,2.123,4.809,2.367c2.245,0.296,4.463-0.307,6.247-1.699c2.122-1.657,4.667-2.565,7.361-2.625
		c3.456-0.066,6.856,1.267,9.333,3.688c2.178,2.129,3.376,4.873,3.376,7.726c0,1.642-0.293,3.418-0.871,5.282
		c-1.13,3.644-3.266,7.098-6.178,9.99c-5.513,5.476-12.419,9.265-19.973,10.954c-1.581,0.354-2.991,1.141-4.105,2.265
		C61.887,100.645,60.476,99.858,58.895,99.504L58.895,99.504z M123.539,90.075h-12.363c-5.822,0-11.373,2.269-15.63,6.389
		c-7.501,7.259-16.927,12.568-25.86,14.568c-0.251,0.056-0.506,0.084-0.759,0.084c-1.596,0-3.007-1.133-3.356-2.694
		c-0.201-0.897-0.041-1.82,0.452-2.598s1.26-1.315,2.157-1.517c8.461-1.894,16.194-6.135,22.366-12.266
		c3.48-3.458,6.043-7.615,7.41-12.024c0.725-2.336,1.092-4.604,1.092-6.739c0-4.189-1.725-8.183-4.856-11.245
		c-3.418-3.342-8.119-5.2-12.885-5.091c-3.762,0.085-7.316,1.353-10.28,3.666c-0.734,0.573-1.648,0.822-2.572,0.7
		s-1.741-0.601-2.303-1.347c-1.127-1.497-0.799-3.678,0.731-4.86c4.277-3.307,9.404-5.054,14.826-5.054
		c7.708,0,15.037,3.731,19.604,9.982c0.802,1.098,2.341,1.337,3.438,0.535s1.337-2.342,0.535-3.438
		c-5.49-7.515-14.305-12.002-23.578-12.002c-6.521,0-12.689,2.104-17.837,6.082C63.56,51.449,63.27,51.71,63,51.985
		c-0.27-0.275-0.561-0.536-0.873-0.778c-5.147-3.979-11.314-6.082-17.836-6.082c-9.273,0-18.088,4.486-23.579,12.002
		c-0.802,1.097-0.562,2.637,0.535,3.438c1.098,0.802,2.638,0.562,3.439-0.535c4.567-6.251,11.896-9.982,19.604-9.982
		c5.422,0,10.548,1.748,14.826,5.054c1.529,1.183,1.857,3.363,0.73,4.86c-0.561,0.746-1.379,1.225-2.303,1.347
		c-0.924,0.123-1.838-0.126-2.572-0.7c-2.963-2.313-6.518-3.582-10.279-3.666c-4.768-0.11-9.468,1.749-12.885,5.091
		c-3.133,3.063-4.857,7.057-4.857,11.245c0,2.136,0.367,4.403,1.092,6.739c1.368,4.409,3.931,8.567,7.41,12.024
		c6.172,6.131,13.906,10.372,22.366,12.266c0.898,0.201,1.664,0.739,2.157,1.517s0.653,1.7,0.452,2.598
		c-0.349,1.562-1.761,2.694-3.356,2.694c-0.253,0-0.508-0.028-0.758-0.084c-8.935-2-18.36-7.31-25.861-14.568
		c-4.257-4.12-9.808-6.389-15.63-6.389H2.461C1.102,90.075,0,91.178,0,92.536c0,1.359,1.102,2.461,2.461,2.461h12.363
		c4.538,0,8.873,1.777,12.207,5.003c8.133,7.871,18.415,13.644,28.209,15.835c0.604,0.135,1.22,0.203,1.833,0.203
		c2.272,0,4.391-0.945,5.927-2.489c1.536,1.544,3.654,2.489,5.927,2.489c0.613,0,1.229-0.068,1.833-0.203
		c9.794-2.191,20.075-7.963,28.209-15.835c3.334-3.226,7.669-5.003,12.207-5.003h12.363c1.359,0,2.461-1.102,2.461-2.461
		C126,91.178,124.898,90.075,123.539,90.075L123.539,90.075z"/>
	<path fill="#649E6E" d="M62.997,19.563c1.359,0,2.461-1.102,2.461-2.461V2.461C65.458,1.102,64.356,0,62.997,0
		s-2.461,1.102-2.461,2.461v14.641C60.536,18.461,61.638,19.563,62.997,19.563L62.997,19.563z"/>
	<path fill="#649E6E" d="M45.573,24.494c0.48,0.479,1.11,0.72,1.739,0.72c0.631,0,1.261-0.241,1.741-0.722
		c0.961-0.961,0.96-2.52-0.001-3.48l-5.889-5.883c-0.961-0.96-2.52-0.96-3.479,0.002c-0.961,0.961-0.96,2.52,0.001,3.48
		L45.573,24.494L45.573,24.494z"/>
	<path fill="#649E6E" d="M34.305,12.212c0.669,0,1.336-0.271,1.822-0.806l0.002-0.003c0.914-1.006,0.839-2.561-0.167-3.475
		c-1.006-0.915-2.563-0.839-3.478,0.167c-0.914,1.005-0.84,2.562,0.166,3.476C33.122,12,33.715,12.212,34.305,12.212L34.305,12.212z
		"/>
	<path fill="#649E6E" d="M78.315,25.602c0.63,0,1.26-0.24,1.74-0.722l13.241-13.246c0.961-0.961,0.961-2.52,0-3.48
		s-2.52-0.961-3.48,0.001L76.575,21.4c-0.962,0.961-0.961,2.52,0,3.48C77.056,25.361,77.686,25.602,78.315,25.602L78.315,25.602z"/>
	<path fill="#649E6E" d="M67.885,39.616c1.359,0,2.461,1.102,2.461,2.461s-1.102,2.461-2.461,2.461s-2.461-1.102-2.461-2.461
		S66.525,39.616,67.885,39.616L67.885,39.616z"/>
</g>
</svg>
