<?xml version="1.0" encoding="utf-8"?>
<!-- Generator: Adobe Illustrator 16.0.0, SVG Export Plug-In . SVG Version: 6.00 Build 0)  -->
<!DOCTYPE svg PUBLIC "-//W3C//DTD SVG 1.1//EN" "http://www.w3.org/Graphics/SVG/1.1/DTD/svg11.dtd">
<svg version="1.1" id="圖層_1" xmlns="http://www.w3.org/2000/svg" xmlns:xlink="http://www.w3.org/1999/xlink" x="0px" y="0px"
	 width="114.759px" height="110.934px" viewBox="0 0 114.759 110.934" enable-background="new 0 0 114.759 110.934"
	 xml:space="preserve">
<g>
	<path fill="#649E6E" d="M3.825,68.855h107.108V7.652c0-2.111-1.718-3.827-3.827-3.827H7.652c-2.109,0-3.827,1.716-3.827,3.827
		V68.855L3.825,68.855z M112.847,72.681H1.912C0.856,72.681,0,71.824,0,70.768V7.652C0,3.434,3.433,0,7.652,0h99.454
		c4.219,0,7.652,3.434,7.652,7.652v63.115C114.759,71.824,113.901,72.681,112.847,72.681L112.847,72.681z"/>
	<path fill="#649E6E" d="M3.825,72.681v7.648c0,2.112,1.718,3.827,3.827,3.827h99.454c2.109,0,3.827-1.715,3.827-3.827v-7.648H3.825
		L3.825,72.681z M107.106,87.981H7.652C3.433,87.981,0,84.549,0,80.329v-9.562c0-1.056,0.856-1.912,1.912-1.912h110.935
		c1.055,0,1.912,0.856,1.912,1.912v9.562C114.759,84.549,111.325,87.981,107.106,87.981L107.106,87.981z"/>
	<path fill="#649E6E" d="M63.117,80.331H51.642c-1.056,0-1.913-0.856-1.913-1.912s0.857-1.913,1.913-1.913h11.476
		c1.056,0,1.913,0.857,1.913,1.913S64.173,80.331,63.117,80.331L63.117,80.331z"/>
	<path fill="#649E6E" d="M11.476,68.855h91.808v-57.38H11.476V68.855L11.476,68.855z M105.195,72.681H9.563
		c-1.057,0-1.913-0.856-1.913-1.913V9.563c0-1.056,0.856-1.913,1.913-1.913h95.632c1.056,0,1.913,0.857,1.913,1.913v61.204
		C107.108,71.824,106.251,72.681,105.195,72.681L105.195,72.681z"/>
	<path fill="#649E6E" d="M32.515,103.283c-1.056,0-1.912,0.858-1.912,1.912c0,1.055,0.856,1.913,1.912,1.913h49.729
		c1.057,0,1.913-0.858,1.913-1.913c0-1.054-0.856-1.912-1.913-1.912H32.515L32.515,103.283z M82.243,110.934H32.515
		c-3.163,0-5.737-2.574-5.737-5.738c0-3.163,2.574-5.737,5.737-5.737h49.729c3.164,0,5.738,2.574,5.738,5.737
		C87.981,108.359,85.407,110.934,82.243,110.934L82.243,110.934z"/>
	<path fill="#649E6E" d="M45.656,99.458h23.447c-2.356-2.609-3.743-6.493-4.021-11.477H49.677
		C49.397,92.965,48.011,96.849,45.656,99.458L45.656,99.458z M78.419,103.283H36.34c-1.056,0-1.912-0.857-1.912-1.912
		c0-1.057,0.856-1.913,1.912-1.913c6.347,0,9.563-4.505,9.563-13.389c0-1.056,0.857-1.913,1.913-1.913h19.126
		c1.056,0,1.913,0.857,1.913,1.913c0,8.884,3.217,13.389,9.563,13.389c1.056,0,1.912,0.856,1.912,1.913
		C80.331,102.426,79.475,103.283,78.419,103.283L78.419,103.283z"/>
	<path fill="#649E6E" d="M78.663,55.477c0.639,0,1.277,0.242,1.766,0.73l4.204,4.206l2.704-2.706l-4.438-4.438
		c-0.409-0.406-0.635-0.953-0.635-1.532c0-0.577,0.224-1.121,0.631-1.53l1.48-1.48L71.721,44.93l3.796,12.656l1.381-1.381
		C77.384,55.721,78.022,55.477,78.663,55.477L78.663,55.477z M84.633,65.03c-0.507,0-0.995-0.201-1.353-0.561l-4.617-4.619
		l-2.704,2.706c-0.477,0.477-1.171,0.664-1.821,0.504c-0.652-0.165-1.17-0.66-1.363-1.307l-5.738-19.127
		c-0.203-0.673-0.02-1.403,0.48-1.9c0.497-0.498,1.226-0.684,1.901-0.48l19.126,5.738c0.645,0.195,1.14,0.711,1.305,1.363
		c0.164,0.652-0.027,1.345-0.503,1.82l-2.569,2.569l4.617,4.617c0.748,0.748,0.748,1.956,0,2.704l-5.408,5.411
		C85.627,64.829,85.14,65.03,84.633,65.03L84.633,65.03z"/>
	<path fill="#649E6E" d="M28.689,24.864h49.729v-5.737H28.689V24.864L28.689,24.864z M80.331,28.689H26.777
		c-1.057,0-1.913-0.856-1.913-1.912v-9.563c0-1.056,0.856-1.913,1.913-1.913h53.554c1.056,0,1.912,0.857,1.912,1.913v9.563
		C82.243,27.833,81.387,28.689,80.331,28.689L80.331,28.689z"/>
	<path fill="#649E6E" d="M36.34,43.991h11.477v-3.825H36.34V43.991L36.34,43.991z M49.729,47.816H34.428
		c-1.056,0-1.913-0.857-1.913-1.913v-7.65c0-1.056,0.857-1.913,1.913-1.913h15.301c1.056,0,1.913,0.857,1.913,1.913v7.65
		C51.642,46.959,50.784,47.816,49.729,47.816L49.729,47.816z"/>
	<path fill="#649E6E" d="M28.689,51.642h41.05l-2.705-9.013c-0.202-0.675-0.019-1.404,0.48-1.902
		c0.497-0.498,1.226-0.684,1.901-0.48l9.003,2.7V19.127H28.689V51.642L28.689,51.642z M72.31,55.467H26.777
		c-1.057,0-1.913-0.857-1.913-1.912V17.214c0-1.056,0.856-1.913,1.913-1.913h53.554c1.056,0,1.912,0.857,1.912,1.913v28.304
		c0,0.604-0.284,1.174-0.771,1.533c-0.483,0.361-1.11,0.473-1.69,0.299l-8.062-2.42l2.421,8.074
		c0.174,0.579,0.063,1.206-0.298,1.692C73.483,55.182,72.916,55.467,72.31,55.467L72.31,55.467z"/>
</g>
</svg>
