<?xml version="1.0" encoding="utf-8"?>
<!-- Generator: Adobe Illustrator 16.0.0, SVG Export Plug-In . SVG Version: 6.00 Build 0)  -->
<!DOCTYPE svg PUBLIC "-//W3C//DTD SVG 1.1//EN" "http://www.w3.org/Graphics/SVG/1.1/DTD/svg11.dtd">
<svg version="1.1" id="圖層_1" xmlns="http://www.w3.org/2000/svg" xmlns:xlink="http://www.w3.org/1999/xlink" x="0px" y="0px"
	 width="105px" height="105px" viewBox="0 0 105 105" enable-background="new 0 0 105 105" xml:space="preserve">
<g>
	<path fill="#649E6E" d="M102.518,43.329l-11.754-2.315c-0.775-2.581-1.813-5.073-3.094-7.445l6.543-9.814
		c0.813-1.22,0.652-2.845-0.385-3.882l-8.699-8.7c-1.037-1.037-2.662-1.198-3.883-0.385l-9.814,6.543
		c-2.373-1.282-4.865-2.317-7.445-3.093L61.671,2.482C61.387,1.04,60.122,0,58.652,0H46.348c-1.47,0-2.734,1.04-3.019,2.482
		l-2.315,11.755c-2.582,0.775-5.073,1.811-7.446,3.093l-9.814-6.543c-1.22-0.813-2.846-0.652-3.882,0.385l-8.7,8.7
		c-1.037,1.037-1.197,2.662-0.384,3.882l6.542,9.814c-1.282,2.372-2.318,4.864-3.094,7.445L2.481,43.329
		C1.04,43.613,0,44.878,0,46.348v12.305c0,1.47,1.04,2.734,2.482,3.019l11.755,2.315c0.775,2.581,1.812,5.073,3.093,7.445
		l-6.542,9.814c-0.813,1.22-0.652,2.845,0.384,3.882l8.7,8.7c1.037,1.037,2.662,1.197,3.882,0.385l9.814-6.543
		c2.373,1.282,4.865,2.317,7.446,3.093l2.315,11.755c0.285,1.442,1.549,2.482,3.019,2.482h12.305c1.47,0,2.734-1.04,3.019-2.482
		l2.315-11.755c2.58-0.775,5.072-1.811,7.445-3.093l9.814,6.543c1.221,0.813,2.845,0.651,3.883-0.385l8.699-8.701
		c1.037-1.036,1.197-2.661,0.385-3.881l-6.543-9.814c1.281-2.372,2.318-4.864,3.094-7.445l11.754-2.315
		c1.443-0.284,2.482-1.549,2.482-3.019V46.348C105,44.878,103.961,43.613,102.518,43.329L102.518,43.329z M98.848,56.123
		l-11.143,2.195c-1.172,0.23-2.105,1.12-2.391,2.279c-0.816,3.303-2.125,6.452-3.89,9.363c-0.619,1.021-0.591,2.309,0.071,3.302
		l6.199,9.298l-5.135,5.135l-9.299-6.199c-0.992-0.662-2.279-0.689-3.301-0.07c-2.912,1.765-6.062,3.072-9.363,3.889
		c-1.16,0.286-2.049,1.219-2.28,2.392l-2.194,11.142h-7.246l-2.195-11.142c-0.231-1.173-1.121-2.105-2.281-2.392
		c-3.301-0.816-6.451-2.125-9.363-3.89c-1.021-0.618-2.308-0.591-3.301,0.071l-9.298,6.199l-5.134-5.135l6.199-9.298
		c0.663-0.993,0.69-2.281,0.071-3.302c-1.765-2.911-3.073-6.062-3.889-9.363c-0.287-1.159-1.219-2.049-2.392-2.279L6.152,56.123
		v-7.246l11.142-2.194c1.173-0.231,2.105-1.121,2.392-2.28c0.816-3.302,2.125-6.451,3.889-9.363
		c0.619-1.021,0.591-2.309-0.071-3.302l-6.199-9.298l5.134-5.135l9.298,6.199c0.994,0.662,2.281,0.689,3.301,0.071
		c2.912-1.765,6.062-3.073,9.363-3.89c1.16-0.286,2.049-1.219,2.281-2.392l2.194-11.142h7.246l2.194,11.142
		c0.231,1.173,1.12,2.105,2.28,2.392c3.302,0.816,6.451,2.125,9.363,3.89c1.021,0.618,2.309,0.591,3.302-0.071l9.298-6.199
		l5.135,5.135l-6.199,9.298c-0.662,0.993-0.689,2.281-0.071,3.302c1.765,2.911,3.073,6.062,3.89,9.363
		c0.285,1.159,1.219,2.049,2.392,2.279l11.142,2.195V56.123z M98.848,56.123"/>
	<path fill="#649E6E" d="M52.5,24.814c-15.266,0-27.686,12.42-27.686,27.686S37.234,80.186,52.5,80.186S80.186,67.766,80.186,52.5
		S67.766,24.814,52.5,24.814L52.5,24.814z M52.5,74.033c-11.874,0-21.533-9.659-21.533-21.533s9.66-21.533,21.533-21.533
		c11.873,0,21.533,9.659,21.533,21.533S64.373,74.033,52.5,74.033L52.5,74.033z M52.5,74.033"/>
	<path fill="#649E6E" d="M52.5,37.119c-8.481,0-15.381,6.9-15.381,15.381c0,8.481,6.9,15.381,15.381,15.381
		c8.48,0,15.381-6.899,15.381-15.381C67.881,44.02,60.98,37.119,52.5,37.119L52.5,37.119z M52.5,61.729
		c-5.088,0-9.229-4.141-9.229-9.229s4.14-9.229,9.229-9.229c5.088,0,9.229,4.141,9.229,9.229S57.588,61.729,52.5,61.729L52.5,61.729
		z M52.5,61.729"/>
</g>
</svg>
