<?xml version="1.0" encoding="utf-8"?>
<!-- Generator: Adobe Illustrator 16.0.0, SVG Export Plug-In . SVG Version: 6.00 Build 0)  -->
<!DOCTYPE svg PUBLIC "-//W3C//DTD SVG 1.1//EN" "http://www.w3.org/Graphics/SVG/1.1/DTD/svg11.dtd">
<svg version="1.1" id="圖層_1" xmlns="http://www.w3.org/2000/svg" xmlns:xlink="http://www.w3.org/1999/xlink" x="0px" y="0px"
	 width="106px" height="106px" viewBox="0 0 106 106" enable-background="new 0 0 106 106" xml:space="preserve">
<g>
	<g>
		<path fill="#649E6E" d="M52.029,48.008c0.323-0.006,0.647-0.012,0.971-0.012c0.323,0,0.646,0.006,0.968,0.012
			c10.511-0.507,18.907-9.217,18.907-19.852c0-10.959-8.916-19.875-19.875-19.875s-19.875,8.916-19.875,19.875
			C33.125,38.79,41.52,47.499,52.029,48.008L52.029,48.008z M31.365,101.859c0,2.287-1.854,4.141-4.141,4.141H12.565
			c-3.795,0-7.344-1.688-9.737-4.631c-2.405-2.958-3.338-6.8-2.56-10.539c2.485-11.938,9.068-22.801,18.536-30.588
			c5.164-4.248,11.064-7.467,17.352-9.536c-6.863-5.14-11.313-13.335-11.313-22.55C24.844,12.631,37.475,0,53,0
			s28.156,12.631,28.156,28.156c0,9.207-4.441,17.395-11.295,22.535c0.693,0.229,1.384,0.47,2.069,0.728
			c2.142,0.804,3.225,3.191,2.421,5.332s-3.191,3.226-5.332,2.421c-4.783-1.797-9.81-2.764-14.955-2.882
			c-0.354,0.014-0.708,0.022-1.064,0.022c-0.354,0-0.705-0.009-1.055-0.021C30.903,56.78,12.676,71.863,8.376,92.518
			c-0.269,1.289,0.051,2.611,0.877,3.627c0.479,0.588,1.545,1.574,3.313,1.574h14.659C29.512,97.719,31.365,99.572,31.365,101.859
			L31.365,101.859z M102.83,71.345c-1.771-3.965-5.765-6.534-10.181-6.544H79.736c-0.01,0-0.018,0-0.027,0
			c-4.658,0-8.723,2.745-10.357,6.999c-0.218,0.566-0.484,1.279-0.762,2.11H41.48c-1.12,0-2.191,0.453-2.971,1.256l-7.113,7.327
			c-1.567,1.613-1.559,4.183,0.018,5.786l7.246,7.373c0.778,0.792,1.842,1.238,2.953,1.238H55.07c2.287,0,4.141-1.854,4.141-4.141
			s-1.854-4.141-4.141-4.141H43.349l-3.194-3.25l3.076-3.168h28.464c1.908,0,3.568-1.303,4.022-3.156
			c0.335-1.367,0.755-2.683,1.363-4.264c0.4-1.043,1.407-1.689,2.638-1.689c0.002,0,0.006,0,0.008,0H92.64
			c1.171,0.003,2.179,0.632,2.63,1.643c1.111,2.486,2.439,6.336,2.449,10.556c0.01,4.25-1.316,8.188-2.431,10.743
			c-0.449,1.031-1.466,1.695-2.601,1.695c-0.002,0-0.004,0-0.006,0H79.612c-1.146-0.002-2.219-0.74-2.67-1.834
			c-0.484-1.174-0.903-2.515-1.283-4.099c-0.532-2.224-2.767-3.595-4.99-3.063c-2.224,0.533-3.596,2.768-3.063,4.991
			c0.48,2.008,1.031,3.751,1.682,5.329c1.738,4.215,5.784,6.946,10.316,6.957h13.068c0.009,0,0.018,0,0.025,0
			c4.421,0,8.416-2.615,10.182-6.667c1.432-3.281,3.135-8.387,3.121-14.073C105.986,79.59,104.27,74.563,102.83,71.345
			L102.83,71.345z M89.23,89.438c-2.287,0-4.141-1.854-4.141-4.141s1.854-4.141,4.141-4.141s4.141,1.854,4.141,4.141
			S91.518,89.438,89.23,89.438L89.23,89.438z"/>
	</g>
</g>
</svg>
