<?xml version="1.0" encoding="utf-8"?>
<!-- Generator: Adobe Illustrator 16.0.0, SVG Export Plug-In . SVG Version: 6.00 Build 0)  -->
<!DOCTYPE svg PUBLIC "-//W3C//DTD SVG 1.1//EN" "http://www.w3.org/Graphics/SVG/1.1/DTD/svg11.dtd">
<svg version="1.1" id="圖層_1" xmlns="http://www.w3.org/2000/svg" xmlns:xlink="http://www.w3.org/1999/xlink" x="0px" y="0px"
	 width="125px" height="103.721px" viewBox="0 0 125 103.721" enable-background="new 0 0 125 103.721" xml:space="preserve">
<g>
	<path fill="#649E6E" d="M20.159,15.757c-1.516,0-2.775,1.241-2.775,2.756c0,1.516,1.259,2.756,2.775,2.756
		c1.534,0,2.755-1.24,2.755-2.756C22.915,16.999,21.674,15.757,20.159,15.757z M19.141,18.513c0-0.572,0.445-1.018,1.018-1.018
		c0.573,0,1.018,0.445,1.018,1.018C21.177,19.64,19.141,19.64,19.141,18.513z"/>
	<path fill="#649E6E" d="M123.104,63.992c-0.801-0.775-1.804-1.253-3.001-1.421c-0.167-1.633-0.183-4.864-0.2-8.267
		c-0.037-5.123-0.09-10.914-0.553-14.744c-0.932-7.398-7.68-13.464-12.219-15.463c-3.4-4.139-8.305-7.104-13.861-8.079
		c-5.53-0.98-9.654,0.479-13.295,1.775c-2.202,0.796-4.11,1.458-5.976,1.458c-5.384,0-14.981-0.516-19.385-1.699
		c-3.971-1.055-10.463-4.11-13.398-5.888c1.403-1.874,2.297-4.041,2.229-5.969c-0.095-2.736-1.203-4.772-2.94-5.454
		c-0.833-0.336-2.533-0.611-4.422,1.273c-0.874,0.874-1.975,1.799-3.067,2.649c-3.956-3.804-8.527-2.631-11.08-1.981
		c-3.182,0.833-5.255,3.641-7.249,6.359c-0.54,0.742-1.094,1.5-1.686,2.22c-1.241,1.534-4.124,4.328-6.676,6.771
		c-3.773,3.642-5.365,5.214-5.899,6.18c-1.903,3.348,3.182,8.082,3.754,8.617c1.444,1.293,4.162,2.813,6.435,2.813
		c0.388,0,0.776-0.038,1.127-0.151c0.298-0.09,0.667-0.218,1.112-0.389c1.719-0.644,4.64-1.718,7.472-0.592
		c1.092,0.438,2.314,0.62,3.602,0.585c0.027,0.027,0.048,0.058,0.077,0.083c2.368,2.073,3.182,4.327,4.513,8.044
		c0.559,1.521,1.169,3.22,1.965,5.161c1.662,4.016,2.533,7.566,3.381,11.004c0.559,2.329,1.15,4.754,1.96,7.269
		c1.87,5.682,6.752,7.509,10.691,7.509c0.581,0,1.137-0.04,1.662-0.109c0.692,2.659,1.232,6.794,1.316,10.45
		c0.095,4.347-1.572,17.457-1.572,17.59c-0.076,0.535,0.095,1.09,0.445,1.478c0.369,0.426,0.885,0.648,1.425,0.648h6.97
		c1.056,0,1.908-0.853,1.908-1.885c0-1.183,0.185-10.653,1.032-17.537c0.299-2.401,0.611-5.696,0.928-9.063
		c0.095-0.995,0.193-2.033,0.294-3.077c2.696-1.986,7.179-3.977,11.43-4.077c7.324-0.166,14.54,2.234,16.055,4.455
		c0.17,0.253,0.389,0.441,0.631,0.579l0.236,1.216c0.63,3.087,1.482,7.324,1.889,10.507c0.408,3.2-0.482,13.205-0.852,16.794
		c-0.057,0.535,0.113,1.07,0.463,1.458c0.37,0.407,0.887,0.63,1.426,0.63h6.34c0.521,0,1.019-0.223,1.373-0.61
		c0.369-0.389,0.555-0.904,0.517-1.444c-0.038-0.497,0.128-3.476,0.261-5.881c0.203-3.735,0.439-7.95,0.369-9.673
		c-0.096-2.902,0.108-13.76,0.406-15.961c0.129-0.867,2.254-3.755,3.66-5.658c1.592-2.184,3.258-4.441,4.365-6.473
		c2.852-5.18,3.813-16.482,2.107-24.674c-0.113-0.551-0.25-1.095-0.407-1.631c2.186,2.309,4.012,5.251,4.403,8.326
		c0.445,3.59,0.483,9.266,0.517,14.275c0.017,3.763,0.047,6.833,0.229,8.661c-1.393,0.548-2.189,1.489-2.631,2.271
		c-1.907,3.476,0.147,8.859,1.108,11.004c1.667,3.665,3.035,5.848,3.087,5.938c0.318,0.502,0.871,0.833,1.482,0.871
		c0.038,0,0.071,0,0.109,0c0.572,0,1.112-0.241,1.463-0.667c0.128-0.146,3.105-3.812,3.812-9.323
		C125.158,69.986,125.305,66.174,123.104,63.992z M106.182,56.188c-1,1.833-2.59,3.978-4.105,6.065
		c-2.552,3.48-4.124,5.678-4.365,7.382c-0.336,2.477-0.555,13.466-0.426,16.61c0.037,1.553-0.204,5.88-0.389,9.337
		c-0.095,1.94-0.186,3.347-0.223,4.347h-2.405c0.369-3.921,1.075-12.277,0.648-15.573c-0.426-3.31-1.298-7.618-1.922-10.763
		l-0.427-2.145c-0.223-1.165-1.018-2.52-2.125-4.365c-2.184-3.684-5.162-8.693-4.518-13.632c0.133-1.056-0.592-1.998-1.624-2.145
		c-1.075-0.151-1.998,0.61-2.131,1.643c-0.649,5.021,1.474,9.809,3.54,13.522c-3.967-1.506-9.057-2.232-13.432-2.164
		c-3.853,0.076-7.777,1.404-10.874,3.082c0.325-2.998,0.657-5.501,0.96-6.41c0.332-0.98-0.203-2.055-1.203-2.387
		c-0.999-0.336-2.055,0.204-2.387,1.184c-0.535,1.585-0.992,5.476-1.55,11.194c0,0.009-0.001,0.017-0.002,0.026
		c-0.118,1.211-0.24,2.498-0.369,3.869c-0.317,3.329-0.611,6.587-0.909,8.973c-0.682,5.531-0.961,12.671-1.032,16.09h-2.979
		c0.479-3.978,1.425-12.467,1.331-16.019c-0.095-4.531-0.942-10.928-2.273-13.849c-0.483-1.057-1.373-2.35-2.386-3.85
		c-1.52-2.235-3.589-5.289-3.812-7.027c-0.127-1.036-1.075-1.775-2.106-1.647c-1.037,0.128-1.776,1.094-1.648,2.126
		c0.332,2.628,2.495,5.848,4.422,8.674c0.363,0.532,0.718,1.053,1.036,1.535c-2.382-0.01-5.771-0.924-7.068-4.901
		c-0.776-2.367-1.312-4.603-1.884-6.97c-0.89-3.589-1.776-7.287-3.551-11.563c-0.795-1.884-1.387-3.531-1.908-4.99
		c-1.113-3.105-1.979-5.533-3.759-7.734c3.835-1.377,7.672-4.262,10.141-8.023c0.573-0.89,0.332-2.055-0.535-2.627
		c-0.89-0.573-2.055-0.332-2.628,0.535c-3.551,5.421-10.322,8.177-13.575,6.898c-4.2-1.682-8.101-0.223-10.208,0.572
		c-0.336,0.114-0.592,0.223-0.795,0.279c-0.573,0.166-2.704-0.667-3.996-1.832c-1.61-1.458-2.959-3.494-3.016-3.939
		c0.407-0.648,3.201-3.348,5.256-5.326c2.736-2.643,5.583-5.384,6.97-7.103c0.629-0.776,1.221-1.572,1.794-2.367
		c1.686-2.273,3.276-4.437,5.142-4.92c2.656-0.68,4.912-1.042,6.993,0.587c-0.379,0.255-0.703,0.465-0.946,0.615
		c-0.886,0.555-1.165,1.719-0.625,2.609c0.554,0.886,1.719,1.165,2.604,0.611c1.501-0.928,5.402-3.627,7.864-6.085
		c0.185-0.189,0.332-0.298,0.389-0.374c0.185,0.279,0.459,0.947,0.497,2.018c0.076,2.106-2.813,5.956-5.53,6.604
		c-1.018,0.237-1.647,1.255-1.406,2.273c0.204,0.871,0.98,1.463,1.851,1.463c0.147,0,0.294-0.02,0.445-0.058
		c1.192-0.281,2.377-0.896,3.47-1.714c2.843,1.9,10.466,5.544,15.152,6.8c4.995,1.335,15.147,1.832,20.365,1.832
		c2.515,0,4.81-0.814,7.229-1.681c3.367-1.184,6.828-2.425,11.359-1.629c7.637,1.368,13.797,7.14,15.293,14.39
		C109.51,41.984,108.326,52.268,106.182,56.188z M121.016,72.594c-0.261,1.923-0.834,3.57-1.444,4.807
		c-0.388-0.758-0.833-1.662-1.297-2.718c-1.44-3.183-1.96-6.326-1.236-7.6c0.166-0.299,0.44-0.63,1.255-0.739
		c0.299-0.038,0.559-0.057,0.795-0.057c0.631,0,1.076,0.128,1.355,0.407C120.978,67.211,121.494,68.656,121.016,72.594z"/>
</g>
</svg>
