<?xml version="1.0" encoding="utf-8"?>
<!-- Generator: Adobe Illustrator 16.0.0, SVG Export Plug-In . SVG Version: 6.00 Build 0)  -->
<!DOCTYPE svg PUBLIC "-//W3C//DTD SVG 1.1//EN" "http://www.w3.org/Graphics/SVG/1.1/DTD/svg11.dtd">
<svg version="1.1" id="圖層_1" xmlns="http://www.w3.org/2000/svg" xmlns:xlink="http://www.w3.org/1999/xlink" x="0px" y="0px"
	 width="282.088px" height="100.578px" viewBox="0 0 282.088 100.578" enable-background="new 0 0 282.088 100.578"
	 xml:space="preserve">
<g opacity="0.5">
	<path fill="#F3B555" d="M1.068,37.507c-0.653,0.179-1.548,1.22-0.76,1.703l2.151-1.066L1.068,37.507z"/>
	<path fill="#F3B555" d="M1.642,44.798c1.5,0.08,3.813-0.156,5.085-1.991c-2.412,0.539-1.841-0.239-4.588,0.561
		c-0.763-0.497-0.405-1.644,0.342-2.081c-0.653,0.146-0.498-1.396-1.918-0.787c-0.596,2.042,0.237,3.129,2.326,3.389
		C2.688,44.458,2.021,44.588,1.642,44.798z"/>
	<path fill="#F3B555" d="M58.677,96.342l-0.532-0.296C58.287,96.204,58.469,96.295,58.677,96.342z"/>
	<path fill="#F3B555" d="M111.022,95.31c-0.389,0.104-0.527,0.352-0.521,0.563C110.85,95.677,111.135,95.5,111.022,95.31z"/>
	<path fill="#F3B555" d="M120.256,96.647c-0.202-0.043-0.367-0.051-0.547-0.075C119.94,96.752,120.158,96.838,120.256,96.647z"/>
	<path fill="#F3B555" d="M58.677,96.342l1.37,0.783C60.174,96.374,59.352,96.537,58.677,96.342z"/>
	<path fill="#F3B555" d="M13.027,51.428c-0.251-0.211-0.577-0.314-0.938-0.368c0.216,0.164,0.422,0.325,0.601,0.513
		C12.805,51.52,12.903,51.474,13.027,51.428z"/>
	<path fill="#F3B555" d="M35.03,95.679l-0.441-0.1c-0.189,0.226-0.385,0.507-0.584,0.828L35.03,95.679z"/>
	<path fill="#F3B555" d="M16.321,86.939c0.32,0.522,1.921-0.669,2.666-1.125c-0.781,0.358-1.337,0.317-1.753,0.045
		C16.938,86.088,16.633,86.422,16.321,86.939z"/>
	<path fill="#F3B555" d="M8.076,58.859l-0.47-0.292C7.741,58.635,7.91,58.783,8.076,58.859z"/>
	<path fill="#F3B555" d="M48.056,98.047c0.004,0.294,0.047,0.556,0.104,0.717C48.181,98.518,48.136,98.278,48.056,98.047z"/>
	<path fill="#F3B555" d="M33.834,40.952c-0.035-0.137-0.083-0.214-0.12-0.329C33.689,40.841,33.708,40.983,33.834,40.952z"/>
	<path fill="#F3B555" d="M11.721,39.55l0.212-0.211c-0.132-0.349-0.26-0.692-0.415-1.022L11.721,39.55z"/>
	<path fill="#F3B555" d="M136.936,96.409c-0.035-0.016-0.047-0.014-0.079-0.023C136.47,96.684,136.706,96.601,136.936,96.409z"/>
	<path fill="#F3B555" d="M279.42,38.924c-1.139,1.069-1.424-0.055-1.918-0.946c-0.469-0.919-1.006-1.511-2.191-0.049
		c0.412-0.088,1.047,0.765,1.727,1.403C277.729,39.958,278.527,40.381,279.42,38.924z"/>
	<path fill="#F3B555" d="M13.049,51.978c0.146,0.206,0.29,0.419,0.403,0.65C13.331,52.295,13.205,52.097,13.049,51.978z"/>
	<path fill="#F3B555" d="M275.311,37.929l-0.018-0.003c-0.078,0.099-0.148,0.198-0.232,0.293
		C275.164,38.099,275.223,38.032,275.311,37.929z"/>
	<path fill="#F3B555" d="M173.643,86.96c-0.162-0.316-0.373-0.534-0.588-0.738C173.117,86.415,173.262,86.631,173.643,86.96z"/>
	<path fill="#F3B555" d="M145.645,90.64l0.732,0.114C146.07,90.636,145.84,90.622,145.645,90.64z"/>
	<path fill="#F3B555" d="M186.975,80.497c0.402,0.045,0.6,0.272,1.023-0.118c-0.072-0.084-0.137-0.139-0.215-0.189
		C187.678,80.499,187.473,80.684,186.975,80.497z"/>
	<path fill="#F3B555" d="M201.479,76.305c-0.119-0.122-0.252-0.201-0.379-0.302c-0.135,0.073-0.291,0.159-0.43,0.235L201.479,76.305
		z"/>
	<path fill="#F3B555" d="M76.248,28.742c-0.417-0.484-0.728-1.048-0.993-1.613C75.735,28.462,73.71,29.351,76.248,28.742z"/>
	<path fill="#F3B555" d="M12.082,52.002c0.473-0.175,0.752-0.183,0.967-0.024c-0.112-0.147-0.234-0.279-0.359-0.405
		C12.416,51.683,12.174,51.817,12.082,52.002z"/>
	<path fill="#F3B555" d="M183.375,65.387l2.35-0.348C185.037,65.033,184.186,65.164,183.375,65.387z"/>
	<path fill="#F3B555" d="M182.016,17.847l-0.529,0.254C181.695,18.139,181.883,18.076,182.016,17.847z"/>
	<path fill="#F3B555" d="M192.367,62.808c0.598,0.548,1.141,0.81,1.658,0.933c0.051-0.175,0.123-0.327,0.121-0.564L192.367,62.808z"
		/>
	<path fill="#F3B555" d="M75.246,27.109c0.006,0.008,0.009,0.02,0.009,0.02S75.251,27.117,75.246,27.109z"/>
	<path fill="#F3B555" d="M61.272,34.854c2.136-0.463,0.421-2.708,0.537-4.265c2.409-1.335,1.618,1.582,2.782,2.669
		c1.449-1.009,2.185-3.594,3.415-3.755c0.179,0.397,0.444,0.499,0.28,1.08c0.641-1.188,1.906-1.489,3.193-1.853
		c1.298-0.336,2.615-0.743,3.383-2.201c0.193,0.196,0.309,0.396,0.383,0.579c-0.566-1.211-0.864-2.494-0.971-3.427
		c0.982-0.229,1.546-1.953,2.226-0.361c-0.617,0.065-0.544,0.746-0.731,1.318l0.904-0.918c1.37,2.215-1.264,1.094-0.933,2.861
		c1.86-1.157,3.87-3.587,5.553-3.148c0.723,2.288-3.495,1.391-1.063,3.129c-0.853-0.173-1.694-0.305-2.546-0.459
		c2.484,3.35-1.487,0.014,0.894,3.649c3.222,0.091,3.288-1.791,6.525-1.639c0.493-1.421-0.549-1.892-0.053-3.312
		c4.119-3.094,4.432,5.35,7.241,1.73c0.62-1.691,0.531-4.717,3.11-3.483l-0.43,2.778c3.089-0.182,1.228-4.081,4.694-2.707
		c-0.438,1.121-2.304,1.191-1.796,1.449c2.364,1.838,1.276-1.699,2.887-1.905l0.635,2.319c3.214-0.808,6.636-2.925,10.243-3.764
		c-0.124,0.727-0.666,1.537,0.266,2.164c4.47-1.689,9.856-0.753,14.438,0.25l1.513-2.203c0.398-0.013,0.819,0.856,0.427,1.293
		c1.807,0.615-0.028-1.306,0.733-2.188c0.977-0.234,1.413,1.056,0.842,1.728c2.905-2.018,8.436-4.503,11.866-2.582l-0.583,0.66
		c2.597,0.624,2.509-4.431,5.013-2.714l-0.42,0.4c5.563,0.434,11.486-1.915,15.875,0.884c0.594-3.024,5.48,0.956,5.566-3.185
		c3.242,1.849,2.402,2.616,6.828,3.776c1.17,0.131,1.607-2.662,3.035-3.165l0.131,2.154l1.859-2.339l1.137,2.544l1.324-0.599
		c-0.539-0.108-1.172-0.93-1.113-1.555c2.082-1.041,5.188,1.321,5.252,2.446l4.924-1.887c-0.104,0.869-0.932,1.178-1.578,1.739
		c2.619-2.234,0.494,2.268,2.895,0.218c-0.326-0.484,0.172-1.287,0.227-1.724c1.209,1.313,3.924,1.362,5.959,0.834l-0.416,1.483
		c1.818,0.184,3.711,0.128,5.684-0.027c0.984-0.07,1.984-0.156,2.992-0.204c1-0.019,2.01-0.008,3.018,0.073
		c-1.396-0.798-0.904-3.347,0.32-3.505l0.313,2.306c0.879-1.346-1.189-0.948,0.531-2.551c1.516,0.375,0.814,2.659-0.105,3.335
		l1.904-0.653c0.049,0.687-0.414,1.013-0.598,1.87c0.895-1.385,2.91,2.565,4.223,0.243l0.029,0.686
		c3.973,0.413,5.842-0.043,9.076,0.331c0.379-1.919,1.582-1.342,2.818-2.697c1.133,0.547,2.279,1.33,3.492,2.024
		c0.605,0.348,1.229,0.673,1.879,0.936c0.646,0.27,1.305,0.526,2.01,0.655c2.189-0.457,0.969-1.475,2.141-2.385
		c-0.283,1.776,2.541,2.314,0.766,3.194c1.715,0.251,2.775,0.507,3.994,0.646c1.223,0.14,2.6,0.153,4.922,0.132
		c-0.207-0.856-0.629-1.305-0.164-1.806c0.877-0.059,1.473,1.339,1.08,2.095l-0.258,0.1c5.607-0.863,8.635,9.066,12.965,7.185
		l-0.238,0.079l1.715-0.092l0.783-0.032c0.248-0.012,0.439-0.061,0.67-0.072c0.197,0.401-0.162,0.532-0.555,0.755
		c-0.408,0.218-0.814,0.565-1.088,1.076c0.361-0.188,0.684-0.262,0.936-0.26c0.877,0.037,0.889,0.74,0.746,1.195
		c-0.074,0.246-0.131,0.454-0.09,0.669c0.045,0.238,0.213,0.596,0.574,1.063c-1.352,0.164-2.084,0.395-2.479,0.782
		c-0.426,0.382-0.566,0.933-0.746,1.548c-0.053,0.146-0.1,0.298-0.145,0.456l-0.182,0.431c-0.055,0.156-0.145,0.256-0.221,0.383
		l-0.123,0.176l-0.207,0.194c-0.541,0.505-1.328,0.755-2.299,0.411l0.844,0.932c0.145,1.39-1.076-0.119-1.631-0.115
		c0.559,0.789,1.24,0.544,1.229,1.349c-1.086,1.147-2.65,2.013-4.455,2.625c-1.801,0.623-3.859,0.999-6.055,1.313
		c-4.498,0.646-9.197,1.003-13.604,1.848c-3.201,0.681,0.223,6.698-4.604,5.128l0.4-2.559c-5.412,4.677-12.822,3.992-18.248,8.166
		c0.207-0.625,0.012-1.29,0.611-1.471c-1.791-1.185-4.811,1.394-4.432,2.716c-1.002,0.142-0.586-1.118-1.379-1.605
		c-1.586-0.552-2.635,3.047-3.813,1.658c-0.195-0.226,0.207-0.633,0.408-0.829c-0.611,1.036-4.004,1.005-2.635,2.613
		c-2.566-0.177-4.168,2.127-6.332,1.571c-0.594,2.432-4.24,0.151-3.77,3.208c-0.713-3.085-4.744-1.272-5.811,0.547
		c0.23-1.057-1.537-0.604-1.322-2.038c-1.652,0.502-3.023,1.491-2.301,2.979c-4.066-2.81-5.393,4.669-8.383,0.403
		c-4.531,2.907-8.852,5.281-13.189,7.022c-0.578-3.115,4.9-1.468,3.908-4.665c-3.924,2.288-5.773,5.49-10.182,5.755
		c-1.191-0.161,0.318-1.481,0.564-2.096c-1.979,1.155-4.061,1.525-6.07,1.923c-2.01,0.405-3.945,0.849-5.676,2.093
		c-0.049-0.29,0.299-0.691,0.637-1.009c-0.729,0.26-1.833-0.082-1.464,1.302l0.654-0.535c1.621,1.78-2.123,4.909-2.058,5.994
		c0.489-4.271-3.998-0.315-2.945-5.794c-0.442,0.357-0.936,1.14-0.643,2.063c-0.79-0.14-1.125-0.648-0.585-1.858
		c-2.545,1.263-1.313,2.588-3.768,3.007c-0.114-0.686,0.332-1.041,0.438-1.891c-0.99,1.561-2.007,3.125-4.18,2.928
		c0.054-0.436-0.278-0.929,0.341-1.032c-3.506,0.825-5.51,4.519-9.643,3.847c0.718-3.164-1.479-0.777-2.055-3.332l-1.989,1.087
		l1.018,1.134c-1.848,0.218-3.244,2.275-4.949,1.628l1.241-1.234l-3.407,0.911l2.087,0.746c-1.717,1.564,0.608,3.258-1.968,2.836
		c0.477-0.323-1.878,0.194-3.018-1.219c0,0,0.006-0.001,0.005-0.008c-0.83,0.927-1.688,1.951-3.142,1.422
		c-0.442-0.802-0.003-2.9-0.292-3.435c-0.69,2.25-4.288,0.972-5.242,3.389c0.34-0.577,0.241-1.946,0.092-2.213l-0.614,1.833
		c-0.912-0.492-1.059-0.756-1.007-1.857c-2.617-0.104,1.086,3.234-2.111,2.072c0.231-0.164,0.097-0.418,0.581-0.73
		c-3.141-0.429-5.922,1.513-8.826,0.783c-0.964-2.588,2.452-0.758,1.379-2.93c-4.033,0.656-8.351,3.604-12.352,2.927l0.744,0.286
		c-0.516,3.715-2.981-1.818-4.977-0.059c0.494-0.278,0.648-2.064,0.516-1.65c-1.354-0.293-2.736-0.053-4.306,0.396
		c-1.566,0.387-3.32,0.987-5.407,1.49l0.545-0.935c-1.568-0.914-4.19-0.656-5.892-1.157c-0.565,0.931-1.548,0.738-1.03,2.145
		c-2.51-2.848-5.014-2.328-7.523-1.744c-2.48,0.581-5.041,1.196-6.887-1.449c0.539,0.089,1.417-0.602,0.993-0.673
		c-1.312,0.075-2.618,0.104-3.932,0.107c-0.062,1.649,0.273,1.063,0.823,2.471c-0.685,0.84-1.972,1.315-2.955,1.071
		c2.026-0.625,0.578-2.516,0.114-3.589c-0.004,0.512-0.394,0.975-0.462,1.478c-1.194-3.318-1.227,3.068-3.428,0.36l0.406-0.761
		c-1.131,0.096-2.456,0.814-3.459,0.163c0.252-1.908,1.368-0.401,1.973-1.835c-0.753-0.209-1.77,0.338-2.729,0.616
		c-0.945,0.284-1.848,0.277-2.013-0.884c0.823-0.133,1.664,0.269,2.474,0.052c-0.247-1.306-0.383-1.841-0.603-2.151
		c-0.209-0.31-0.483-0.399-0.798-0.788l0.054,0.089c-0.455-0.652-0.79-1.311-0.994-1.93c-0.028,0.245-0.03,0.492-0.03,0.749
		c-2.077,1.471-3.008,0.908-3.554,0.171c-0.592-0.779-0.877-1.703-2.864-2.344c1.902,0.625,2.324,0.396,2.544,0.134
		c0.216-0.291,0.241-0.762,1.245-1.109c0.314-0.731,0.65-1.759,1.293-1.733c-0.98-0.188-0.811-0.767-0.744-1.354
		c0.065-0.595,0.023-1.243-1.441-1.81c0.637-0.266-0.361-1.435,1.37-1.63c-1.06-1.606-1.006,0.764-1.875,0.853
		c-0.765-0.499-1.097-1.18-1.235-1.979c-0.157-0.793-0.125-1.705-0.134-2.656c-0.047-1.879-0.313-3.938-2.582-5.146
		c-2.586-2.628-4.961-2.166-7.35-4.337c0.237-0.704,0.884-0.816,1.478-0.741c0.588,0.077,1.114,0.345,1.114,0.345
		c0.107-1.969-0.683-3.043-2.169-4.025c0.677-0.02,0.947-0.559,1.355-1.379c-0.813-1.046-2.576,0.541-2.608-1.435
		c0.797-0.158,2.03-0.482,3.021-0.335c-1.353-1.015-3.259-1.6-4.646-2.557c0.746-1.023,2.027-0.221,2.989-0.164
		c-1.429-1.245-3.571-3.262-5.409-2.562l0.132,1.303c-0.455-0.456,1.107-1.222,1.674-1.033c2.09,0.405,0.741,2.189,0.217,2.638
		l-1-0.663c-1.304,1.617-0.561,2.402,0.641,3.096c1.215,0.676,2.874,1.293,3.361,2.317c-0.988,0.226-1.982,0.466-2.971,0.715
		c1.088,0.208,2.142,0.46,3.231,0.716c-0.409,0.802-1.667,1.874-2.582,1.169c-0.468,2.041,1.582,0.696,0.82,2.633
		c-0.15,0.247-0.305,0.255-0.471,0.191c0.498,0.299,0.988,0.607,1.469,0.927c-0.677,0.019-1.714,1.164-1.755,0.157
		c-0.143,1.574,0.833,2.261,1.629,2.848c0.806,0.576,1.475,1.014,0.664,1.928l-0.253-0.13c1.192,1.486,1.726,1.37,2.381,1.061
		c0.659-0.303,1.442-0.815,3.15,0.059c-1.382,1.27-2.772,2.5-4.207,3.705l2.127-0.416c0.064,0.391,0.182,1.162-0.672,1.319
		c1.858,0.856,0.799-0.552,2.375-0.223c-1.206,2.387,2.474,4.682-0.685,6.067c1.75,0.2,0.702-2.088,2.349-0.461
		c-1.678,0.786-1.365,1.315-0.756,1.918c0.612,0.61,1.498,1.224,1.049,2.374c-1.976,0.165-1.648-1.95-2.582,0.468
		c1.71,0.009,1.871,0.893,1.922,2.081c0.029,1.164,0.064,2.718,0.952,3.318c1.032-0.758,1.831-0.143,2.84,0.675
		c0.993,0.831,2.266,1.885,3.668,2.151c-0.286,0.328,0.692,1.279,2.042,2.226c1.348,0.957,2.989,1.902,4.033,2.716l-0.198,0.385
		c1.232-2.292,3.436-1.134,5.3-1.256c-0.424,1.479-0.877,2.007-2.02,2.422c0.563,0.15,1.126,0.268,1.69,0.402
		c0.584-0.702,1.197-1.022,2.329-1.078l-0.81,1.791c2.311,0.37,4.882-1.376,7.545,0.249c0.349-1.761-1.538-5.226,1.474-6.055
		c-0.009,0.975-0.089,2.634-0.905,2.936c0.269-0.095,0.988-0.688,1.445-0.224l-1.363,1.481c1.195,0.864,0.824-1.27,1.816-1.012
		c-0.167,1.373,0.649,1.062,0.392,2.137c-0.277,0.105-0.833-0.663-1.286-0.165c1.129,0.375,2.451,1.324,2.829,2.407
		c-0.032-0.793,0.168-1.851,1.026-1.96c2.191,0.077,0.615,1.717,1.847,2.523c0.603-0.913,1.931,0.165,2.099-1.893
		c0.635,0.047,0.694,1.006,0.907,1.578c1.184-0.866,5.287-0.053,4.117-2.299l-0.281-0.156c0.057-0.04,0.12-0.04,0.188-0.083
		c-0.009,0,0,0-0.009,0h0.009c1.88-0.953,3.759-0.587,5.649-0.073c1.887,0.546,3.786,1.118,5.612,0.659l-0.01,0.69
		c2.182-0.8,4.854-0.49,6.38-1.984c0.639-0.001,1.538,1.256,1.28,2.079c1.659-0.518,1.815-1.306,4.254-0.282
		c-1.635,1.282,0.614,1.042-1.688,0.962c2.182,0.496,2.729,1.58,4.979-0.415c-0.719,1.807,1.741,2.151,2.751,1.575l-1.588-1.195
		c1.147-0.313,2.168-0.201,3.207-0.1l-0.426,2.352c1.158,0.652,2.231,0.664,3.234,0.358c1.001-0.33,1.934-0.954,2.833-1.516
		c1.802-1.122,3.456-1.993,5.363,0.224c1.025-1.722-2.515-0.937-1.63-2.924c2.049,0.141,4.501,3.286,5.15,3.238
		c2.944,1,2.247-3.683,5.247-3.145c-0.469-0.777-1.063-2.94,0.992-3.977c2.041,0.063,2.91,3.158,1.71,3.975
		c-0.479,0.128-0.746-0.105-0.759-0.388c-0.618,0.38-1.439,0.837-0.526,1.634l0.164-0.856c1.109,0.72,3.902,0.292,3.419,1.725
		c1.441-0.973,0.48-1.432-0.711-1.722c1.381,0.439,2.404,0.324,3.429,0.159c1.022-0.177,2.039-0.438,3.435-0.24
		c-0.491-0.388-1.021-1.293-0.598-1.35c4.061,0.416,1.49-1.823,4.071-2.589c1.696,1.02-0.07,3.069,2.429,1.611
		c1.767,0.595,0.701,2.122,0.154,2.891c1.096-0.979,2.275-0.895,3.371-0.558c1.092,0.325,2.091,0.879,2.813,0.899l-1.17,0.896
		c0.701-0.533,1.331-0.638,1.973-0.751l-1.02-1.502c0.802,0.146,1.439,0.037,1.547,0.72c0.582-1.214-1.073-2.612,0.192-4.358
		c1.146,0.646,2.861-1.448,3.611,0.654c-3.275-0.157,0.755,2.113-1.847,2.954c0.468-0.354,1.097-0.459,1.905-0.312
		c0.158,0.222-0.023,0.469-0.206,0.631c3.39,1.38,0.928-2.706,4.05-3.229c-0.158,1.288,1.184,2.19,1.637,1.812
		c-1.262,0.231-0.998-1.905-0.045-3.082c2.172,0.529,2.008-1.16,3.066-1.269l-1.273-0.196c0.15-1.301,1.168-1.35,2.463-2.023
		c0.316,0.922-1.113,0.915-0.535,1.229c1.072-2.46,3.928,1.479,5.756-0.411c1.172,0.613,0.6,2.26,1.596,2.632
		c2.043-2.099,2.967,1.06,5.186-0.823c-1.102-1.455-1.131-1.029,0.26-3.03l-3.85,2.116l2.096-2.99
		c-1.24,0.27-2.379,1.643-3.184,1.539c0.955-1.625,0.914-1.189,0.018-2.401c2.25,2.043,3.021-2.213,5.354-1.025l0.891,4.04
		c3.385,1.073,4.768-3.259,8.809-3.254l-1.396-0.383c0.109-1.726,2.291-0.827,3.357-1.79c0.229,1.369,1.123,1.656,1.865,2.354
		c-0.322-0.976,2.816-0.629,2.459-3.387l2.164,1.321c3.266-0.09,2.465-4.756,5.514-5.102c-0.484,1.693,1.109,2.269-0.574,3.849
		c0.984-0.258,1.934-0.258,1.693-1.187c0.807,0.676,2.219-2.544,3.473-1.528c0.248-0.699-0.01-2.13,1.119-2.322
		c0.195,0.236,0.182,0.659,0.182,0.659c-0.182-0.659,1.463-1.369,0.088-2.576c4.186,3.285,8.271-2.738,11.928,0.054
		c1.998-1.053,4.406-2.281,6.299-2.955c-0.002,0.433,0.195,0.66-0.209,0.634c3.023,0.421,0.471-4.29,3.896-3.837
		c2.195,1.666-1.244,1.643-0.037,2.158c1.756,4.216,3.459-1.691,6.262,0.196l-0.41,0.41c2.008,0.987,3.258-2.832,5.877-3.316
		c0,0,0,0.422,0.193,0.659c1.029-2.753,4.057-4.511,6.275-5.909c-0.209,1.936-0.811,1.25,0.199,2.824
		c1.006-0.593-1.201-2.663,0.807-3.841c1,0.701,2.822,1.01,3.621,2.779l-2.012,0.757c1.811,2.04,2.619-0.933,3.828-0.865
		l0.197,1.082c3.023-1.346,2.221-3.973,5.637-4.879l-0.602-0.673c0.992-3.188,2.012,0.956,3.215-1.565l1.408,2.447
		c1.008-1.029,3.41-3.917,5.426-5.124c-0.602,2.355-2.811,4.173-4.008,5.844c1.207-0.372,4.012-1.52,4.221-3.023
		c-0.408,0.415-0.803,1.254-1.414,1.006c0.793-2.546,2.418-4.18,4.852-4.997c0.68,2.599,2.42,2.353,4.451,1.712
		c2.039-0.631,4.271-1.726,6.291-0.516c1.889-2.225,4.229-3.67,6.729-5.575c2.623-2.104,5.143-4.764,6.328-8.463
		c-2.43,0.51-2.24-0.06-2.014-0.771c0.229-0.743,0.445-1.764-1.672-2.129c0.119-1.511,0.268-2.045,0.559-2.142
		c1.098-1.367,2.027-3.012,2.678-5.054c0.521-0.76,0.824-0.356,1.098,0.26c0.244,0.61,0.439,1.413,0.914,1.308
		c0.051-1.151,0.121-1.862,0.246-2.34c0.137-0.479,0.352-0.721,0.6-0.922c0.49-0.411,1.16-0.616,1.26-2.452
		c-0.652,0.554-1.27,0.248-1.803-0.47c-0.555-0.722-0.994-1.883-1.412-3.243c0.053,1.461-0.102,2.886-0.357,4.213
		c-0.592-0.739-0.994-1.352-1.277-1.905c-0.311-0.543-0.477-1.04-0.564-1.528c-0.207-0.953-0.141-1.856-0.223-2.845
		c-0.088-0.705-0.283-1.448-0.834-2.175c-0.525-0.71-1.496-1.471-2.848-1.909c0.764,0.024,1.654,0.184,2.502,0.363
		c-1.717-1.101-3.949-2.662-6.145-3.48c-2.186-0.845-4.072-0.923-5.732,0.211c-0.117-0.594-0.068-1.855,0.889-1.765
		c-1.068-0.622-2.328-1.006-3.639-1.279c-0.66-0.132-1.322-0.259-2-0.333c-0.682-0.059-1.359-0.117-2.027-0.175
		c-1.332-0.12-2.602-0.269-3.713-0.594c-0.557-0.163-1.074-0.37-1.541-0.642c-0.475-0.25-0.9-0.551-1.266-0.944l0.682-0.883
		c-0.969,0.015-2.107,1.402-2.867,0.063c0.184-0.396,0.66-0.889,0.277-1.072c-0.576,0.199-2.824,1.044-3.791,0.106l1.303-0.829
		c-1.035-0.704-2.063-0.928-3.053-0.96c-0.99-0.028-1.953,0.166-2.896,0.433c-0.945,0.266-1.873,0.604-2.807,0.861
		c-0.936,0.267-1.885,0.507-2.867,0.486c0.658-3.003-2.783-4.736-4.533-5.556l0.139-0.421c-2.688-0.604-5.102-0.329-7.449,0.168
		c-2.352,0.58-4.641,1.369-7.162,1.7c-1.375-1.814-3.973-2.331-6.814-2.713c-2.844-0.348-5.912-0.409-8.375-1.459
		c0.746,0.591-0.189,2.385-1.064,2.693c-1.146-0.64-3.211,2.099-2.992-0.724l0.41,0.058c-0.832-2.771-3.246-2.099-5.098-2.145
		l-0.287,3.7c-2.414-2.641-5.613-2.165-8.457-1.477c-2.859,0.662-5.422,1.368-6.834-0.955c-1.115,0.981-2.545,1.043-3.641,2.022
		l-0.043-1.982c-3.238-0.358-4.838-0.467-8.756,0.244l0.711-1.465c-2.246,0.006-2.41,5.895-4.434,6.155l-0.826-2.906
		c-3.855,0.318-7.943-1.949-11.523,1.025c0.027-0.438,0.07-1.3,0.682-1.469c-1.811,0.07-7.143-1.425-6.154,2.568
		c-0.26-2.634-3.975,0.068-5.948,1.412l0.156-1.972c-1.536,2.634-1.532,3.317-3.91,4.215c-0.601-0.204-0.644-1.513,0.168-1.081
		c-2.017-0.854-1.338,1.968-3.766,1.148l0.759-1.321c-1.998,0.033-1.781,0.685-2.738,2.231c-1.173,0.895-3.804-0.143-4.267-1.871
		c-0.166,1.091-1.112,2.635-2.33,2.246c-0.223-0.646,0.162-1.102,0.356-1.324c-3.456-0.984-4.702,2.757-7.182,1.082
		c-0.116-0.638-0.299-0.941-0.51-1.114c2.646-0.229,4.781-0.332,4.597-0.173c-0.18-1.789-2.353-1.886-0.903-4.529
		c-1.587,1.52-4.202,4.748-6.374,4.154c-0.12-0.161-0.237-0.32-0.345-0.587l0.193-0.225c-0.501-0.124-0.913,0.091-1.284,0.438
		c-0.698-0.218-1.146-0.388-1.788-0.342c-0.418-1.445-2.549-0.529-3.626-0.461c0.324,1.943-1.106,1.808,0.395,3.252
		c-0.186-0.114,0.173-0.261,0.87-0.426c0.153-0.076,0.338-0.127,0.429-0.254c-0.015,0.052-0.032,0.114-0.052,0.18
		c0.691-0.135,1.598-0.282,2.629-0.43c-0.727,1.088-1.503,2.021-2.807,1.07c-0.396,1.316-0.836,2.689-1.099,3.337
		c-1.776-2.541-4.773-3.653-5.386-5.281c-3.111,1.479-7.588,1.797-9.073,5.733c-0.848,0.604-1.215-0.895-1.647-1.419
		c0.477-0.443,1.118-0.479,1.327-1.047c-1.704,1.18-5.409,1.228-5.429,3.843c-2.502-0.769,0.917-2.561-2.198-1.618l0.3-0.85
		c-3.488-1.541-5.778,0.576-8.117,2.549c-1.172,0.985-2.363,1.933-3.756,2.398c-1.388,0.496-2.976,0.506-4.979-0.42
		c0.547,0.216,0.816,0.312,1.004,0.714c-2.08-0.136-4.121,0.09-6.107,0.629c-1.989,0.524-3.945,1.239-5.904,1.91
		c-1.962,0.653-3.896,1.4-5.903,1.799c-2.002,0.422-4.069,0.532-6.236,0.271c-2.388-0.035-2.139,1.615-3.068,3.221l-1.113-1.866
		l-1.492,3.023c-1.286,1.396-3.052,0.649-4.896,0.136c-1.83-0.497-3.768-0.83-5.147,1.541l1.014,1.129
		c-1.512,0.311-4.155,2.558-4.53,0.945c-0.049,0.299,0.092,1.557-0.738,1.089l-0.461-1.007c-0.919,1.056-1.844,2.066-2.718,3.176
		c-2.962,0.449-1.315-4.222-5.322-2.665c-1.298,1.048-2.777,4.772-1.913,5.195c0.602-0.21,1.768-0.037,2.276,0.95l-1.052,1.103
		c1.142,3.06,1.651,6.487,5.652,7.19l1.308-2.768L20.22,44.9l-1.745,0.89c1.623,0.904,1.718-0.58,2.081-1.733
		c0.507,0.694,1.039,1.101,1.581,1.2c0.279-1.265,0.568-2.538,0.89-3.769c0.747,1.076,0.025,2.714,1.716,2.799
		c0.446-1.733-2.057-2.259-0.756-3.799c1.61,0.954,1.749,2.197,2.5,0.536c0.482,0.712,0.421,1.312,0.078,1.846
		c0.708-1.365,2.701-1.535,2.644-3.377c1.713,1.241,3.569-1.791,4.504,1.13c0.089-0.814,1.124-2.966,2.104-3.449
		c-0.647,4.145,3.868-1.146,4.636,2.827c0.351-3.582,4.522-2.975,6.46-5.486c-0.065,0.291-0.189,0.878-0.452,0.787
		c1.473-0.14,2.162,0.723,3.226,1.074c-0.573-2.687,1.447-3.896,2.198-5.859c2.412,2.078-0.213,3.399,0.997,5.703
		c-0.672-2.121,2.398-2.968,1.349-4.598c1.737,1.244,1.347,0.485,2.588,2.518c-0.608-3.382,1.089-0.861,1.686-3.175
		c2.325,1.173,1.248,3.002,3.11,1.474C62.852,33.218,61.272,34.854,61.272,34.854z M111.571,20.566
		c0.002,0.019,0.004,0.032,0.004,0.039c-0.445,0.098-0.824,0.18-1.067,0.233C110.729,20.782,111.036,20.703,111.571,20.566z
		 M115.97,20.062c-0.545-0.022-1.215,0.032-1.921,0.117c-0.227-0.661-0.134-1.373,0.314-1.383
		C114.17,19.272,115.252,19.557,115.97,20.062z M105.07,7.547c0.678-0.356,0.96,0,1.104,0.39c-0.331,0.072-0.715,0.183-1.213,0.375
		c-0.012,0.075-0.044,0.163-0.056,0.248C104.928,8.179,104.964,7.821,105.07,7.547z"/>
	<path fill="#F3B555" d="M104.1,10.255c-0.098,0.054-0.144,0.142-0.274,0.177c0.165,0.151,0.32,0.286,0.474,0.39
		c0.062-0.22,0.123-0.443,0.178-0.641C104.35,10.207,104.218,10.232,104.1,10.255z"/>
	<path fill="#F3B555" d="M58.052,95.998l0.093,0.049c-0.075-0.082-0.145-0.161-0.187-0.288
		C58.018,95.856,58.015,95.917,58.052,95.998z"/>
	<polygon fill="#F3B555" points="177.193,18.99 177.166,18.495 176.803,18.949 	"/>
	<path fill="#F3B555" d="M34.836,86.414c0.001-0.178-0.036-0.373-0.161-0.563C34.654,85.978,34.732,86.185,34.836,86.414z"/>
	<path fill="#F3B555" d="M26.197,82.664c-0.201-0.401-0.382-0.793-0.507-1.182C25.801,82.064,26.014,82.417,26.197,82.664z"/>
	<path fill="#F3B555" d="M23.415,78.185c-0.345,0.076-0.592,0.16-0.817,0.238c-0.004,0.007-0.002,0.01-0.009,0.018L23.415,78.185z"
		/>
	<path fill="#F3B555" d="M142.432,77.864c0.104-0.033,0.203-0.08,0.285-0.152C143.35,77.188,142.898,77.438,142.432,77.864z"/>
	<path fill="#F3B555" d="M105.543,88.442c0.364-0.404,0.722-0.801,1.117-1.071C105.968,87.302,105.441,87.327,105.543,88.442z"/>
	<path fill="#F3B555" d="M183.117,65.423c0,0.013,0.006,0.016,0.006,0.034c0.086-0.031,0.166-0.046,0.252-0.07L183.117,65.423z"/>
	<path fill="#F3B555" d="M108.427,87.191c-0.722-0.307-1.274-0.156-1.767,0.18C107.228,87.434,107.904,87.555,108.427,87.191z"/>
	<path fill="#F3B555" d="M8.906,44.829l-0.179-0.39c-0.101,0.082-0.202,0.124-0.286,0.146L8.906,44.829z"/>
	<path fill="#F3B555" d="M8.441,44.584l-0.466-0.236C8.103,44.52,8.226,44.659,8.441,44.584z"/>
	<path fill="#F3B555" d="M6.994,43.861l0.981,0.487C7.777,44.074,7.576,43.701,6.994,43.861z"/>
	<path fill="#F3B555" d="M14.25,55.049l0.69-0.226C14.776,54.832,14.552,54.9,14.25,55.049z"/>
	<path fill="#F3B555" d="M16.046,58.041c-0.234-0.803,0.419-2.573-0.554-3.392l-0.551,0.175
		C16.161,54.809,14.624,57.89,16.046,58.041z"/>
	<path fill="#F3B555" d="M13.037,74.162c-0.069-0.9-0.175-1.795-0.285-2.694c-0.567,0.691-1.344,1.577-1.898,0.521
		C9.749,75.809,12.271,70.783,13.037,74.162z"/>
	<path fill="#F3B555" d="M15.073,83.283c-1.17-1.557-0.985,0.505-1.398,0.637c0.617,0.423,1.007,0.659,1.221,0.595
		C15.105,84.449,15.12,84.075,15.073,83.283z"/>
	<path fill="#F3B555" d="M77.514,97.822l-0.112,1.791C78.559,99.35,77.397,98.918,77.514,97.822z"/>
	<polygon fill="#F3B555" points="88.891,88.076 87.738,87.015 87.312,88.677 	"/>
	<polygon fill="#F3B555" points="96.766,100.273 96.28,100.571 98.164,99.759 	"/>
	<path fill="#F3B555" d="M199.393,78.727l-0.955-2.02C197.807,77.305,198.348,79.729,199.393,78.727z"/>
	<path fill="#F3B555" d="M241.525,63.205c0.805,0.897,2.219,1.183,2.621-0.088C243.145,63.284,241.926,62.776,241.525,63.205z"/>
	<polygon fill="#F3B555" points="188.537,0.986 189.453,0.236 187.719,0.873 	"/>
</g>
</svg>
