<?xml version="1.0" encoding="utf-8"?>
<!-- Generator: Adobe Illustrator 16.0.0, SVG Export Plug-In . SVG Version: 6.00 Build 0)  -->
<!DOCTYPE svg PUBLIC "-//W3C//DTD SVG 1.1//EN" "http://www.w3.org/Graphics/SVG/1.1/DTD/svg11.dtd">
<svg version="1.1" id="圖層_1" xmlns="http://www.w3.org/2000/svg" xmlns:xlink="http://www.w3.org/1999/xlink" x="0px" y="0px"
	 width="270.04px" height="125.137px" viewBox="0 0 270.04 125.137" enable-background="new 0 0 270.04 125.137"
	 xml:space="preserve">
<g>
	<g>
		<g>
			<g>
				<g>
					<g>
						<path fill="#594A42" d="M29.313,90.955c-1.845,0.888-3.997,1.708-5.911,2.357c2.221,0.923,4.886,1.537,7.96,1.811
							c-0.581,0.581-1.367,1.776-1.708,2.563c-7.106-0.923-11.821-3.554-14.417-8.2H11.65v4.783l5.876-1.195
							c-0.034,0.717-0.034,1.879,0,2.46c-7.619,1.742-8.678,2.016-9.327,2.425c-0.137-0.751-0.615-2.016-0.957-2.562
							c0.547-0.273,1.435-0.889,1.435-2.289v-3.622H5.91c-0.444,2.904-1.4,5.979-3.246,8.336C2.118,97.343,0.751,96.524,0,96.215
							c2.904-3.621,3.28-8.609,3.28-12.128v-4.373h26.682v2.357H6.32v1.47h22.173v2.084H6.286c0,0.512-0.034,0.99-0.103,1.537
							h24.632v2.322H27.57L29.313,90.955z M28.322,78.348H3.587v-9.737h6.97V66.39h3.109v2.221h4.236V66.39h3.143v2.221h7.277
							V78.348z M6.491,72.506h4.065v-1.812H6.491V72.506z M6.491,76.264h4.065v-1.811H6.491V76.264z M13.666,70.695v1.812h4.236
							v-1.812H13.666z M13.666,74.454v1.811h4.236v-1.811H13.666z M18.278,89.485c0.717,0.957,1.674,1.846,2.767,2.529
							c1.708-0.615,3.827-1.675,5.364-2.529H18.278z M25.282,70.695h-4.237v1.812h4.237V70.695z M25.282,74.454h-4.237v1.811h4.237
							V74.454z"/>
						<path fill="#594A42" d="M46.903,92.355c-2.392,1.845-6.662,3.622-10.181,4.407c-0.444-0.684-1.264-1.742-1.913-2.322
							c3.451-0.514,7.584-1.777,9.771-3.178L46.903,92.355z M64.771,87.163v2.664H51.311v7.927h-3.109v-7.927H34.946v-2.664h13.256
							v-2.051H38.123v-2.391h10.079V80.67H36.449v-2.494h6.867c-0.341-0.854-0.922-2.049-1.503-2.938l1.981-0.479h-8.712v-2.527
							h5.09c-0.512-1.333-1.537-3.212-2.494-4.613l2.768-0.956c1.059,1.47,2.255,3.554,2.733,4.886l-1.811,0.684h3.827v-5.877h2.972
							v5.877h3.382v-5.877h3.006v5.877h3.724l-1.333-0.445c0.82-1.365,1.879-3.519,2.392-5.056l3.28,0.854
							c-0.922,1.674-1.948,3.382-2.836,4.646h4.886v2.527h-8.951l2.665,0.684c-0.752,1.025-1.538,1.947-2.221,2.732h7.243v2.494
							H51.311v2.051h10.488v2.391H51.311v2.051H64.771z M44.922,74.76c0.683,0.957,1.333,2.221,1.605,3.007l-1.537,0.409h9.327
							l-1.23-0.375c0.649-0.854,1.435-2.152,1.914-3.041H44.922z M55.239,91.057c3.007,1.094,7.175,2.732,9.464,3.826l-2.118,1.845
							c-2.118-1.06-6.287-2.87-9.396-4.065L55.239,91.057z"/>
						<path fill="#594A42" d="M99.615,94.167v2.596H74.572v-2.596H85.3v-2.803h-7.584v-2.493H85.3v-2.494h-6.423
							c-0.991,1.674-2.152,3.212-3.382,4.339c-0.239-0.581-1.025-2.152-1.537-2.801c-0.308,3.518-1.196,7.413-3.553,10.18
							c-0.479-0.58-1.811-1.707-2.426-2.016c2.733-3.279,3.041-7.892,3.041-11.342v-6.628h4.373c-0.444-0.479-0.991-1.06-1.4-1.366
							c2.596-0.445,5.568-1.094,8.37-1.777c-2.46-0.684-4.92-1.298-7.175-1.776l1.743-1.333h-5.637v-2.493h12.163
							c-0.479-0.786-1.025-1.571-1.572-2.221l2.221-1.06c0.854,0.957,1.845,2.255,2.392,3.28h11.582v2.493h-5.09l1.503,0.957
							c-1.401,0.684-3.041,1.367-4.817,2.016c2.289,0.649,4.407,1.332,6.082,1.914l-1.572,1.366h4.954v2.597H74.094v4.064
							c0,0.991-0.034,2.051-0.136,3.145c1.811-1.709,3.416-4.169,4.339-6.766l2.733,0.786c-0.239,0.649-0.512,1.265-0.82,1.913h5.09
							v-2.527h3.143v2.527h8.849v2.528h-8.849v2.494h7.96v2.493h-7.96v2.803H99.615z M92.679,78.109
							c-1.811-0.649-4.134-1.366-6.594-2.118c-2.801,0.854-5.671,1.537-8.336,2.118H92.679z M78.467,71.856
							c2.494,0.582,5.193,1.265,7.79,1.982c2.016-0.615,3.827-1.264,5.261-1.982H78.467z"/>
						<path fill="#594A42" d="M103.881,82.79h12.368v14.725h-3.143v-1.537h-6.218v1.776h-3.007V82.79z M106.888,85.83v7.106h6.218
							V85.83H106.888z M127.796,79.475h-19.098v-11.65h19.098V79.475z M124.55,70.866h-12.812v5.568h12.812V70.866z M132.58,82.79
							v14.793h-3.178v-1.605h-6.765v1.776h-3.041V82.79H132.58z M129.402,92.936V85.83h-6.765v7.106H129.402z"/>
						<path fill="#2F6156" d="M167.935,94.167v2.596h-25.043v-2.596h10.729v-2.803h-7.585v-2.493h7.585v-2.494h-6.424
							c-0.99,1.674-2.152,3.212-3.382,4.339c-0.239-0.581-1.024-2.152-1.537-2.801c-0.308,3.518-1.196,7.413-3.554,10.18
							c-0.479-0.58-1.811-1.707-2.426-2.016c2.733-3.279,3.041-7.892,3.041-11.342v-6.628h4.373c-0.443-0.479-0.99-1.06-1.4-1.366
							c2.596-0.445,5.568-1.094,8.37-1.777c-2.46-0.684-4.92-1.298-7.175-1.776l1.742-1.333h-5.637v-2.493h12.162
							c-0.479-0.786-1.024-1.571-1.571-2.221l2.221-1.06c0.854,0.957,1.845,2.255,2.392,3.28h11.582v2.493h-5.091l1.503,0.957
							c-1.4,0.684-3.04,1.367-4.816,2.016c2.289,0.649,4.406,1.332,6.081,1.914l-1.571,1.366h4.953v2.597h-25.043v4.064
							c0,0.991-0.033,2.051-0.136,3.145c1.811-1.709,3.416-4.169,4.339-6.766l2.732,0.786c-0.238,0.649-0.512,1.265-0.819,1.913
							h5.091v-2.527h3.143v2.527h8.849v2.528h-8.849v2.494h7.961v2.493h-7.961v2.803H167.935z M161,78.109
							c-1.811-0.649-4.134-1.366-6.594-2.118c-2.801,0.854-5.671,1.537-8.336,2.118H161z M146.787,71.856
							c2.494,0.582,5.193,1.265,7.79,1.982c2.016-0.615,3.827-1.264,5.261-1.982H146.787z"/>
						<path fill="#2F6156" d="M183.373,93.926c-4.201,0.957-8.609,1.982-11.957,2.699l-0.717-2.869
							c1.469-0.24,3.348-0.547,5.432-0.923v-9.327h-4.988v-2.699h4.988v-3.211h-2.904v-1.094c-0.443,0.445-0.922,0.854-1.366,1.265
							c-0.205-0.718-0.991-2.426-1.503-3.212c2.527-1.98,5.021-5.057,6.457-8.268l2.768,0.957c-0.205,0.375-0.377,0.785-0.615,1.195
							c1.947,1.641,4.201,3.588,5.432,4.817l-1.776,2.426c-1.128-1.265-3.177-3.144-5.022-4.817
							c-0.854,1.469-1.879,2.802-2.904,4.031h7.004v2.699h-2.768v3.211h4.101v2.699h-4.101v8.849l4.305-0.751L183.373,93.926z
							 M173.568,85.043c0.547,1.947,1.127,4.441,1.4,6.048l-2.289,0.649c-0.205-1.674-0.785-4.203-1.298-6.15L173.568,85.043z
							 M179.65,90.715c0.512-1.641,1.195-4.236,1.502-6.014l2.461,0.65c-0.649,2.084-1.401,4.441-2.016,5.943L179.65,90.715z
							 M200.728,94.098c0,1.57-0.341,2.494-1.434,2.938c-1.06,0.513-2.768,0.547-5.33,0.547c-0.103-0.82-0.513-2.152-0.889-2.973
							c1.742,0.103,3.451,0.103,3.963,0.068c0.513-0.034,0.684-0.171,0.684-0.648v-5.228c-3.211,0.854-6.423,1.64-9.02,2.289
							l-0.922-2.426c-0.172,3.245-0.684,6.73-2.188,9.259c-0.512-0.547-1.775-1.436-2.494-1.777
							c1.675-2.938,1.812-7.072,1.812-10.352v-9.84h6.354v-9.531h3.041v9.531h6.422V94.098z M187.131,75.034
							c-0.444-1.708-1.776-4.407-3.144-6.354l2.597-1.229c1.366,1.913,2.802,4.475,3.313,6.184L187.131,75.034z M187.849,85.795
							c0,0.82,0,1.674-0.068,2.597c2.596-0.513,6.252-1.333,9.941-2.187v-7.482h-9.873V85.795z M189.489,80.67
							c2.493,0.514,5.773,1.572,7.481,2.461l-1.332,2.254c-1.641-0.99-4.852-2.152-7.447-2.732L189.489,80.67z M201.788,68.406
							c-1.093,2.255-2.392,4.715-3.519,6.39l-2.631-1.06c1.094-1.743,2.494-4.476,3.211-6.458L201.788,68.406z"/>
						<path fill="#2F6156" d="M234.376,89.622c-1.025,1.947-2.563,3.451-4.407,4.646c1.811,0.547,3.826,0.923,5.944,1.196
							c-0.581,0.546-1.195,1.537-1.537,2.255c-2.665-0.41-5.091-1.059-7.277-1.947c-2.323,0.956-4.92,1.605-7.652,2.016
							c-0.205-0.649-0.786-1.641-1.23-2.187c2.118-0.239,4.168-0.649,6.014-1.229c-0.957-0.547-1.812-1.162-2.665-1.846
							c-0.786,0.581-1.64,1.059-2.426,1.504c-0.444-0.479-1.435-1.333-1.981-1.742c0.922-0.445,1.845-0.889,2.699-1.47
							c-0.479-0.581-0.957-1.161-1.367-1.811l2.221-0.649c0.273,0.41,0.581,0.82,0.957,1.195c0.717-0.58,1.332-1.195,1.879-1.811
							h-3.075v-5.773c-0.41,0.444-0.819,0.854-1.195,1.195c-0.137-0.273-0.41-0.785-0.718-1.298
							c-0.649,1.06-1.435,2.084-2.289,3.075v12.812h-2.801V87.709c-0.582,0.512-1.128,0.922-1.709,1.332
							c-0.17-0.547-0.82-1.777-1.264-2.46c-0.444,3.963-1.367,7.994-3.075,11.138c-0.614-0.547-2.05-1.264-2.87-1.572
							c2.973-5.329,3.246-13.016,3.246-18.482V67.551H234v7.414h-23.026v2.699c0,2.494-0.104,5.5-0.444,8.609
							c2.255-1.436,4.544-3.621,5.91-5.91l1.537,0.547l-0.205-0.24c1.743-1.4,3.417-3.484,4.373-5.671l2.46,0.854
							c-0.171,0.342-0.375,0.752-0.58,1.127h10.933v2.084h-12.163c-0.308,0.479-0.649,0.889-0.956,1.332h11.923v7.346h-7.721
							l0.443,0.137c-0.272,0.376-0.58,0.718-0.888,1.094h6.594l0.513-0.068L234.376,89.622z M210.974,70.045v2.426h19.85v-2.426
							H210.974z M218.456,76.127c-1.332,2.016-3.519,4.1-5.433,5.397c-0.341-0.478-1.298-1.571-1.811-2.016
							c1.777-1.093,3.622-2.597,4.715-4.168L218.456,76.127z M223.068,83.268h7.994v-1.367h-7.994V83.268z M223.068,86.206h7.994
							v-1.469h-7.994V86.206z M223.41,91.125c1.059,0.785,2.323,1.503,3.724,2.118c1.333-0.649,2.494-1.47,3.383-2.392h-6.799
							L223.41,91.125z"/>
						<path fill="#2F6156" d="M249.644,80.807c-1.06,1.675-2.426,3.246-3.725,4.236c-0.342-0.478-0.854-1.161-1.366-1.639
							c-0.308,4.885-1.06,10.283-3.075,14.28c-0.58-0.479-1.913-1.229-2.665-1.47c2.665-5.295,2.904-12.846,2.904-18.209V67.86
							h28.186v2.869H244.69v7.312c0,1.469-0.034,3.075-0.103,4.782c1.435-0.99,2.904-2.562,3.997-4.168h-3.007v-2.289h4.066V74.35
							c-1.162,0.172-2.323,0.309-3.417,0.377c-0.137-0.514-0.444-1.333-0.718-1.88c2.938-0.272,6.355-0.819,8.166-1.537l2.05,1.605
							c-0.957,0.41-2.152,0.718-3.417,0.956v2.494h3.759v2.289h-3.759v0.035c0.889,0.546,3.109,2.084,3.69,2.563l-1.538,1.98
							c-0.443-0.512-1.298-1.332-2.152-2.016v3.895h-2.664V80.807z M258.799,94.2h11.138v2.665h-25.794V94.2h4.031v-6.799h3.041
							V94.2h4.51v-9.225h1.264c-0.444-0.614-1.195-1.502-1.742-1.912c1.674-0.923,3.382-2.631,4.612-4.408h-2.836v-2.289h4.339
							v-2.084c-1.264,0.172-2.597,0.309-3.792,0.377c-0.103-0.547-0.41-1.367-0.718-1.88c3.246-0.272,7.038-0.854,9.02-1.605
							l2.05,1.64c-1.127,0.444-2.46,0.786-3.895,1.025v2.527h5.262v2.289h-5.262v0.104l0.034-0.035
							c1.161,0.684,5.022,3.383,5.979,4.1l-1.469,2.119c-0.923-0.923-2.973-2.631-4.544-3.826v3.996h-2.665V80.09
							c-1.161,1.947-2.699,3.758-4.236,4.885h1.674v3.109h8.029v2.494h-8.029V94.2z"/>
					</g>
				</g>
			</g>
			<g>
				<g>
					<g>
						<g>
							<path fill="#4E4D4D" d="M14.835,122.797c1.021,0,2.375-0.07,3.043-0.211c0.053,0.422,0.159,1.179,0.247,1.549
								c-0.545,0.141-1.971,0.176-3.343,0.176H7.411c-2.868,0-4.205-0.897-4.205-3.73v-9.5H2.502v-1.443h14.761v1.443H4.807v9.623
								c0,1.496,0.598,2.094,2.445,2.094H14.835z M5.933,117.08h4.662v4.592H5.933V117.08z M7.27,120.51h1.918v-2.27H7.27V120.51z
								 M14.448,116.077h-6.65v-3.994h6.65V116.077z M12.83,113.192H9.311v1.76h3.519V113.192z M16.437,121.671h-4.803v-4.592h4.803
								V121.671z M15.011,118.241h-2.023v2.27h2.023V118.241z"/>
							<path fill="#4E4D4D" d="M57.975,120.633c-1.865,0.792-3.853,1.602-5.419,2.217l-0.51-1.671
								c0.633-0.194,1.408-0.476,2.27-0.792v-5.718h-1.988v-1.548h1.988v-3.994h1.531v3.994h1.742v1.548h-1.742v5.173l1.812-0.687
								L57.975,120.633z M66.718,123.519c0.422,0,0.528-0.194,0.581-1.267c0.299,0.229,0.862,0.457,1.25,0.545
								c-0.141,1.602-0.563,2.041-1.707,2.041h-2.27c-1.548,0-1.917-0.404-1.917-1.883v-5.049h-0.985
								c-0.246,3.201-0.897,5.735-3.677,7.178c-0.176-0.387-0.633-0.949-0.95-1.231c2.428-1.144,2.938-3.29,3.149-5.946h-1.936
								v-7.248h1.794c0.211-0.581,0.422-1.303,0.545-1.813l1.724,0.229c-0.211,0.545-0.457,1.108-0.704,1.584h5.894v7.248h-3.466
								v5.031c0,0.511,0.105,0.581,0.686,0.581H66.718z M59.699,113.631h2.445v-1.654h-2.445V113.631z M59.699,116.586h2.445v-1.688
								h-2.445V116.586z M66.015,111.977h-2.428v1.654h2.428V111.977z M66.015,114.898h-2.428v1.688h2.428V114.898z M67.44,122.34
								c-0.053-0.158-0.106-0.352-0.176-0.527c-2.234,0.264-2.621,0.334-2.85,0.439c-0.07-0.229-0.229-0.739-0.369-1.003
								c0.193-0.035,0.369-0.229,0.51-0.511c0.176-0.281,0.722-1.39,0.933-2.463l1.038,0.316c-0.299,0.898-0.739,1.813-1.144,2.534
								l1.548-0.142c-0.194-0.457-0.387-0.914-0.581-1.318l0.774-0.3c0.422,0.827,0.915,1.918,1.126,2.587L67.44,122.34z"/>
							<path fill="#4E4D4D" d="M107.623,123.149c-1.777,0.476-3.694,0.986-5.102,1.338l-0.299-1.461
								c0.633-0.123,1.425-0.299,2.305-0.51v-4.768h-2.111v-1.391h2.111v-1.671h-1.285v-0.827c-0.246,0.299-0.51,0.563-0.774,0.81
								c-0.07-0.335-0.352-1.249-0.528-1.653c1.126-1.004,2.305-2.568,3.008-4.223l1.056,0.563
								c-0.088,0.211-0.193,0.457-0.299,0.687c0.915,0.669,1.83,1.478,2.393,2.111l-0.598,1.372
								c-0.581-0.686-1.513-1.584-2.41-2.305c-0.422,0.756-0.915,1.46-1.39,2.094h3.483v1.372h-1.442v1.671h1.935v1.391h-1.935
								v4.504l1.794-0.422L107.623,123.149z M103.559,118.557c0.246,0.986,0.493,2.27,0.563,3.097l-0.985,0.353
								c-0.053-0.862-0.281-2.182-0.51-3.186L103.559,118.557z M105.934,121.46c0.193-0.845,0.475-2.164,0.598-3.079l1.073,0.369
								c-0.281,1.039-0.581,2.27-0.827,3.045L105.934,121.46z M111.141,117.221c-0.229,1.582-0.598,3.342-1.091,4.68
								c0.317,0.193,0.634,0.475,1.073,0.756c0.897,0.615,1.918,0.827,3.325,0.827c1.073,0,2.762-0.088,3.906-0.247
								c-0.141,0.423-0.352,1.162-0.369,1.549c-0.81,0.07-2.516,0.123-3.572,0.123c-1.513,0-2.586-0.299-3.554-0.949
								c-0.616-0.44-1.126-0.951-1.478-0.951c-0.316,0-0.792,1.145-1.073,2.129l-1.038-1.46c0.545-0.81,1.055-1.46,1.53-1.776
								c0.352-0.986,0.651-2.34,0.845-3.572h-1.619c0.387-1.072,0.827-2.568,1.214-3.94h-1.39v-1.319h3.131
								c-0.352,1.266-0.792,2.744-1.179,3.976h0.475l0.229-0.053L111.141,117.221z M109.171,112.242
								c-0.193-0.757-0.563-1.971-0.81-2.868l1.197-0.334c0.281,0.897,0.668,2.023,0.862,2.762L109.171,112.242z M113.745,111.713
								h-2.674v-1.284h2.674v-1.53h1.408v1.53h2.691v1.284h-2.691v1.162h2.357v5.629h-2.322v1.215h2.709v1.283h-2.709v1.953h-1.408
								v-1.953h-2.745v-1.283h2.745v-1.215h-2.322v-5.629h2.287V111.713z M112.654,115.145h1.249v-1.127h-1.249V115.145z
								 M112.654,117.344h1.249v-1.127h-1.249V117.344z M116.279,114.018h-1.267v1.127h1.267V114.018z M116.279,116.217h-1.267
								v1.127h1.267V116.217z"/>
							<path fill="#4E4D4D" d="M163.059,111.538c0,0.123,0,0.264-0.035,0.422c0.95,0.969,2.833,1.566,5.155,1.707
								c-0.316,0.334-0.722,0.915-0.88,1.338c-2.006-0.282-3.606-0.916-4.715-1.936c-0.634,0.809-2.023,1.565-5.05,1.988
								c-0.158-0.37-0.527-0.916-0.826-1.215h-4.469v-1.284h5.102v1.161c3.818-0.492,4.223-1.478,4.223-2.234v-0.229h-1.46
								c-0.388,0.633-0.827,1.196-1.284,1.637c-0.265-0.229-0.862-0.651-1.231-0.828c0.914-0.791,1.636-2.005,2.022-3.236
								l1.461,0.316c-0.105,0.299-0.212,0.58-0.335,0.88h5.489l0.229-0.07l1.126,0.369c-0.439,0.933-1.038,1.953-1.53,2.604
								l-1.284-0.458c0.229-0.316,0.492-0.774,0.739-1.214h-2.446V111.538z M162.918,122.2c1.813,0.598,3.766,1.337,4.962,1.918
								l-1.479,0.896c-1.073-0.58-2.92-1.372-4.732-1.988l1.021-0.826h-5.261l1.461,0.668c-1.426,0.862-3.625,1.707-5.384,2.199
								c-0.281-0.334-0.862-0.932-1.214-1.231c1.794-0.352,3.853-0.95,5.066-1.636h-2.832v-7.072h11.471v7.072H162.918z
								 M156.919,111.098h-4.311v-1.231h4.311V111.098z M156.11,117.167h8.252v-1.003h-8.252V117.167z M156.11,119.138h8.252v-0.985
								h-8.252V119.138z M156.11,121.162h8.252v-1.021h-8.252V121.162z"/>
							<path fill="#4E4D4D" d="M208.502,113.139h-6.315v-1.303h2.99c-0.264-0.65-0.756-1.653-1.196-2.375l1.179-0.65
								c0.44,0.738,0.968,1.672,1.214,2.305l-1.161,0.721h3.29V113.139z M202.89,115.461v-1.285h4.979v1.285H202.89z
								 M202.89,116.499h4.997v1.268h-4.997V116.499z M207.887,124.03h-3.712v0.791h-1.285v-5.946h4.997V124.03z M204.175,120.194
								v2.516h2.41v-2.516H204.175z M216.455,109.848c-0.123,6.51-0.141,13.055,0.687,13.301c0.105,0.035,0.229-1.107,0.281-2.287
								c0.247,0.405,0.651,1.004,0.897,1.25c-0.211,2.498-0.933,3.061-1.848,2.674c-1.706-0.598-1.671-6.492-1.653-13.389h-2.604
								v4.961h2.058v1.514h-2.058v7.178h-1.531v-7.178h-2.182v-1.514h2.182v-4.961h-1.97v-1.549H216.455z"/>
							<path fill="#4E4D4D" d="M253.964,120.44c-0.176,1.531-0.475,3.149-0.809,4.24c-0.282-0.158-0.88-0.369-1.196-0.457
								c0.387-1.039,0.633-2.587,0.756-4.012L253.964,120.44z M257.395,115.655c0.458,1.073,0.968,2.48,1.179,3.308l-1.179,0.475
								c-0.035-0.229-0.105-0.492-0.193-0.792c-3.712,0.581-4.24,0.722-4.609,0.916c-0.053-0.3-0.281-1.004-0.439-1.373
								c0.369-0.105,0.756-0.527,1.267-1.196c0.246-0.281,0.739-0.95,1.302-1.812c-1.636,0.193-1.988,0.281-2.234,0.387
								c-0.088-0.281-0.281-0.968-0.457-1.338c0.299-0.088,0.598-0.439,0.932-0.949c0.353-0.527,1.479-2.48,2.146-4.363l1.338,0.563
								c-0.704,1.566-1.602,3.221-2.499,4.521l1.584-0.123c0.439-0.791,0.897-1.636,1.267-2.445l1.231,0.774
								c-1.056,1.987-2.375,4.011-3.712,5.63l2.516-0.352c-0.158-0.476-0.334-0.986-0.511-1.426L257.395,115.655z M255.689,120.124
								c0.229,1.179,0.422,2.674,0.475,3.677l-1.179,0.3c-0.035-1.004-0.211-2.534-0.404-3.713L255.689,120.124z M257.501,119.667
								c0.404,1.072,0.826,2.428,1.02,3.324l-1.108,0.405c-0.158-0.915-0.58-2.306-0.949-3.378L257.501,119.667z M267.776,123.325
								c0,0.793-0.159,1.197-0.616,1.443c-0.475,0.246-1.231,0.281-2.305,0.264c-0.053-0.369-0.246-1.02-0.439-1.407
								c0.686,0.035,1.39,0.035,1.601,0.035c0.229-0.018,0.299-0.088,0.299-0.335v-12.191h-6.175v13.934h-1.442v-15.359h9.078
								V123.325z M264.732,120.581c0.281,0,0.774-0.018,1.021-0.088c0.018,0.352,0.053,0.827,0.105,1.161
								c-0.246,0.071-0.687,0.089-1.108,0.089h-1.9c-1.284,0-1.583-0.493-1.583-1.742v-1.426h-0.581v-1.283h2.111
								c-0.141-0.405-0.369-0.934-0.58-1.355l0.914-0.299h-2.586v-1.267h3.097c0.246-0.792,0.563-1.971,0.704-2.78l1.161,0.316
								c-0.247,0.811-0.546,1.742-0.792,2.464h1.214v1.267h-2.551c0.264,0.457,0.527,1.038,0.668,1.39l-0.65,0.265h2.375v1.283
								h-3.185v1.443c0,0.404,0.07,0.563,0.387,0.563H264.732z M261.987,111.555c0.388,0.757,0.739,1.76,0.845,2.41l-1.021,0.352
								c-0.088-0.65-0.422-1.688-0.791-2.445L261.987,111.555z"/>
						</g>
					</g>
				</g>
			</g>
		</g>
	</g>
	<g>
		<path fill="#594A42" d="M132.618,43.157c0.073,0.075,0.021,0.588,0.025,0.69c0.021,0.491,0.054,0.983,0.095,1.473
			c0.146,1.693,0.414,3.389,0.941,5.008c1.051,3.243,3.57,7.176,7.398,7.239c4.5,0.073,8.558-2.784,11.39-6.05
			c1.486-1.714,2.817-3.596,3.886-5.598c1.553-2.915,2.797-6.082,3.383-9.339c0.334-1.863,0.51-3.814,0.51-5.708
			C160.246,13.822,146.424,0,129.374,0c-17.05,0-30.87,13.822-30.87,30.872c0,1.894,0.174,3.845,0.511,5.708
			c0.583,3.257,1.829,6.424,3.382,9.339c1.068,2.002,2.398,3.884,3.885,5.598c2.832,3.267,6.89,6.124,11.389,6.05
			c3.828-0.063,6.347-3.996,7.4-7.239c0.526-1.619,0.794-3.315,0.94-5.008c0.041-0.49,0.074-0.982,0.096-1.473
			c0.005-0.102-0.048-0.615,0.024-0.69H132.618z"/>
		<polygon fill="#594A42" points="147.859,52.327 141.078,57.567 163.185,57.567 		"/>
		<polygon fill="#594A42" points="110.809,52.327 117.589,57.567 95.481,57.567 		"/>
		<path fill="#594A42" d="M123.517,47.61c0,0,8.85,0.469,14.549-6.275c5.697-6.745-11.399,0.33-11.87,0.426
			c-0.47,0.098-5.091,1.487-5.123,2.031c-0.032,0.545-0.262,1.882-0.262,1.882"/>
		<path fill="#95B840" d="M110.821,26.887c0,0,12.481,4.009,18.366,13.95C126.917,9.865,94.86,24.246,94.86,24.246
			c9.776-1.041,9.097,8.374,18.285,16.113c6.786,5.716,12.361,4.593,14.812,3.614C126.158,40.084,121.622,33.032,110.821,26.887z"/>
		<path fill="#95B840" d="M123.221,22.315c1.688,1.259,3.418,2.927,4.845,5.104c7.458-5.979,15.435-8.546,15.435-8.546
			c-6.152,3.5-10.759,7.223-14.198,10.735c1.506,3.135,2.365,7.121,1.902,12.152c2.766-0.776,5.889-2.33,9.236-5.149
			c12.097-10.191,11.201-22.585,24.073-21.215C164.514,15.397,134.357,1.87,123.221,22.315z"/>
	</g>
</g>
</svg>
