<svg height="472pt" viewBox="-3 0 471 472" width="472pt" xmlns="http://www.w3.org/2000/svg">
    <path fill="#649E6E" d="m192.5 256h32v16h-16v16h48v-16h-16v-16h32v-48h-80zm0 0"/>
    <path fill="#649E6E" d="m464.5 256v-48h-80v48h32v16h-16v16h48v-16h-16v-16zm0 0"/>
    <path fill="#649E6E" d="m48.5 400h32v16h-16v16h48v-16h-16v-16h32v-48h-80zm0 0"/>
    <path fill="#649E6E" d="m336.5 400h32v16h-16v16h48v-16h-16v-16h32v-48h-80zm0 0"/>
    <path fill="#649E6E" d="m192.5 48h32v16h-16v16h48v-16h-16v-16h32v-48h-80zm0 0"/>
    <path fill="#649E6E" d="m192.5 440h32v16h-16v16h48v-16h-16v-16h32v-48h-80zm0 0"/>
    <path fill="#649E6E" d="m240.5 176v-72c0-4.417969-3.582031-8-8-8s-8 3.582031-8 8v72c0 4.417969 3.582031 8 8 8s8-3.582031 8-8zm0 0"/>
    <path fill="#649E6E" d="m240.5 360v-48c0-4.417969-3.582031-8-8-8s-8 3.582031-8 8v48c0 4.417969 3.582031 8 8 8s8-3.582031 8-8zm0 0"/>
    <path fill="#649E6E" d="m304.5 224c-4.417969 0-8 3.582031-8 8s3.582031 8 8 8h48c4.417969 0 8-3.582031 8-8s-3.582031-8-8-8zm0 0"/>
    <path fill="#649E6E" d="m104.5 232c0 4.417969 3.582031 8 8 8h48c4.417969 0 8-3.582031 8-8s-3.582031-8-8-8h-48c-4.417969 0-8 3.582031-8 8zm0 0"/>
    <path fill="#649E6E" d="m288.5 184c2.121094 0 4.15625-.84375 5.65625-2.34375l32-32c3.03125-3.140625 2.988281-8.128906-.097656-11.214844-3.085938-3.085937-8.074219-3.128906-11.214844-.097656l-32 32c-2.285156 2.289062-2.972656 5.730469-1.734375 8.71875s4.15625 4.9375 7.390625 4.9375zm0 0"/>
    <path fill="#649E6E" d="m150.15625 138.34375c-3.140625-3.03125-8.128906-2.988281-11.214844.097656-3.085937 3.085938-3.128906 8.074219-.097656 11.214844l32 32c3.140625 3.03125 8.128906 2.988281 11.214844-.097656 3.085937-3.085938 3.128906-8.074219.097656-11.214844zm0 0"/>
    <path fill="#649E6E" d="m170.84375 282.34375-32 32c-2.078125 2.007812-2.914062 4.984375-2.179688 7.78125.730469 2.796875 2.914063 4.980469 5.710938 5.710938 2.796875.734374 5.773438-.101563 7.78125-2.179688l32-32c3.03125-3.140625 2.988281-8.128906-.097656-11.214844-3.085938-3.085937-8.074219-3.128906-11.214844-.097656zm0 0"/>
    <path fill="#649E6E" d="m294.15625 282.34375c-3.140625-3.03125-8.128906-2.988281-11.214844.097656-3.085937 3.085938-3.128906 8.074219-.097656 11.214844l32 32c3.140625 3.03125 8.128906 2.988281 11.214844-.097656 3.085937-3.085938 3.128906-8.074219.097656-11.214844zm0 0"/>
    <path fill="#649E6E" d="m80.5 128h-16v16h48v-16h-16v-16h32v-48h-80v48h32zm0 0"/>
    <path fill="#649E6E" d="m368.5 128h-16v16h48v-16h-16v-16h32v-48h-80v48h32zm0 0"/>
    <path fill="#649E6E" d="m16.5 272v16h48v-16h-16v-16h32v-48h-80v48h32v16zm0 0"/>
</svg>