<?xml version="1.0" encoding="utf-8"?>
<!-- Generator: Adobe Illustrator 16.0.0, SVG Export Plug-In . SVG Version: 6.00 Build 0)  -->
<!DOCTYPE svg PUBLIC "-//W3C//DTD SVG 1.1//EN" "http://www.w3.org/Graphics/SVG/1.1/DTD/svg11.dtd">
<svg version="1.1" id="圖層_1" xmlns="http://www.w3.org/2000/svg" xmlns:xlink="http://www.w3.org/1999/xlink" x="0px" y="0px"
	 width="1367px" height="390px" viewBox="0 0 1367 390" enable-background="new 0 0 1367 390" xml:space="preserve">
<g>
	<defs>
		<rect id="SVGID_1_" width="1367" height="390"/>
	</defs>
	<clipPath id="SVGID_2_">
		<use xlink:href="#SVGID_1_"  overflow="visible"/>
	</clipPath>
	<rect y="-9" clip-path="url(#SVGID_2_)" fill="#DEEFDD" width="1391" height="524"/>
	<polygon opacity="0.3" clip-path="url(#SVGID_2_)" fill="#D1E2CF" points="269,-101 -123,319 -139,-42 	"/>
	<polygon opacity="0.5" clip-path="url(#SVGID_2_)" fill="#D1E2CF" points="747,-67 299,502 873,502 1243,-87 	"/>
	<polygon opacity="0.5" clip-path="url(#SVGID_2_)" fill="#D1E2CF" points="1016,-95 568,474 1142,474 1512,-115 	"/>
	<g clip-path="url(#SVGID_2_)">
		<path fill="#040000" d="M948.947-27.511c-1.008,0.336-2.016,0.672-2.976,1.032v7.393c0,0.792-0.216,1.128-0.72,1.344
			c-0.504,0.192-1.345,0.216-2.856,0.216c-0.048-0.312-0.216-0.768-0.384-1.104c1.128,0.024,2.136,0.024,2.4,0
			c0.312,0,0.432-0.096,0.432-0.456v-7.008c-1.129,0.384-2.185,0.768-3.097,1.08l-0.36-1.152c0.937-0.288,2.137-0.696,3.457-1.128
			v-5.905h-3.289v-1.08h3.289v-4.968h1.128v4.968h2.904v1.08h-2.904v5.544l2.808-0.936L948.947-27.511z M963.157-19.302h-11.281
			v1.776h-1.104v-14.809c-0.695,1.248-1.463,2.352-2.231,3.288c-0.192-0.192-0.673-0.576-0.912-0.792
			c2.04-2.256,3.769-5.736,4.872-9.265l1.104,0.24c-0.433,1.368-0.937,2.712-1.536,3.984h10.656v1.08h-5.016v3.697h4.561v1.08
			h-4.561v3.72h4.561v1.08h-4.561v3.84h5.448V-19.302z M956.604-33.799h-4.729v3.697h4.729V-33.799z M956.604-29.022h-4.729v3.72
			h4.729V-29.022z M951.876-20.382h4.729v-3.84h-4.729V-20.382z M957.66-35.023c-0.336-0.984-1.104-2.52-1.824-3.648l1.009-0.384
			c0.744,1.128,1.536,2.616,1.849,3.577L957.66-35.023z"/>
		<path fill="#040000" d="M975.924-36.007c0.576,0.576,1.152,1.368,1.488,1.992h9.145v0.936h-6.864v1.68h5.809v3.552h-13.657v1.632
			h14.065v0.936h-14.065v1.656h14.545c0,0-0.023,0.36-0.048,0.528c-0.288,3.384-0.528,4.656-1.032,5.161
			c-0.336,0.288-0.647,0.408-1.199,0.432c-0.433,0.024-1.345,0.024-2.258-0.048c-0.023-0.288-0.119-0.672-0.287-0.96
			c0.937,0.096,1.824,0.096,2.16,0.096s0.528-0.024,0.696-0.192c0.336-0.336,0.552-1.392,0.792-4.08h-14.426v-5.161h-2.256
			c-0.023,3.145-0.384,7.321-2.184,10.321c-0.217-0.192-0.672-0.528-0.937-0.624c1.823-3.024,2.04-7.128,2.04-10.129v-5.736h8.762
			c-0.337-0.552-0.744-1.152-1.178-1.632L975.924-36.007z M971.195-36.631h-5.328v-0.984h5.328v-1.656h1.129v1.656h3.264v0.984
			h-3.264v1.68h-1.129V-36.631z M968.531-33.079v1.68h4.513v-1.68H968.531z M973.044-30.511h-4.513v1.776h4.513V-30.511z
			 M968.771-18.246c0.816-0.912,1.536-2.448,1.896-3.577l0.888,0.36c-0.433,1.176-1.08,2.76-1.896,3.72L968.771-18.246z
			 M974.027-21.63c0.385,1.128,0.672,2.616,0.697,3.528l-1.009,0.192c0-0.96-0.288-2.424-0.624-3.552L974.027-21.63z M978.66-33.079
			h-4.584v1.68h4.584V-33.079z M974.076-28.735h4.584v-1.776h-4.584V-28.735z M977.172-21.942c0.721,0.96,1.369,2.28,1.656,3.144
			l-0.961,0.384c-0.263-0.936-0.911-2.232-1.559-3.24L977.172-21.942z M986.846-37.615v0.984h-4.896v1.68h-1.129v-1.68h-3.672
			v-0.984h3.672v-1.656h1.129v1.656H986.846z M979.692-30.511v1.776h4.681v-1.776H979.692z M981.685-19.446
			c-0.36-0.696-1.248-1.704-1.992-2.4l0.792-0.456c0.816,0.672,1.68,1.656,2.064,2.304L981.685-19.446z"/>
		<path fill="#040000" d="M992.795-28.159c-0.527,2.616-1.535,5.953-2.64,7.681c-0.144-0.36-0.456-0.84-0.673-1.152
			c0.961-1.512,1.993-4.44,2.425-6.769L992.795-28.159z M994.836-30.103v12.553h-1.105v-12.553h-3.983v-1.104h3.983v-8.041h1.105
			v8.041h4.152v1.104H994.836z M991.476-32.287c-0.144-1.392-0.769-3.552-1.44-5.184l0.912-0.216
			c0.721,1.608,1.32,3.769,1.512,5.161L991.476-32.287z M996.061-28.423c0.455,0.744,2.135,4.177,2.496,5.041l-0.912,0.864
			c-0.385-1.224-1.801-4.512-2.257-5.424L996.061-28.423z M998.748-37.423c-0.6,1.728-1.368,3.96-2.016,5.256l-0.816-0.288
			c0.6-1.368,1.367-3.72,1.752-5.28L998.748-37.423z M1008.205-24.462v6.913h-1.104v-6.721l-7.944,1.464l-0.217-1.056l8.161-1.464
			v-13.921h1.104v13.705l3.023-0.528l0.193,1.032L1008.205-24.462z M1003.74-27.679c-0.863-0.864-2.592-2.064-4.032-2.808
			l0.552-0.816c1.465,0.72,3.193,1.848,4.057,2.688L1003.74-27.679z M1004.845-33.463c-0.769-0.912-2.425-2.208-3.841-3.048
			l0.648-0.816c1.416,0.84,3.024,2.04,3.793,2.976L1004.845-33.463z"/>
		<path fill="#040000" d="M1021.02-22.638c-2.544,0.864-5.208,1.776-7.225,2.472l-0.313-1.176c0.938-0.288,2.113-0.672,3.409-1.08
			v-7.033h-2.929v-1.08h2.929v-5.856h-3.169v-1.104h7.178v1.104h-2.904v5.856h2.615v1.08h-2.615v6.648
			c0.912-0.288,1.896-0.6,2.832-0.936L1021.02-22.638z M1035.518-19.422v1.08h-15.578v-1.08h7.705v-3.864h-5.761v-1.08h5.761v-3.289
			h-5.377v-10.441h12.049v10.441h-5.52v3.289h5.928v1.08h-5.928v3.864H1035.518z M1023.348-33.439h4.369v-3.625h-4.369V-33.439z
			 M1023.348-28.71h4.369v-3.696h-4.369V-28.71z M1033.213-37.063h-4.465v3.625h4.465V-37.063z M1033.213-32.407h-4.465v3.696h4.465
			V-32.407z"/>
	</g>
	<g clip-path="url(#SVGID_2_)">
		<g>
			<polygon fill="#097953" points="1189.076,50 1250.105,211.936 1265.885,161.235 1354.58,384.318 1004.59,394.766 			"/>
		</g>
		<g>
			<polygon fill="#649E6E" points="1127.348,110.073 1268.318,397.368 956.748,397.368 			"/>
		</g>
		<g>
			<polygon fill="#097953" points="868.916,353.275 983.514,161.424 1040.333,352.813 1106.471,215.277 1161.859,352.483 			"/>
		</g>
		<g>
			<g>
				<path fill="#097953" d="M870.87,352.906c33.396-55.91,66.792-111.819,100.188-167.729c4.803-8.041,9.605-16.082,14.408-24.123
					c-1.313,0.3-2.627,0.6-3.939,0.899c16.579,55.845,33.158,111.688,49.736,167.533c2.361,7.952,4.723,15.904,7.084,23.855
					c0.248,0.837,3.654-0.306,3.939-0.899c19.338-40.215,38.677-80.43,58.016-120.644c2.707-5.631,5.414-11.261,8.122-16.891
					c-1.313,0.3-2.628,0.6-3.94,0.899c16.186,40.091,32.369,80.183,48.554,120.274c2.279,5.644,4.558,11.288,6.836,16.932
					c1.095-0.428,2.19-0.854,3.287-1.282c-32.89,0.09-65.778,0.179-98.669,0.268c-52.696,0.143-105.393,0.285-158.09,0.428
					c-12.062,0.032-24.123,0.064-36.186,0.098c-0.789,0.002-4.467,1.508-2.602,1.503c32.89-0.089,65.779-0.178,98.668-0.267
					c52.697-0.143,105.395-0.285,158.09-0.428c12.063-0.033,24.125-0.065,36.186-0.098c0.426-0.001,3.59-0.531,3.287-1.282
					c-16.184-40.091-32.369-80.183-48.554-120.274c-2.278-5.644-4.558-11.288-6.835-16.932c-0.337-0.833-3.643,0.278-3.941,0.899
					c-19.338,40.215-38.676,80.43-58.015,120.645c-2.708,5.63-5.415,11.261-8.122,16.891c1.313-0.3,2.627-0.6,3.94-0.899
					c-16.579-55.845-33.158-111.688-49.737-167.533c-2.361-7.951-4.723-15.903-7.083-23.855c-0.26-0.877-3.614,0.354-3.94,0.899
					c-33.396,55.91-66.792,111.819-100.188,167.729c-4.803,8.041-9.606,16.082-14.408,24.123
					C866.754,353.993,870.301,353.86,870.87,352.906z"/>
			</g>
		</g>
		<g>
			<polygon fill="#649E6E" points="1391.146,350.532 1333.695,245.15 1272.281,360.289 			"/>
		</g>
		<g>
			<rect x="-8" y="344.56" fill="#2F6156" width="1483.615" height="218.44"/>
		</g>
	</g>
	<g clip-path="url(#SVGID_2_)">
		<g>
			<path fill="#2F6156" d="M237.227,305.539c-56.255,0-114.442,7.134-114.442,19.074c0,11.939,58.188,19.074,114.442,19.074
				c56.254,0,114.441-7.135,114.441-19.074C351.668,312.673,293.48,305.539,237.227,305.539z"/>
			<g>
				<g>
					<path fill="#004238" d="M405.643,45.372c-0.49-0.589-1.264-0.592-1.699-0.034c-0.254,0.326-0.379,0.817-0.51,1.2
						c-1.177,3.354-2.889,6.601-4.387,9.816c-3.027,6.496-6.192,12.935-9.623,19.229c-1.698,3.116-3.461,6.201-5.373,9.19
						c-0.947,1.48-1.818,3.196-3.213,4.295c-2.527,1.993-5.209,4.042-7.293,6.51c-0.49,0.581-1.347,1.463-0.63,2.149
						c0.906,0.867,2.71,0.193,3.668-0.129c5.685-1.911,11.13-4.745,15.176-9.237c7.338-8.146,11.058-19.416,13.075-30.007
						c0.676-3.549,1.274-7.234,1.193-10.86C406.014,46.865,406.078,45.896,405.643,45.372z"/>
					<path fill="#002228" d="M411.183,24.981c0.037-0.257-0.863-0.46-1.193-0.271c-0.005,0.002-0.011,0.003-0.016,0.006
						c-3.765,2.198-7.04,5.561-9.824,8.854c-7.134,8.438-11.6,18.872-13.629,29.683c-1.749,9.316-1.728,18.869-0.612,28.259
						c0.045,0.38,1.261,0.517,1.334,0.127c3.152-16.794,7.884-33.699,14.611-49.408c2.565-5.992,5.518-11.881,9.32-17.194
						c0.004-0.007-0.001-0.014,0.003-0.021C411.182,25.005,411.184,24.993,411.183,24.981z"/>
					<path fill="#2F6156" d="M377.152,47.265c-0.594-1.077-1.213-2.161-1.938-3.157c-0.184-0.251-1.219-0.44-1.317-0.026
						c-1.415,5.905-2.275,12.073-2.383,18.142c-0.069,3.882,0.164,7.92,1.655,11.55c1.968,4.789,3.298,9.781,4.339,14.847
						c0.617,3.005,1.163,6.038,1.545,9.083c-0.028,0.077,0.055,0.149,0.185,0.206c0.373,0.195,1.183,0.147,1.151-0.107
						C386.253,81.358,385.664,62.705,377.152,47.265z"/>
				</g>
				<path fill="#11745F" d="M410.872,96.186c-2.96-5.99-8.421-10.011-14.821-11.722c-4.585-1.225-9.373-1.387-14.086-1.054
					c-3.416-0.287-6.922-0.093-10.315,0.303c-6.324,0.739-12.862,2.503-18.003,6.407c-5.98,4.542-8.094,11.104-8.325,18.369
					c-0.169,5.287-0.347,10.574-0.513,15.861c-0.502,15.975-0.928,31.952-1.173,47.933c-0.255,16.702-0.394,33.427,0.177,50.125
					c0.21,6.126,0.49,12.268,1.176,18.362c0.359,3.197,0.551,7.216,2.215,10.078c3.074,5.29,10.889-8.383,11.965-10.068
					c8.457-13.245,15.596-27.39,22.388-41.542c8.257-17.203,15.877-34.77,22.228-52.771c2.743-7.774,5.257-15.65,7.195-23.667
					c1.191-4.919,2.646-10.316,2.592-15.416C413.53,103.541,412.572,99.625,410.872,96.186z"/>
			</g>
			<g>
				<g>
					<g>
						<g>
							<g>
								<path fill="#11745F" d="M136.701,117.151c2.271,6.815,4.543,13.631,6.814,20.446c0.139,0.415,1.431,0.261,1.341-0.01
									c-2.272-6.815-4.544-13.631-6.816-20.446C137.902,116.726,136.61,116.88,136.701,117.151L136.701,117.151z"/>
							</g>
						</g>
					</g>
					<path fill="#11745F" d="M176.785,134.622c-2.859-4.18-6.975-6.307-11.775-7.476c-5.816-1.416-13.305-1.743-17.909,2.766
						c-1.385,1.355-2.334,3.033-2.991,4.842c-8.807-1.975-21.666-2.009-27.208,6.254c-2.311,3.444-2.692,7.599-2.597,11.64
						c0.105,4.518,0.9,9.023,2.441,13.276c3.038,8.386,9.007,15.505,17.025,19.509c4.187,2.091,8.775,3.29,13.428,3.707
						c4.47,0.4,9.297,0.333,13.6-1.085c6.573-2.166,11.573-7.384,14.886-13.31c3.628-6.486,5.526-14.001,5.714-21.415
						C181.562,146.906,180.481,140.023,176.785,134.622z"/>
					<path fill="#002228" d="M145.308,135.295c-0.043-7.822-8.334-11.623-15-12.146c-0.16-0.013-0.39-0.012-0.388,0.189
						c0.014,1.804,1.045,3.674,2.11,5.054c2.981,3.861,7.813,5.807,12.407,6.984c0.167,0.069,0.356,0.11,0.519,0.115
						c0.142,0.015,0.223-0.006,0.256-0.05C145.268,135.409,145.309,135.365,145.308,135.295z"/>
				</g>
				<g>
					<g>
						<g>
							<g>
								<path fill="#11745F" d="M225.973,134.792c-5.01,5.148-10.021,10.297-15.031,15.446c-0.27,0.277,0.935,0.766,1.205,0.488
									c5.01-5.149,10.021-10.298,15.03-15.446C227.447,135.002,226.243,134.514,225.973,134.792L225.973,134.792z"/>
							</g>
						</g>
					</g>
					<path fill="#004238" d="M230.335,162.627c-1.731-5.701-5.271-11.638-11.52-12.984c-1.428-0.309-2.883-0.342-4.328-0.205
						c-2.239-8.615-7.86-19.325-17.353-21.079c-3.408-0.63-6.862,0.029-10.007,1.407c-4.565,1.999-8.802,4.894-12.368,8.369
						c-7.107,6.926-11.365,16.517-10.827,26.512c0.294,5.475,1.958,10.809,4.515,15.64c1.973,3.729,4.334,7.168,7.778,9.669
						c5.585,4.055,12.723,5.417,19.513,5.186c7.331-0.249,14.676-2.252,21.127-5.744c5.63-3.049,11.089-7.516,13.566-13.586
						C232.2,171.474,231.658,166.984,230.335,162.627z"/>
					<path fill="#11745F" d="M218.473,131.892c-0.141-0.335-0.942-0.343-1.209-0.202c-1.496,0.789-2.634,2.371-3.376,3.835
						c-2.232,4.401-1.706,9.634-0.607,14.27c0.063,0.267,0.847,0.371,1.167,0.218c0.014-0.005,0.029-0.01,0.042-0.016
						c1.75-0.919,3.229-2.567,4.196-4.258C221.173,141.392,220.327,136.303,218.473,131.892z"/>
				</g>
				<g>
					<g>
						<g>
							<g>
								<path fill="#11745F" d="M234.844,149.951c5.01,5.148,10.02,10.298,15.029,15.446c0.247,0.254,1.533,0.235,1.182-0.125
									c-5.01-5.149-10.021-10.298-15.03-15.446C235.777,149.572,234.491,149.591,234.844,149.951L234.844,149.951z"/>
							</g>
						</g>
					</g>
					<path fill="#11745F" d="M293.276,158.073c-5.074-7.424-14.009-14.833-23.185-16.081c-12.412-1.688-20.381,10.544-23.517,21.141
						c-11.093,0.131-18.321,12.578-17.441,23.101c1.215,14.529,18.938,22.479,31.403,24.383c7.249,1.107,15.043,0.619,21.747-2.547
						c8.238-3.892,13.138-12.02,15.656-20.529C300.919,177.479,299.193,166.73,293.276,158.073z"/>
					<path fill="#002228" d="M244.438,146.557c-0.147-0.078-0.772-0.303-0.886-0.034c-1.898,4.514-2.694,9.706-0.05,14.098
						c0.975,1.618,2.403,3.122,4.068,4.067c0.308,0.272,1.077,0.448,1.14,0.182C250.052,159.213,250.693,149.854,244.438,146.557z"
						/>
				</g>
			</g>
			<path fill="#107D5A" d="M301.106,396.857c-1.454-1.701-3.552-2.73-4.568-4.807c-1.739-3.823-5.353-7.135-8.425-9.892
				c-4.533-4.068-9.678-7.477-15.26-9.927c-6.971-3.06-14.56-4.562-22.17-4.405c-4.733,0.098-9.447,0.82-14.018,2.041
				c-2.525,0.675-5.01,1.495-7.445,2.44c-1.575,0.611-3.101,1.408-4.716,1.909c-2.497,0.776-5.032,0.731-7.605,0.902
				c-1.297,0.086-2.624,0.308-3.358,1.5c-0.887,1.442-0.881,3.118,0.328,4.326c0.686,0.686,1.55,1.168,2.356,1.69
				c1.171,0.756,2.198,1.673,3.113,2.724c1.343,1.542,2.008,3.04,2.648,4.913c0.182,0.532,0.483,1.021,0.782,1.493
				c1.17,1.857,2.629,3.548,4.144,5.13c4.946,5.163,11.05,9.304,17.711,11.91c9.059,3.545,18.669,3.673,28.232,2.608
				c5.253-0.584,11.364-1.461,15.794-4.627c0.422-0.301,0.797-0.637,1.172-0.991c0.917-0.865,1.826-1.575,2.986-2.098
				c0.778-0.351,1.677-0.69,2.541-0.722c0.802-0.029,1.523,0.291,2.311,0.316C300.935,403.401,303.351,399.483,301.106,396.857z"/>
			<path fill="#107D5A" d="M414.265,319.349c-2.306-0.552-4.723,0.44-6.993-0.366c-3.43-1.362-7.619-1.355-11.261-1.333
				c-5.187,0.031-10.384,0.731-15.374,2.153c-14.9,4.247-26.282,15.104-32.982,28.896c-0.801,1.647-1.452,3.358-2.228,5.015
				c-0.987,2.106-2.546,3.9-4.161,5.546c-1.268,1.289-2.773,2.608-2.086,4.57c0.463,1.319,1.382,2.253,2.773,2.481
				c1.978,0.325,3.94-0.544,5.91-0.589c2.362-0.054,4.282,0.528,6.328,1.603c1.34,0.704,3.031,0.896,4.505,1.095
				c6.627,0.893,13.551,0.228,19.944-1.681c9.848-2.939,17.4-9.171,24.081-16.798c3.729-4.257,8.114-9.493,9.18-15.263
				c0.092-0.5,0.121-0.989,0.147-1.494c0.157-2.979,1.138-5.215,3.572-6.932C418.234,324.409,417.325,320.08,414.265,319.349z"/>
			<g>
				<g>
					<path fill="#649E6E" d="M191.483,176.021c-1.28-10.663-0.998-21.711,0.072-32.366c1.979-19.709,7.563-40.613,21.528-55.343
						c12.921-13.628,31.926-18.021,49.473-17c11.297,0.657,21.849,6.594,29.831,14.35c19.436,18.884,26.268,48.054,29.337,73.981
						c0.62,5.234,1.064,10.486,1.398,15.746c0.062,0.957,3.963,0.23,3.883-1.04c-1.873-29.528-7.134-63.177-27.367-86.287
						c-8.438-9.637-20.097-17.088-33.039-18.451c-16.826-1.771-35.205,1.726-49.032,11.744
						c-17.352,12.571-25.464,33.727-28.741,54.204c-1.392,8.699-1.994,17.529-1.973,26.336c0.007,3.083,0.093,6.167,0.27,9.245
						c0.091,1.58-0.101,3.715,0.403,5.232c0.067,0.204,0.049,0.473,0.075,0.689C187.722,178.066,191.632,177.255,191.483,176.021
						L191.483,176.021z"/>
				</g>
			</g>
			<g>
				<path fill="#649E6E" d="M78.28,175.067c0,0,39.665,166.744,178.105,153.307C394.825,314.937,421.27,176.859,421.27,176.859
					L78.28,175.067z"/>
			</g>
		</g>
		<g>
			<g>
				<path fill="#FFFFFF" d="M157.03,218.663c-0.014,0.48-0.057,0.946-0.132,1.399c-0.076,0.454-0.223,0.889-0.436,1.305l0.02,0.019
					c0.137,0.215,0.201,0.426,0.188,0.633c-0.014,0.208-0.06,0.416-0.142,0.624c-0.084,0.208-0.178,0.416-0.285,0.624
					c-0.105,0.208-0.178,0.413-0.216,0.614c-0.24,0.102-0.378,0.236-0.416,0.407c-0.038,0.17-0.061,0.347-0.067,0.529
					s-0.041,0.359-0.103,0.529c-0.063,0.17-0.234,0.299-0.511,0.388l-0.113,0.038c0.213,0.214,0.311,0.399,0.292,0.558
					c-0.019,0.157-0.095,0.302-0.227,0.435c-0.133,0.132-0.293,0.258-0.481,0.378c-0.189,0.119-0.348,0.243-0.473,0.368
					c0.038,0.025,0.075,0.054,0.113,0.085c0.038,0.032,0.068,0.061,0.095,0.085c-0.14,0.126-0.287,0.249-0.445,0.369
					c-0.156,0.12-0.306,0.246-0.443,0.378c-0.14,0.133-0.258,0.277-0.359,0.435c-0.102,0.158-0.158,0.344-0.17,0.558
					c-0.05,0.064-0.117,0.107-0.2,0.133c-0.08,0.025-0.163,0.047-0.245,0.066c-0.081,0.019-0.156,0.045-0.228,0.075
					c-0.068,0.032-0.122,0.085-0.159,0.161l-0.019,0.019c0,0.089,0.012,0.196,0.037,0.321c-0.239,0.026-0.447,0.085-0.624,0.18
					s-0.337,0.212-0.481,0.35c-0.146,0.139-0.291,0.29-0.435,0.454c-0.146,0.164-0.301,0.314-0.464,0.454h-0.02v-0.038
					c-0.025-0.025-0.049-0.045-0.075-0.057c-0.026-0.013-0.05-0.032-0.075-0.057c-0.064-0.013-0.158,0.024-0.284,0.113
					c-0.126,0.088-0.208,0.157-0.245,0.208c-0.064,0.139-0.148,0.274-0.255,0.406c-0.108,0.133-0.196,0.265-0.265,0.396
					c-0.07,0.133-0.102,0.274-0.095,0.426c0.005,0.151,0.099,0.315,0.273,0.491c-0.088,0.177-0.11,0.366-0.065,0.567
					c0.043,0.202,0.095,0.395,0.151,0.576c0.057,0.184,0.096,0.354,0.122,0.511c0.025,0.157-0.026,0.286-0.151,0.388
					c0.012,0.101,0.029,0.191,0.048,0.274c0.02,0.081,0.084,0.147,0.198,0.198h0.189c-0.026,0.214-0.035,0.485-0.028,0.813
					c0.006,0.327,0.002,0.661-0.01,1.002c-0.012,0.34-0.038,0.661-0.076,0.963c-0.037,0.303-0.106,0.536-0.208,0.7
					c0.102,0.101,0.201,0.192,0.303,0.274c0.102,0.081,0.157,0.198,0.17,0.35c0,0.139-0.034,0.276-0.103,0.416
					c-0.07,0.139-0.141,0.274-0.208,0.406c-0.071,0.132-0.121,0.262-0.151,0.388c-0.033,0.125,0.001,0.252,0.103,0.378
					c-0.227,0.126-0.378,0.28-0.453,0.464c-0.076,0.182-0.114,0.393-0.114,0.633c0,0.163,0.008,0.381,0.02,0.651
					c0.014,0.271-0.012,0.477-0.075,0.614c-0.076,0.151-0.155,0.303-0.236,0.454c-0.082,0.151-0.161,0.303-0.237,0.454
					c-0.15,0.315-0.287,0.633-0.405,0.955c-0.12,0.321-0.242,0.646-0.37,0.974c-0.023,0.087-0.053,0.17-0.084,0.245
					c-0.031,0.076-0.061,0.158-0.086,0.246c-0.188-0.037-0.321-0.025-0.396,0.038c-0.076,0.063-0.138,0.135-0.188,0.217
					c-0.052,0.082-0.114,0.164-0.189,0.246s-0.215,0.123-0.416,0.123v0.057c-0.051,0.29-0.203,0.548-0.453,0.774
					c-0.253,0.227-0.544,0.444-0.87,0.652c-0.329,0.208-0.656,0.41-0.983,0.605c-0.328,0.195-0.593,0.394-0.794,0.596h-0.02
					c-0.227-0.025-0.441,0.031-0.643,0.17c-0.201,0.138-0.403,0.267-0.604,0.388c-0.201,0.119-0.42,0.195-0.651,0.227
					c-0.233,0.031-0.49-0.066-0.767-0.293v-0.019c-0.064,0.012-0.106,0.019-0.133,0.019c-0.023,0-0.043,0.003-0.057,0.01
					c-0.013,0.006-0.027,0.019-0.047,0.037c-0.019,0.02-0.053,0.054-0.104,0.104v-0.019c-0.213-0.127-0.397-0.281-0.549-0.464
					c-0.15-0.183-0.257-0.394-0.321-0.634c0.025-0.024,0.054-0.053,0.086-0.085c0.031-0.031,0.061-0.06,0.085-0.085
					c-0.176-0.101-0.3-0.242-0.368-0.425s-0.113-0.381-0.133-0.596c-0.019-0.214-0.03-0.426-0.037-0.633
					c-0.007-0.208-0.042-0.388-0.105-0.539c0.189-0.025,0.344-0.11,0.464-0.255c0.119-0.146,0.243-0.274,0.368-0.388
					c-0.023-0.025-0.046-0.089-0.065-0.189c-0.019-0.102-0.028-0.164-0.028-0.188c-0.013-0.24,0.019-0.473,0.094-0.7
					c0.076-0.227,0.171-0.444,0.284-0.652c0.112-0.208,0.227-0.415,0.34-0.624c0.114-0.207,0.208-0.425,0.284-0.652
					c0.265-0.214,0.469-0.437,0.615-0.671c0.145-0.232,0.285-0.5,0.424-0.803c0.039-0.089,0.092-0.202,0.16-0.34
					c0.07-0.14,0.149-0.278,0.237-0.416c0.087-0.14,0.183-0.263,0.283-0.369c0.102-0.107,0.201-0.18,0.303-0.218
					c-0.012-0.025-0.019-0.082-0.019-0.17c0-0.215,0.072-0.395,0.217-0.539c0.146-0.145,0.287-0.287,0.426-0.425
					c0.14-0.139,0.242-0.29,0.312-0.454c0.07-0.164,0.029-0.378-0.122-0.643c0.352-0.315,0.636-0.665,0.851-1.05
					c0.213-0.384,0.405-0.771,0.576-1.162c0.17-0.391,0.347-0.775,0.529-1.153c0.182-0.378,0.427-0.718,0.729-1.021l0.038-0.038
					c-0.052-0.239-0.111-0.413-0.181-0.521c-0.069-0.106-0.158-0.176-0.265-0.207s-0.227-0.051-0.359-0.057
					c-0.133-0.007-0.276-0.025-0.435-0.058c-0.158-0.03-0.33-0.101-0.52-0.208c-0.188-0.106-0.39-0.279-0.604-0.52
					c-0.178-0.101-0.299-0.198-0.37-0.293c-0.068-0.095-0.125-0.191-0.17-0.293c-0.043-0.101-0.084-0.205-0.122-0.312
					c-0.037-0.107-0.106-0.23-0.207-0.368c0.226-0.14,0.329-0.293,0.311-0.464c-0.02-0.17-0.076-0.334-0.171-0.491
					c-0.094-0.157-0.186-0.307-0.272-0.444c-0.088-0.139-0.102-0.246-0.038-0.321c0.05-0.113,0.145-0.189,0.283-0.228
					c0.14-0.037,0.258-0.075,0.359-0.113c-0.026-0.113-0.016-0.22,0.027-0.321c0.045-0.101,0.108-0.191,0.189-0.274
					c0.082-0.081,0.173-0.151,0.274-0.208s0.201-0.104,0.303-0.142c0.113,0.026,0.205,0.026,0.273,0
					c0.069-0.024,0.133-0.057,0.189-0.095c0.057-0.037,0.102-0.078,0.132-0.123c0.031-0.043,0.067-0.072,0.104-0.085l-0.019-0.151
					c0.214-0.063,0.402-0.047,0.567,0.048c0.163,0.095,0.322,0.205,0.473,0.331c0.176,0.139,0.334,0.249,0.473,0.331
					c0.138,0.082,0.322,0.104,0.549,0.065h0.019c0.062,0.063,0.129,0.117,0.198,0.161c0.068,0.045,0.136,0.092,0.197,0.142
					c0.063-0.038,0.113-0.078,0.151-0.123c0.038-0.044,0.102-0.047,0.188-0.01l-0.15,0.151l0.794,0.624l0.473-0.643l-0.095-0.019
					l-0.133-0.133c0-0.101,0.035-0.183,0.105-0.246c0.068-0.063,0.104-0.144,0.104-0.245c-0.025-0.05-0.051-0.082-0.076-0.095
					l0.038-0.038c0.265,0.025,0.426-0.012,0.483-0.113c0.057-0.101,0.087-0.22,0.094-0.359c0.006-0.138,0.028-0.286,0.065-0.444
					c0.038-0.157,0.177-0.28,0.416-0.368c-0.201-0.189-0.283-0.328-0.246-0.416c0.038-0.088,0.116-0.16,0.237-0.217
					c0.119-0.057,0.248-0.123,0.387-0.199c0.14-0.075,0.208-0.195,0.208-0.358c0-0.063-0.007-0.117-0.019-0.161
					c-0.012-0.045-0.02-0.098-0.02-0.16c0-0.278,0.072-0.53,0.219-0.757c0.145-0.227,0.303-0.447,0.473-0.662
					c0.17-0.214,0.321-0.438,0.454-0.671c0.132-0.233,0.179-0.494,0.141-0.784c0-0.038-0.012-0.095-0.038-0.171
					c0.114-0.276,0.253-0.541,0.416-0.794c0.164-0.252,0.321-0.503,0.473-0.756c0.152-0.252,0.293-0.51,0.425-0.774
					c0.133-0.265,0.23-0.543,0.294-0.832c0.05-0.013,0.113-0.025,0.189-0.038c0.075-0.013,0.125-0.057,0.151-0.132
					c-0.015-0.063-0.019-0.12-0.019-0.171c0-0.05-0.008-0.101-0.02-0.151h0.02c0.1,0.013,0.17,0.004,0.207-0.028
					c0.038-0.03,0.088-0.078,0.151-0.142c0.024-0.024,0.054-0.05,0.084-0.075c0.033-0.025,0.054-0.057,0.067-0.095
					c0.024-0.403,0.138-0.721,0.341-0.955c0.2-0.232,0.435-0.482,0.699-0.747c0.605-0.176,1.097-0.116,1.475,0.18
					C156.52,217.722,156.816,218.134,157.03,218.663z M147.917,239.762c-0.024-0.089-0.034-0.18-0.027-0.274
					c0.005-0.095,0.053-0.161,0.141-0.199c-0.1-0.088-0.163-0.17-0.189-0.245c-0.023-0.076-0.038-0.151-0.038-0.228
					c0-0.075,0-0.147,0-0.217s-0.019-0.154-0.057-0.256c0.053-0.238,0.073-0.479,0.067-0.717c-0.007-0.24-0.025-0.477-0.057-0.709
					c-0.032-0.234-0.067-0.471-0.104-0.71c-0.038-0.239-0.057-0.479-0.057-0.718c-0.201-0.076-0.327-0.092-0.378-0.048
					s-0.078,0.106-0.085,0.189c-0.007,0.082-0.025,0.16-0.057,0.236s-0.136,0.113-0.313,0.113v0.075
					c0.063,0.114,0.052,0.233-0.038,0.359c-0.088,0.126-0.194,0.259-0.32,0.397s-0.245,0.28-0.358,0.426
					c-0.113,0.144-0.17,0.299-0.17,0.463c-0.189,0.126-0.32,0.28-0.389,0.462c-0.069,0.184-0.126,0.366-0.17,0.549
					c-0.045,0.183-0.107,0.354-0.189,0.511s-0.23,0.274-0.443,0.35c-0.026,0.024-0.038,0.044-0.038,0.057
					c-0.063,0.202-0.128,0.372-0.189,0.511c-0.063,0.139-0.127,0.271-0.188,0.396c-0.064,0.126-0.14,0.252-0.228,0.379
					c-0.089,0.125-0.196,0.271-0.321,0.435c-0.252,0.327-0.464,0.646-0.635,0.955c-0.169,0.309-0.272,0.671-0.311,1.086
					c-0.314,0.051-0.533,0.17-0.653,0.359c-0.118,0.189-0.204,0.404-0.254,0.643c-0.05,0.24-0.099,0.482-0.143,0.729
					c-0.043,0.246-0.142,0.457-0.292,0.633h-0.02c-0.177,0.266-0.359,0.532-0.548,0.804c-0.189,0.271-0.36,0.549-0.511,0.832
					c-0.151,0.283-0.273,0.577-0.368,0.879c-0.095,0.303-0.143,0.624-0.143,0.964c0.151,0.177,0.328,0.306,0.529,0.388
					s0.404,0.168,0.604,0.255l0.02-0.019c0.253-0.038,0.469-0.104,0.651-0.198c0.185-0.095,0.354-0.199,0.511-0.313
					c0.158-0.113,0.316-0.236,0.473-0.368c0.158-0.133,0.339-0.256,0.54-0.368c0.265,0.012,0.495-0.017,0.688-0.085
					c0.196-0.07,0.372-0.17,0.529-0.303c0.159-0.133,0.3-0.287,0.427-0.463c0.126-0.178,0.251-0.366,0.378-0.567
					c0.113-0.215,0.266-0.448,0.454-0.699c0.189-0.253,0.391-0.436,0.605-0.549c0.012,0,0.021-0.004,0.027-0.01
					c0.007-0.007,0.016-0.009,0.029-0.009c-0.038-0.051-0.075-0.13-0.113-0.236c-0.038-0.108-0.058-0.192-0.058-0.256
					c-0.014-0.303,0.065-0.562,0.236-0.775c0.17-0.214,0.337-0.422,0.5-0.624c0.165-0.201,0.278-0.412,0.341-0.633
					c0.063-0.221-0.013-0.488-0.228-0.803c0.228-0.164,0.373-0.357,0.435-0.577c0.063-0.221,0.108-0.447,0.133-0.681
					c0.025-0.233,0.06-0.467,0.104-0.699c0.045-0.233,0.174-0.457,0.387-0.671l0.057-0.058L147.917,239.762z M146.839,231.765
					c-0.125-0.126-0.201-0.259-0.228-0.396c-0.023-0.139-0.042-0.271-0.057-0.397c-0.012-0.126-0.039-0.242-0.084-0.35
					s-0.147-0.192-0.311-0.256l-0.02-0.019c-0.088,0.038-0.199,0.063-0.331,0.076c-0.133,0.013-0.272,0.009-0.416-0.01
					c-0.145-0.019-0.284-0.048-0.416-0.085c-0.132-0.038-0.235-0.082-0.312-0.133l-0.019,0.02c-0.328,0.214-0.54,0.463-0.634,0.746
					c-0.096,0.284-0.117,0.615-0.065,0.993c0,0.024,0.001,0.057,0.008,0.095c0.008,0.037,0.016,0.088,0.029,0.151
					c0.013,0.063,0.024,0.132,0.038,0.207c0.189,0.202,0.365,0.302,0.529,0.302c0.163,0,0.321-0.047,0.473-0.142
					c0.151-0.094,0.303-0.207,0.454-0.339c0.151-0.133,0.308-0.23,0.473-0.293h0.019
					C146.323,232.149,146.611,232.093,146.839,231.765z M155.896,220.309c-0.064-0.038-0.108-0.127-0.133-0.265
					c-0.026-0.139-0.057-0.29-0.095-0.454c-0.038-0.163-0.093-0.309-0.161-0.435c-0.069-0.126-0.174-0.201-0.312-0.228l-0.038,0.038
					c-0.177,0.215-0.348,0.457-0.51,0.729c-0.165,0.271-0.325,0.552-0.483,0.841c-0.156,0.29-0.308,0.579-0.454,0.87
					c-0.145,0.29-0.273,0.554-0.387,0.793c-0.025,0.063-0.094,0.202-0.207,0.416c-0.114,0.215-0.234,0.444-0.36,0.69
					c-0.125,0.246-0.245,0.467-0.358,0.661c-0.113,0.196-0.178,0.301-0.189,0.313v0.019c-0.038,0.24-0.099,0.492-0.181,0.757
					c-0.081,0.265-0.183,0.523-0.3,0.774c-0.121,0.253-0.258,0.489-0.408,0.71c-0.151,0.22-0.321,0.406-0.511,0.558
					c-0.012,0.012-0.022,0.019-0.027,0.019c-0.007,0-0.017,0.006-0.029,0.019l0.038,0.038c0.201,0.277,0.271,0.501,0.208,0.671
					s-0.167,0.325-0.312,0.463c-0.146,0.14-0.294,0.291-0.445,0.454c-0.151,0.164-0.215,0.378-0.188,0.643
					c0,0.14,0.037,0.271,0.113,0.397h0.34c0.178-0.164,0.318-0.356,0.427-0.577c0.106-0.22,0.224-0.425,0.349-0.614
					c0.126-0.189,0.276-0.35,0.454-0.482s0.423-0.198,0.737-0.198l-0.038-0.321c0.404-0.403,0.73-0.863,0.983-1.38
					c0.251-0.517,0.397-1.059,0.436-1.626c0.2-0.075,0.336-0.18,0.405-0.312c0.068-0.133,0.12-0.28,0.15-0.444
					c0.031-0.164,0.076-0.328,0.133-0.492c0.057-0.163,0.174-0.314,0.351-0.454l0.038-0.037c0-0.063-0.007-0.123-0.02-0.18
					s-0.019-0.116-0.019-0.18c0-0.214,0.034-0.416,0.104-0.604c0.068-0.188,0.158-0.368,0.265-0.539
					c0.106-0.17,0.219-0.34,0.332-0.51S155.807,220.498,155.896,220.309z"/>
				<path fill="#FFFFFF" d="M172.604,231.5c-0.291,0.139-0.484,0.309-0.586,0.511c-0.102,0.201-0.179,0.409-0.235,0.623
					c-0.058,0.215-0.127,0.42-0.208,0.614c-0.083,0.196-0.256,0.357-0.521,0.482c-0.063,0.227-0.186,0.385-0.367,0.473
					c-0.184,0.089-0.377,0.168-0.578,0.236c-0.201,0.07-0.381,0.161-0.537,0.274c-0.158,0.113-0.237,0.31-0.237,0.586
					c-0.251,0.139-0.526,0.265-0.822,0.378s-0.604,0.199-0.926,0.256s-0.64,0.078-0.954,0.065c-0.316-0.013-0.612-0.075-0.89-0.188
					c-0.188-0.089-0.372-0.202-0.548-0.341c-0.064-0.051-0.124-0.092-0.18-0.122c-0.058-0.032-0.117-0.079-0.18-0.143
					c-0.15-0.15-0.278-0.327-0.378-0.529c-0.102-0.201-0.185-0.416-0.246-0.643c-0.063-0.227-0.113-0.454-0.151-0.681
					c-0.037-0.228-0.07-0.441-0.094-0.644l0.699-1.89c-0.366-0.289-0.662-0.626-0.889-1.012c-0.227-0.384-0.506-0.739-0.832-1.068
					c-0.063,0.089-0.145,0.165-0.246,0.228c-0.102,0.063-0.139,0.164-0.113,0.303l0.189,0.17c-0.416,0.453-0.835,0.968-1.257,1.541
					c-0.423,0.573-0.755,1.149-0.993,1.729c-0.277-0.012-0.473,0.055-0.586,0.199c-0.114,0.146-0.208,0.31-0.284,0.491
					c-0.075,0.184-0.17,0.35-0.284,0.501c-0.113,0.151-0.302,0.215-0.566,0.189c-0.063,0.14-0.126,0.287-0.189,0.444
					c-0.062,0.158-0.138,0.306-0.227,0.444c-0.088,0.139-0.194,0.255-0.321,0.35c-0.126,0.095-0.284,0.142-0.473,0.142
					c-0.101-0.101-0.156-0.208-0.171-0.321c-0.012-0.113,0-0.229,0.038-0.35c0.038-0.119,0.09-0.239,0.151-0.359
					c0.063-0.119,0.108-0.236,0.133-0.35c0.102-0.365,0.283-0.696,0.548-0.992s0.529-0.593,0.794-0.889s0.492-0.608,0.681-0.936
					c0.189-0.327,0.265-0.713,0.228-1.153c0.163-0.013,0.331-0.048,0.502-0.104c0.17-0.057,0.326-0.132,0.473-0.227
					c0.145-0.095,0.258-0.214,0.34-0.359c0.081-0.145,0.11-0.318,0.084-0.52c-0.102-0.05-0.157-0.123-0.17-0.218
					c-0.012-0.095-0.012-0.191,0-0.293c0.277-0.088,0.502-0.242,0.67-0.463c0.17-0.221,0.326-0.457,0.465-0.709
					c0.14-0.253,0.273-0.508,0.405-0.766c0.132-0.259,0.306-0.481,0.521-0.671c0.175,0.101,0.352,0.186,0.529,0.255
					c0.175,0.069,0.345,0.161,0.511,0.274c-0.114,0.151-0.185,0.296-0.208,0.435c-0.026,0.139-0.038,0.28-0.038,0.426
					c0,0.145,0,0.286,0,0.425s-0.038,0.283-0.113,0.435c0.201,0.177,0.371,0.385,0.51,0.624c0.138,0.24,0.314,0.442,0.529,0.605
					c0.152-0.114,0.321-0.173,0.512-0.18c0.188-0.006,0.379-0.006,0.575,0c0.196,0.007,0.382-0.006,0.559-0.038
					c0.175-0.031,0.321-0.135,0.435-0.313c0.051,0.051,0.125,0.076,0.226,0.076c0.102,0,0.202,0,0.303,0
					c0.102,0,0.188,0.017,0.265,0.047c0.075,0.032,0.12,0.093,0.132,0.18c0.014,0.102,0.011,0.171-0.009,0.208
					c-0.019,0.038-0.041,0.102-0.066,0.189c-0.024,0.102-0.031,0.151-0.02,0.151c0.014,0,0,0.044-0.037,0.132
					c-0.063,0.164-0.167,0.303-0.312,0.416c-0.145,0.114-0.29,0.224-0.435,0.331s-0.276,0.227-0.397,0.359
					c-0.12,0.132-0.179,0.299-0.179,0.501c-0.278,0.101-0.473,0.248-0.586,0.444c-0.113,0.195-0.189,0.416-0.228,0.662
					c-0.037,0.245-0.063,0.497-0.075,0.755c-0.014,0.259-0.057,0.495-0.132,0.709l0.17,0.189l0.151-0.189
					c0.176,0.253,0.387,0.41,0.632,0.473c0.246,0.063,0.502,0.083,0.766,0.057c0.127-0.188,0.274-0.34,0.445-0.453
					c0.17-0.113,0.353-0.208,0.548-0.284c0.194-0.075,0.396-0.144,0.605-0.208c0.207-0.063,0.405-0.138,0.595-0.227
					c0.151-0.075,0.28-0.157,0.389-0.246c0.106-0.087,0.223-0.188,0.349-0.303c0.378-0.352,0.753-0.698,1.126-1.039
					c0.371-0.34,0.745-0.687,1.124-1.039c0.075,0,0.125,0.037,0.151,0.113c0.025,0.075,0.037,0.16,0.037,0.255
					s-0.003,0.189-0.01,0.284C172.607,231.377,172.604,231.449,172.604,231.5z"/>
				<path fill="#FFFFFF" d="M189.538,229.458c-0.112,0.113-0.199,0.202-0.256,0.265c-0.057,0.063-0.106,0.123-0.151,0.18
					c-0.043,0.057-0.095,0.117-0.151,0.18c-0.057,0.063-0.141,0.157-0.255,0.283c-0.102,0.102-0.195,0.209-0.283,0.322
					s-0.188,0.214-0.303,0.303c-0.15-0.038-0.268-0.02-0.349,0.057c-0.082,0.075-0.158,0.16-0.228,0.255
					c-0.07,0.095-0.132,0.183-0.188,0.265s-0.131,0.116-0.218,0.104c-0.303,0.164-0.605,0.306-0.908,0.426
					c-0.303,0.119-0.591,0.293-0.869,0.52l-0.152-0.15l-1.965,0.944c-0.063,0.025-0.127,0.063-0.188,0.113
					c-0.063,0.051-0.127,0.095-0.188,0.133c-0.279,0.151-0.566,0.287-0.861,0.406c-0.296,0.12-0.59,0.23-0.879,0.331l-0.245,0.075
					c0.1,0.253,0.1,0.429,0,0.529c-0.102,0.102-0.246,0.174-0.435,0.218c-0.189,0.044-0.397,0.072-0.625,0.085
					c-0.227,0.013-0.403,0.057-0.529,0.133c-0.151-0.026-0.306-0.035-0.464-0.029c-0.156,0.007-0.317,0.022-0.481,0.048
					c-0.177,0.025-0.34,0.038-0.492,0.038c-0.15,0-0.314-0.02-0.49-0.057h-0.039c-0.215,0.1-0.399,0.122-0.557,0.065
					c-0.158-0.057-0.301-0.15-0.426-0.283c-0.126-0.133-0.242-0.289-0.35-0.473c-0.107-0.183-0.218-0.35-0.331-0.501
					c-0.076-0.101-0.171-0.246-0.283-0.435c-0.114-0.189-0.21-0.391-0.293-0.605c-0.083-0.214-0.132-0.432-0.151-0.651
					c-0.019-0.221,0.028-0.413,0.141-0.577c0.114-0.164,0.207-0.34,0.275-0.529c0.069-0.189,0.104-0.41,0.104-0.662
					c0-0.088-0.002-0.17-0.009-0.245c-0.007-0.076-0.011-0.157-0.011-0.246c0.064,0,0.133,0.004,0.209,0.01
					c0.075,0.006,0.147,0.006,0.218,0c0.069-0.006,0.126-0.032,0.17-0.076c0.043-0.044,0.065-0.122,0.065-0.236
					c0-0.063-0.022-0.113-0.065-0.15c-0.044-0.038-0.074-0.076-0.085-0.114c0.074-0.113,0.146-0.204,0.218-0.273
					c0.068-0.069,0.128-0.139,0.179-0.209c0.05-0.068,0.088-0.15,0.113-0.245s0.019-0.224-0.02-0.388
					c0.152-0.265,0.332-0.501,0.541-0.709c0.207-0.208,0.424-0.403,0.651-0.586c0.226-0.183,0.46-0.362,0.698-0.538
					c0.24-0.178,0.467-0.366,0.682-0.567c0.238,0.101,0.432,0.101,0.576,0c0.146-0.102,0.274-0.212,0.388-0.331
					c0.114-0.119,0.228-0.218,0.341-0.293c0.113-0.076,0.265-0.044,0.453,0.095l0.038,0.038c0.341-0.341,0.683-0.492,1.03-0.454
					c0.347,0.038,0.643,0.151,0.889,0.34c0.245,0.189,0.407,0.407,0.482,0.652c0.076,0.246,0.006,0.413-0.208,0.501
					c0.138,0.139,0.208,0.303,0.208,0.491s-0.052,0.354-0.151,0.491c-0.113,0.151-0.211,0.307-0.294,0.464
					c-0.082,0.158-0.166,0.324-0.254,0.501c-0.127,0.29-0.265,0.564-0.416,0.822c-0.151,0.259-0.366,0.476-0.643,0.652
					c-0.228-0.063-0.382-0.038-0.465,0.076c-0.082,0.112-0.141,0.235-0.179,0.368c-0.038,0.132-0.082,0.236-0.132,0.312
					c-0.052,0.076-0.158,0.051-0.322-0.075l-0.037-0.038l-0.038,0.038c-0.102,0.101-0.181,0.214-0.237,0.34
					c-0.057,0.127-0.136,0.221-0.235,0.284c-0.113-0.038-0.233-0.069-0.359-0.095c-0.125-0.024-0.245-0.051-0.359-0.075
					c0,0.265-0.05,0.473-0.151,0.624c-0.102,0.15-0.23,0.273-0.389,0.368c-0.156,0.095-0.336,0.17-0.537,0.228
					c-0.201,0.056-0.4,0.125-0.595,0.207c-0.196,0.082-0.379,0.183-0.549,0.302c-0.17,0.121-0.306,0.287-0.407,0.501
					c0.126,0.14,0.283,0.218,0.473,0.236c0.189,0.02,0.385,0.02,0.586,0c0.201-0.019,0.4-0.028,0.597-0.028
					c0.194,0,0.368,0.051,0.52,0.151l0.019,0.02l0.019-0.02c0.303-0.037,0.595-0.109,0.879-0.217
					c0.283-0.106,0.562-0.221,0.832-0.341c0.271-0.119,0.548-0.232,0.831-0.34c0.284-0.106,0.578-0.187,0.881-0.236
					c0.062,0.101,0.147,0.158,0.254,0.17c0.107,0.013,0.212,0.007,0.313-0.019l0.02-0.038c0.023-0.088,0.05-0.167,0.075-0.236
					c0.024-0.069,0.063-0.148,0.114-0.236c0.088-0.139,0.193-0.245,0.32-0.321c0.126-0.075,0.262-0.132,0.406-0.17
					c0.145-0.037,0.299-0.063,0.463-0.075c0.165-0.013,0.328-0.032,0.491-0.057h0.038l0.019-0.057
					c0.052-0.151,0.117-0.256,0.199-0.313c0.081-0.057,0.171-0.098,0.265-0.123c0.096-0.024,0.195-0.044,0.303-0.057
					s0.211-0.051,0.312-0.113c0.227,0.075,0.416,0.051,0.567-0.075c0.15-0.127,0.295-0.259,0.435-0.397l0.151,0.189l0.057-0.076
					c0.189-0.176,0.332-0.309,0.426-0.397c0.095-0.088,0.186-0.166,0.273-0.236c0.088-0.068,0.193-0.138,0.313-0.207
					s0.286-0.173,0.501-0.313c0.177-0.113,0.351-0.227,0.519-0.34c0.17-0.114,0.339-0.239,0.502-0.379
					c0.063,0.026,0.095,0.073,0.095,0.143s0,0.136,0,0.198c-0.012,0.025-0.022,0.063-0.029,0.113
					C189.504,229.396,189.512,229.434,189.538,229.458z M181.712,227.096c-0.014-0.013-0.022-0.02-0.029-0.02
					s-0.015-0.007-0.027-0.019c-0.265-0.139-0.486-0.205-0.662-0.198c-0.177,0.006-0.338,0.057-0.482,0.151
					s-0.276,0.214-0.397,0.358c-0.118,0.146-0.246,0.277-0.378,0.396c-0.132,0.121-0.287,0.212-0.462,0.274
					c-0.178,0.063-0.391,0.057-0.644-0.019c-0.038,0.201-0.071,0.4-0.104,0.596c-0.031,0.195-0.053,0.395-0.065,0.596
					c-0.215,0.075-0.382,0.183-0.5,0.321c-0.12,0.139-0.222,0.29-0.303,0.453c-0.083,0.164-0.158,0.337-0.227,0.521
					c-0.071,0.183-0.162,0.355-0.275,0.52l0.076,0.095c0.05-0.024,0.106-0.006,0.17,0.057s0.106,0.107,0.132,0.133
					c0.14-0.202,0.325-0.372,0.559-0.511c0.232-0.139,0.471-0.269,0.717-0.388s0.483-0.248,0.71-0.388
					c0.228-0.139,0.397-0.321,0.511-0.549c0.402-0.112,0.705-0.34,0.908-0.68c0.201-0.341,0.371-0.693,0.51-1.06
					c0.024-0.075,0.072-0.186,0.141-0.33C181.657,227.262,181.698,227.158,181.712,227.096z"/>
				<path fill="#FFFFFF" d="M203.827,230.518c-0.063,0.391-0.139,0.689-0.227,0.897c-0.09,0.208-0.199,0.378-0.331,0.511
					c-0.133,0.132-0.3,0.258-0.501,0.378c-0.202,0.12-0.442,0.292-0.719,0.52c-0.101,0.075-0.195,0.146-0.283,0.208
					c-0.09,0.063-0.177,0.139-0.265,0.227c-0.253,0.076-0.563,0.198-0.927,0.369c-0.366,0.17-0.741,0.34-1.126,0.51
					c-0.383,0.171-0.749,0.319-1.095,0.444c-0.348,0.127-0.628,0.178-0.843,0.151c-0.075,0.102-0.207,0.164-0.396,0.189
					s-0.334,0.038-0.435,0.038c-0.163,0-0.33,0.013-0.501,0.037c-0.17,0.026-0.317,0.102-0.445,0.228
					c-0.023,0.024-0.041,0.04-0.046,0.047c-0.007,0.006-0.007,0.01,0,0.01c0.005,0,0.005,0.002,0,0.009
					c-0.007,0.006-0.022,0.028-0.048,0.066c-0.138,0.163-0.28,0.252-0.425,0.265c-0.146,0.012-0.287-0.009-0.427-0.066
					c-0.137-0.057-0.279-0.129-0.424-0.217c-0.145-0.089-0.291-0.154-0.435-0.198c-0.146-0.044-0.295-0.051-0.444-0.02
					c-0.151,0.032-0.303,0.135-0.453,0.313c-0.09-0.228-0.228-0.359-0.416-0.397c-0.189-0.038-0.382-0.06-0.578-0.066
					c-0.196-0.006-0.382-0.024-0.557-0.057c-0.178-0.03-0.298-0.147-0.359-0.35v-0.019l-0.397-0.341l-0.057,0.057
					c-0.063,0.063-0.113,0.133-0.15,0.208c-0.038,0.076-0.083,0.146-0.133,0.208c-0.102,0.151-0.208,0.3-0.321,0.444
					s-0.242,0.271-0.389,0.378c-0.145,0.107-0.299,0.189-0.462,0.246c-0.164,0.057-0.341,0.072-0.53,0.047
					c0-0.302,0.085-0.579,0.255-0.831s0.335-0.501,0.491-0.747c0.158-0.246,0.26-0.498,0.303-0.757
					c0.045-0.258-0.059-0.531-0.311-0.822c-0.013-0.176-0.092-0.349-0.237-0.519c-0.146-0.171-0.28-0.341-0.406-0.511
					c-0.125-0.171-0.199-0.337-0.219-0.501c-0.019-0.164,0.094-0.328,0.332-0.492c-0.113-0.024-0.188-0.069-0.227-0.132
					c0-0.063,0.016-0.129,0.046-0.199c0.033-0.068,0.061-0.135,0.087-0.198c0.075,0,0.154-0.016,0.235-0.047
					c0.082-0.031,0.158-0.057,0.227-0.076c0.07-0.019,0.132-0.019,0.189,0c0.057,0.02,0.111,0.079,0.161,0.18
					c0.038,0.076,0.069,0.157,0.095,0.246s0.057,0.176,0.095,0.265c0.101,0.252,0.227,0.488,0.378,0.709
					c0.151,0.22,0.321,0.426,0.51,0.614l0.058,0.057c0-0.013,0.025-0.044,0.075-0.094c0.05-0.051,0.106-0.104,0.17-0.161
					c0.063-0.057,0.119-0.11,0.17-0.161s0.089-0.088,0.114-0.113c0.151-0.138,0.296-0.271,0.435-0.396
					c0.138-0.127,0.262-0.256,0.368-0.388c0.106-0.133,0.188-0.284,0.245-0.454s0.086-0.369,0.086-0.596
					c0.391-0.265,0.775-0.558,1.154-0.879c0.376-0.321,0.762-0.634,1.151-0.937c0.392-0.302,0.798-0.572,1.221-0.812
					c0.421-0.24,0.878-0.404,1.37-0.492c0.113,0.201,0.246,0.359,0.396,0.473c0.151,0.113,0.299,0.227,0.445,0.34
					c0.145,0.113,0.276,0.253,0.396,0.416c0.119,0.164,0.205,0.392,0.255,0.681c0.102,0.542,0.105,1.053,0.011,1.531
					c-0.095,0.479-0.23,0.978-0.407,1.494c-0.102,0.303-0.192,0.611-0.273,0.926c-0.083,0.315-0.124,0.637-0.124,0.964l0.133,0.038
					c0.113-0.151,0.242-0.246,0.388-0.284c0.145-0.037,0.292-0.063,0.444-0.075c0.15-0.012,0.299-0.034,0.443-0.066
					c0.146-0.031,0.268-0.123,0.369-0.274c0.163,0.064,0.318,0.066,0.462,0.01c0.146-0.057,0.288-0.135,0.427-0.235
					c0.138-0.102,0.277-0.208,0.416-0.321c0.138-0.113,0.283-0.189,0.435-0.227l-0.019-0.151c0.227-0.151,0.421-0.259,0.586-0.321
					c0.163-0.063,0.314-0.127,0.453-0.189s0.277-0.151,0.416-0.265s0.297-0.303,0.474-0.567c0.062-0.025,0.134-0.034,0.217-0.028
					C203.729,230.419,203.789,230.454,203.827,230.518z M197.229,228.646c-0.063-0.025-0.129-0.048-0.197-0.066
					c-0.07-0.019-0.137-0.047-0.199-0.085c-0.113-0.076-0.221-0.133-0.322-0.171c-0.102-0.037-0.22-0.024-0.359,0.038v0.038h-0.019
					c-0.643,0.491-1.237,1.03-1.786,1.616c-0.548,0.587-1.124,1.157-1.729,1.712l-0.17-0.171c-0.09,0.113-0.136,0.233-0.144,0.359
					c-0.007,0.126-0.009,0.246-0.009,0.359s-0.014,0.22-0.037,0.32c-0.025,0.102-0.102,0.196-0.227,0.284l-0.057,0.038
					c0.049,0.177,0.121,0.287,0.216,0.33c0.095,0.045,0.196,0.064,0.303,0.057c0.106-0.006,0.211-0.015,0.313-0.028
					c0.1-0.012,0.183,0.007,0.246,0.058c0.038,0.025,0.062,0.063,0.075,0.113c0.012,0.051,0.02,0.094,0.02,0.132
					c0.062,0,0.129,0,0.197,0s0.143-0.006,0.219-0.019c0.137-0.025,0.285-0.028,0.443-0.01c0.158,0.02,0.249,0.117,0.273,0.293
					c0.252-0.101,0.51-0.208,0.775-0.321c0.264-0.113,0.479-0.296,0.643-0.548l0.133,0.132c0.013,0,0.021-0.002,0.028-0.009
					c0.006-0.007,0.016-0.01,0.028-0.01c0.314-0.189,0.563-0.466,0.747-0.831c0.183-0.366,0.318-0.764,0.405-1.191
					c0.088-0.429,0.144-0.856,0.162-1.286C197.22,229.352,197.229,228.974,197.229,228.646z"/>
				<path fill="#FFFFFF" d="M217.926,232.993c-0.265,0.567-0.518,1.015-0.756,1.343c-0.239,0.328-0.508,0.603-0.803,0.822
					c-0.298,0.22-0.653,0.425-1.069,0.614s-0.938,0.429-1.567,0.719c-0.253-0.063-0.499-0.079-0.738-0.048
					c-0.24,0.031-0.471,0.054-0.69,0.066s-0.432-0.009-0.633-0.066c-0.202-0.057-0.385-0.211-0.548-0.463h-0.284
					c0.013-0.164-0.003-0.338-0.048-0.52c-0.043-0.184-0.167-0.286-0.368-0.313c0.126-0.138,0.208-0.293,0.246-0.463
					c0.038-0.171,0.065-0.343,0.084-0.521c0.02-0.176,0.048-0.346,0.086-0.51c0.038-0.163,0.133-0.303,0.284-0.416
					c-0.151-0.201-0.212-0.407-0.181-0.615c0.032-0.207,0.102-0.415,0.208-0.623s0.22-0.416,0.34-0.624
					c0.121-0.208,0.181-0.419,0.181-0.633c-0.113-0.076-0.218-0.18-0.313-0.313c-0.095-0.132-0.224-0.166-0.387-0.104
					c-0.341,0.327-0.681,0.64-1.021,0.936c-0.342,0.296-0.673,0.602-0.994,0.917c-0.32,0.314-0.622,0.646-0.906,0.992
					c-0.283,0.347-0.547,0.728-0.785,1.144c-0.215,0.038-0.378,0.14-0.492,0.303c-0.113,0.164-0.215,0.338-0.302,0.521
					c-0.088,0.182-0.187,0.355-0.293,0.52c-0.107,0.163-0.256,0.271-0.444,0.321c-0.063,0.201-0.129,0.406-0.198,0.614
					c-0.068,0.208-0.136,0.413-0.199,0.615c-0.076-0.038-0.172-0.07-0.292-0.095c-0.121-0.025-0.237-0.057-0.352-0.095
					c-0.113-0.038-0.213-0.085-0.302-0.142c-0.087-0.057-0.145-0.13-0.17-0.218c-0.013-0.025-0.016-0.079-0.009-0.16
					c0.007-0.083,0.009-0.137,0.009-0.161c0.025-0.354,0.116-0.684,0.274-0.992c0.158-0.31,0.325-0.611,0.5-0.908
					c0.178-0.296,0.341-0.596,0.492-0.898c0.151-0.302,0.233-0.636,0.246-1.001c0.188,0,0.313-0.057,0.369-0.17
					s0.1-0.233,0.133-0.359c0.031-0.126,0.072-0.239,0.121-0.341c0.05-0.101,0.164-0.139,0.341-0.113
					c-0.113-0.15-0.16-0.317-0.142-0.501c0.02-0.183,0.066-0.365,0.142-0.548c0.075-0.184,0.17-0.359,0.284-0.529
					c0.113-0.171,0.207-0.324,0.283-0.464c-0.012-0.176,0.004-0.353,0.048-0.529c0.043-0.176,0.122-0.333,0.235-0.473
					c0.113-0.139,0.215-0.271,0.303-0.396s0.177-0.259,0.265-0.397c0.05-0.063,0.091-0.133,0.124-0.208
					c0.031-0.076,0.065-0.145,0.104-0.208c0.113-0.163,0.188-0.337,0.227-0.52s0.079-0.366,0.122-0.548
					c0.044-0.184,0.108-0.347,0.188-0.492c0.083-0.145,0.23-0.261,0.445-0.35c0-0.138,0.022-0.268,0.065-0.388
					c0.045-0.119,0.093-0.242,0.143-0.368s0.099-0.248,0.142-0.369c0.045-0.119,0.066-0.248,0.066-0.388
					c0.038-0.063,0.095-0.125,0.17-0.188c0.076-0.063,0.145-0.126,0.209-0.189c0.062-0.063,0.113-0.129,0.15-0.198
					c0.038-0.069,0.044-0.154,0.02-0.256c0.012-0.163,0.009-0.333-0.011-0.51c-0.019-0.177,0.029-0.328,0.143-0.454
					c-0.025-0.163-0.003-0.296,0.065-0.396c0.07-0.101,0.154-0.188,0.256-0.265c0.1-0.075,0.212-0.148,0.33-0.218
					c0.121-0.069,0.224-0.148,0.313-0.236c-0.063-0.088-0.076-0.188-0.038-0.302s0.091-0.224,0.16-0.331
					c0.068-0.107,0.147-0.212,0.236-0.312c0.088-0.102,0.152-0.189,0.189-0.266c0.076-0.15,0.141-0.302,0.198-0.453
					c0.057-0.151,0.124-0.293,0.199-0.426c0.075-0.132,0.167-0.255,0.273-0.369c0.106-0.113,0.249-0.207,0.426-0.283
					c-0.052-0.252-0.036-0.447,0.047-0.586c0.082-0.139,0.196-0.258,0.341-0.359c0.144-0.101,0.299-0.198,0.464-0.293
					c0.163-0.095,0.295-0.229,0.395-0.406c0.14-0.038,0.291-0.078,0.454-0.122c0.165-0.045,0.328-0.076,0.492-0.095
					c0.164-0.02,0.32-0.017,0.473,0.01c0.15,0.024,0.29,0.094,0.416,0.207c0.051,0.051,0.082,0.082,0.094,0.095
					c0.014,0.013,0.019,0.021,0.019,0.027c0,0.007,0.004,0.02,0.011,0.038c0.006,0.02,0.035,0.055,0.084,0.104
					c0.051,0.051,0.102,0.098,0.152,0.142c0.049,0.045,0.101,0.098,0.15,0.16c0.013,0.089,0.013,0.188,0,0.294
					c-0.012,0.107-0.019,0.211-0.019,0.312c0,0.102,0.016,0.196,0.048,0.283c0.031,0.089,0.109,0.151,0.235,0.189
					c-0.101,0.366-0.145,0.757-0.132,1.172c0.012,0.416,0.019,0.836,0.019,1.258s-0.031,0.828-0.095,1.219s-0.227,0.737-0.491,1.04
					l-0.132,0.964c-0.164,0.014-0.277,0.066-0.341,0.161c-0.062,0.095-0.106,0.205-0.132,0.331
					c-0.024,0.126-0.047,0.259-0.066,0.396c-0.019,0.139-0.066,0.252-0.143,0.341c-0.1,0.126-0.201,0.271-0.303,0.435
					c-0.1,0.164-0.207,0.315-0.32,0.454s-0.243,0.255-0.387,0.35c-0.145,0.095-0.313,0.142-0.501,0.142
					c-0.025,0.076-0.075,0.163-0.151,0.265c-0.075,0.101-0.161,0.199-0.256,0.293c-0.095,0.095-0.192,0.177-0.293,0.245
					c-0.101,0.07-0.188,0.117-0.264,0.142c-0.102,0.038-0.193,0.066-0.275,0.086c-0.082,0.019-0.174,0.06-0.273,0.123
					c-0.113,0.063-0.227,0.145-0.34,0.245c-0.113,0.102-0.234,0.189-0.359,0.265c-0.127,0.076-0.26,0.13-0.397,0.161
					c-0.139,0.031-0.278,0.016-0.416-0.048c-0.165,0.202-0.351,0.325-0.559,0.369c-0.208,0.045-0.409,0.075-0.604,0.095
					c-0.195,0.019-0.379,0.063-0.549,0.132c-0.17,0.07-0.299,0.225-0.387,0.464c-0.025,0.025-0.048,0.079-0.067,0.16
					c-0.019,0.083-0.027,0.136-0.027,0.161c0,0.139-0.007,0.31-0.019,0.511s0.037,0.353,0.151,0.453
					c0.454-0.214,0.886-0.469,1.294-0.766c0.411-0.296,0.848-0.545,1.315-0.747l0.132,0.151c0.038-0.276,0.156-0.418,0.359-0.426
					c0.201-0.005,0.409-0.002,0.624,0.01h0.133c0.023,0,0.046-0.002,0.065-0.01c0.019-0.005,0.041-0.009,0.066-0.009
					c0.239,0,0.396,0.095,0.473,0.283c0.076,0.189,0.145,0.372,0.208,0.549c-0.14,0.151-0.249,0.331-0.331,0.539
					c-0.083,0.208-0.158,0.425-0.228,0.652c-0.068,0.227-0.145,0.45-0.227,0.671c-0.083,0.22-0.192,0.426-0.33,0.614
					c0.113,0.063,0.163,0.133,0.151,0.208c-0.014,0.075-0.036,0.151-0.067,0.227c-0.03,0.075-0.041,0.148-0.027,0.217
					c0.013,0.07,0.095,0.123,0.246,0.161c-0.128,0.089-0.212,0.192-0.257,0.312c-0.044,0.12-0.082,0.246-0.113,0.379
					c-0.03,0.132-0.064,0.258-0.104,0.378c-0.037,0.12-0.113,0.225-0.227,0.312c0.051,0.113,0.092,0.225,0.122,0.331
					c0.031,0.107,0.034,0.23,0.011,0.369c0.175,0.227,0.355,0.353,0.538,0.378c0.182,0.024,0.362,0.012,0.539-0.038
					c0.176-0.051,0.359-0.102,0.549-0.151s0.383-0.038,0.584,0.038c0.354-0.239,0.601-0.384,0.737-0.435
					c0.14-0.05,0.25-0.088,0.332-0.113c0.081-0.025,0.179-0.082,0.293-0.171c0.113-0.088,0.328-0.283,0.643-0.586
					c0.314-0.088,0.596-0.232,0.842-0.435C217.369,233.303,217.636,233.133,217.926,232.993z M215.108,217.548
					c0.014,0.151-0.021,0.269-0.103,0.35c-0.083,0.083-0.174,0.158-0.275,0.228c-0.1,0.069-0.197,0.139-0.292,0.208
					s-0.147,0.173-0.162,0.312c-0.163,0.076-0.27,0.177-0.319,0.303c-0.052,0.126-0.093,0.255-0.124,0.388
					c-0.03,0.132-0.079,0.261-0.141,0.388c-0.063,0.126-0.189,0.227-0.378,0.303l0.132,0.132c-0.416,0.378-0.747,0.825-0.993,1.343
					c-0.246,0.517-0.463,1.032-0.651,1.549c-0.177,0.189-0.303,0.401-0.378,0.634c-0.076,0.233-0.15,0.467-0.219,0.699
					c-0.068,0.234-0.158,0.454-0.265,0.662s-0.28,0.369-0.52,0.482c0.126,0.164,0.174,0.315,0.142,0.454
					c-0.031,0.138-0.099,0.271-0.198,0.396c-0.101,0.126-0.204,0.252-0.313,0.378c-0.106,0.126-0.167,0.265-0.179,0.416
					c0.238,0.05,0.477,0.044,0.708-0.019c0.233-0.063,0.464-0.154,0.69-0.274c0.228-0.12,0.44-0.255,0.644-0.406
					c0.201-0.151,0.397-0.283,0.586-0.397l0.133,0.133c0.567-0.315,1.036-0.696,1.407-1.144s0.728-0.937,1.067-1.466
					c-0.113-0.088-0.163-0.183-0.151-0.284c0.026-0.063,0.057-0.138,0.096-0.227c0.037-0.088,0.069-0.163,0.094-0.227
					c0.127-0.379,0.222-0.73,0.283-1.059c0.166-0.681,0.28-1.364,0.352-2.051c0.068-0.687,0.116-1.377,0.141-2.071L215.108,217.548z
					"/>
				<path fill="#FFFFFF" d="M244.82,218.663c-0.013,0.48-0.057,0.946-0.133,1.399c-0.076,0.454-0.22,0.889-0.435,1.305l0.019,0.019
					c0.139,0.215,0.201,0.426,0.189,0.633c-0.012,0.208-0.061,0.416-0.141,0.624c-0.083,0.208-0.178,0.416-0.284,0.624
					c-0.108,0.208-0.181,0.413-0.219,0.614c-0.239,0.102-0.378,0.236-0.416,0.407c-0.037,0.17-0.06,0.347-0.065,0.529
					s-0.041,0.359-0.104,0.529c-0.064,0.17-0.234,0.299-0.512,0.388l-0.113,0.038c0.215,0.214,0.313,0.399,0.294,0.558
					c-0.019,0.157-0.095,0.302-0.227,0.435c-0.133,0.132-0.294,0.258-0.483,0.378c-0.189,0.119-0.346,0.243-0.473,0.368
					c0.038,0.025,0.076,0.054,0.114,0.085c0.037,0.032,0.069,0.061,0.094,0.085c-0.138,0.126-0.287,0.249-0.443,0.369
					c-0.158,0.12-0.306,0.246-0.445,0.378c-0.137,0.133-0.257,0.277-0.358,0.435c-0.101,0.158-0.157,0.344-0.17,0.558
					c-0.051,0.064-0.116,0.107-0.199,0.133c-0.082,0.025-0.162,0.047-0.245,0.066c-0.082,0.019-0.158,0.045-0.228,0.075
					c-0.068,0.032-0.123,0.085-0.159,0.161l-0.019,0.019c0,0.089,0.012,0.196,0.035,0.321c-0.238,0.026-0.446,0.085-0.622,0.18
					c-0.177,0.095-0.338,0.212-0.483,0.35c-0.144,0.139-0.29,0.29-0.435,0.454s-0.299,0.314-0.462,0.454h-0.02v-0.038
					c-0.025-0.025-0.051-0.045-0.075-0.057c-0.026-0.013-0.052-0.032-0.075-0.057c-0.064-0.013-0.158,0.024-0.284,0.113
					c-0.127,0.088-0.208,0.157-0.246,0.208c-0.063,0.139-0.149,0.274-0.256,0.406c-0.106,0.133-0.194,0.265-0.265,0.396
					c-0.068,0.133-0.1,0.274-0.094,0.426s0.098,0.315,0.274,0.491c-0.089,0.177-0.11,0.366-0.067,0.567
					c0.045,0.202,0.096,0.395,0.151,0.576c0.057,0.184,0.099,0.354,0.124,0.511c0.024,0.157-0.025,0.286-0.151,0.388
					c0.013,0.101,0.027,0.191,0.047,0.274c0.019,0.081,0.086,0.147,0.199,0.198h0.188c-0.025,0.214-0.035,0.485-0.028,0.813
					c0.007,0.327,0.003,0.661-0.009,1.002c-0.014,0.34-0.038,0.661-0.076,0.963c-0.038,0.303-0.108,0.536-0.208,0.7
					c0.1,0.101,0.201,0.192,0.303,0.274c0.1,0.081,0.156,0.198,0.17,0.35c0,0.139-0.036,0.276-0.104,0.416
					c-0.068,0.139-0.139,0.274-0.208,0.406c-0.068,0.132-0.12,0.262-0.151,0.388c-0.031,0.125,0.004,0.252,0.105,0.378
					c-0.228,0.126-0.379,0.28-0.454,0.464c-0.075,0.182-0.113,0.393-0.113,0.633c0,0.163,0.005,0.381,0.019,0.651
					c0.012,0.271-0.014,0.477-0.076,0.614c-0.075,0.151-0.154,0.303-0.236,0.454c-0.081,0.151-0.16,0.303-0.236,0.454
					c-0.15,0.315-0.286,0.633-0.406,0.955c-0.119,0.321-0.243,0.646-0.368,0.974c-0.026,0.087-0.054,0.17-0.087,0.245
					c-0.03,0.076-0.058,0.158-0.083,0.246c-0.189-0.037-0.322-0.025-0.397,0.038c-0.076,0.063-0.14,0.135-0.189,0.217
					s-0.113,0.164-0.188,0.246c-0.076,0.082-0.216,0.123-0.416,0.123v0.057c-0.05,0.29-0.201,0.548-0.454,0.774
					s-0.541,0.444-0.87,0.652c-0.328,0.208-0.654,0.41-0.983,0.605c-0.326,0.195-0.591,0.394-0.794,0.596h-0.019
					c-0.227-0.025-0.439,0.031-0.643,0.17c-0.201,0.138-0.402,0.267-0.605,0.388c-0.201,0.119-0.418,0.195-0.651,0.227
					s-0.487-0.066-0.765-0.293v-0.019c-0.063,0.012-0.109,0.019-0.133,0.019c-0.025,0-0.045,0.003-0.057,0.01
					c-0.014,0.006-0.029,0.019-0.048,0.037c-0.019,0.02-0.054,0.054-0.104,0.104v-0.019c-0.214-0.127-0.396-0.281-0.548-0.464
					s-0.26-0.394-0.322-0.634c0.024-0.024,0.055-0.053,0.084-0.085c0.033-0.031,0.061-0.06,0.087-0.085
					c-0.177-0.101-0.299-0.242-0.37-0.425c-0.068-0.183-0.113-0.381-0.133-0.596c-0.019-0.214-0.029-0.426-0.037-0.633
					c-0.005-0.208-0.039-0.388-0.103-0.539c0.188-0.025,0.344-0.11,0.462-0.255c0.12-0.146,0.242-0.274,0.37-0.388
					c-0.026-0.025-0.049-0.089-0.067-0.189c-0.019-0.102-0.027-0.164-0.027-0.188c-0.015-0.24,0.019-0.473,0.095-0.7
					c0.075-0.227,0.17-0.444,0.283-0.652s0.227-0.415,0.34-0.624c0.114-0.207,0.208-0.425,0.284-0.652
					c0.265-0.214,0.469-0.437,0.613-0.671c0.145-0.232,0.287-0.5,0.425-0.803c0.038-0.089,0.093-0.202,0.161-0.34
					c0.068-0.14,0.148-0.278,0.236-0.416c0.089-0.14,0.184-0.263,0.283-0.369c0.102-0.107,0.203-0.18,0.303-0.218
					c-0.013-0.025-0.019-0.082-0.019-0.17c0-0.215,0.073-0.395,0.218-0.539s0.287-0.287,0.424-0.425
					c0.141-0.139,0.245-0.29,0.313-0.454s0.027-0.378-0.123-0.643c0.354-0.315,0.638-0.665,0.851-1.05
					c0.215-0.384,0.407-0.771,0.577-1.162s0.346-0.775,0.529-1.153c0.183-0.378,0.425-0.718,0.728-1.021l0.037-0.038
					c-0.049-0.239-0.109-0.413-0.178-0.521c-0.071-0.106-0.158-0.176-0.266-0.207s-0.227-0.051-0.359-0.057
					c-0.132-0.007-0.278-0.025-0.435-0.058c-0.158-0.03-0.331-0.101-0.521-0.208c-0.189-0.106-0.391-0.279-0.605-0.52
					c-0.176-0.101-0.299-0.198-0.367-0.293c-0.069-0.095-0.126-0.191-0.171-0.293c-0.044-0.101-0.086-0.205-0.124-0.312
					c-0.037-0.107-0.106-0.23-0.207-0.368c0.227-0.14,0.331-0.293,0.313-0.464c-0.02-0.17-0.076-0.334-0.17-0.491
					c-0.095-0.157-0.186-0.307-0.275-0.444c-0.088-0.139-0.1-0.246-0.038-0.321c0.052-0.113,0.146-0.189,0.284-0.228
					c0.139-0.037,0.26-0.075,0.359-0.113c-0.024-0.113-0.016-0.22,0.029-0.321c0.045-0.101,0.105-0.191,0.188-0.274
					c0.082-0.081,0.174-0.151,0.273-0.208c0.102-0.057,0.203-0.104,0.303-0.142c0.113,0.026,0.204,0.026,0.274,0
					c0.069-0.024,0.133-0.057,0.189-0.095c0.057-0.037,0.1-0.078,0.133-0.123c0.03-0.043,0.064-0.072,0.103-0.085l-0.019-0.151
					c0.215-0.063,0.404-0.047,0.567,0.048s0.321,0.205,0.473,0.331c0.177,0.139,0.333,0.249,0.473,0.331s0.321,0.104,0.548,0.065
					h0.019c0.064,0.063,0.13,0.117,0.198,0.161c0.07,0.045,0.136,0.092,0.199,0.142c0.063-0.038,0.113-0.078,0.151-0.123
					c0.038-0.044,0.102-0.047,0.189-0.01l-0.151,0.151l0.794,0.624l0.473-0.643l-0.095-0.019l-0.132-0.133
					c0-0.101,0.034-0.183,0.103-0.246c0.07-0.063,0.105-0.144,0.105-0.245c-0.026-0.05-0.052-0.082-0.076-0.095l0.038-0.038
					c0.265,0.025,0.425-0.012,0.481-0.113c0.057-0.101,0.088-0.22,0.095-0.359c0.007-0.138,0.028-0.286,0.067-0.444
					c0.037-0.157,0.175-0.28,0.416-0.368c-0.203-0.189-0.284-0.328-0.246-0.416c0.037-0.088,0.115-0.16,0.235-0.217
					s0.249-0.123,0.388-0.199c0.138-0.075,0.209-0.195,0.209-0.358c0-0.063-0.008-0.117-0.02-0.161
					c-0.014-0.045-0.019-0.098-0.019-0.16c0-0.278,0.072-0.53,0.217-0.757c0.144-0.227,0.302-0.447,0.472-0.662
					c0.17-0.214,0.322-0.438,0.454-0.671s0.181-0.494,0.143-0.784c0-0.038-0.014-0.095-0.037-0.171
					c0.112-0.276,0.251-0.541,0.416-0.794c0.163-0.252,0.319-0.503,0.471-0.756c0.151-0.252,0.294-0.51,0.426-0.774
					c0.133-0.265,0.23-0.543,0.293-0.832c0.051-0.013,0.113-0.025,0.188-0.038c0.076-0.013,0.128-0.057,0.151-0.132
					c-0.013-0.063-0.019-0.12-0.019-0.171c0-0.05-0.005-0.101-0.02-0.151h0.02c0.101,0.013,0.17,0.004,0.208-0.028
					c0.037-0.03,0.089-0.078,0.151-0.142c0.025-0.024,0.053-0.05,0.086-0.075c0.031-0.025,0.053-0.057,0.065-0.095
					c0.025-0.403,0.139-0.721,0.34-0.955c0.202-0.232,0.435-0.482,0.699-0.747c0.605-0.176,1.097-0.116,1.476,0.18
					C244.31,217.722,244.605,218.134,244.82,218.663z M235.708,239.762c-0.025-0.089-0.034-0.18-0.029-0.274
					c0.007-0.095,0.054-0.161,0.143-0.199c-0.102-0.088-0.165-0.17-0.188-0.245c-0.026-0.076-0.039-0.151-0.039-0.228
					c0-0.075,0-0.147,0-0.217s-0.018-0.154-0.056-0.256c0.05-0.238,0.071-0.479,0.065-0.717c-0.006-0.24-0.024-0.477-0.057-0.709
					c-0.031-0.234-0.065-0.471-0.104-0.71s-0.057-0.479-0.057-0.718c-0.201-0.076-0.328-0.092-0.379-0.048
					c-0.05,0.044-0.078,0.106-0.086,0.189c-0.004,0.082-0.023,0.16-0.057,0.236c-0.03,0.076-0.133,0.113-0.311,0.113v0.075
					c0.063,0.114,0.05,0.233-0.038,0.359c-0.087,0.126-0.196,0.259-0.321,0.397s-0.246,0.28-0.359,0.426
					c-0.113,0.144-0.17,0.299-0.17,0.463c-0.189,0.126-0.318,0.28-0.387,0.462c-0.07,0.184-0.127,0.366-0.17,0.549
					c-0.045,0.183-0.108,0.354-0.189,0.511c-0.082,0.157-0.23,0.274-0.445,0.35c-0.025,0.024-0.037,0.044-0.037,0.057
					c-0.064,0.202-0.126,0.372-0.189,0.511c-0.064,0.139-0.126,0.271-0.189,0.396s-0.139,0.252-0.227,0.379
					c-0.088,0.125-0.194,0.271-0.322,0.435c-0.25,0.327-0.462,0.646-0.632,0.955c-0.17,0.309-0.275,0.671-0.313,1.086
					c-0.315,0.051-0.531,0.17-0.651,0.359c-0.121,0.189-0.205,0.404-0.257,0.643c-0.05,0.24-0.097,0.482-0.141,0.729
					s-0.143,0.457-0.294,0.633h-0.019c-0.176,0.266-0.358,0.532-0.547,0.804c-0.188,0.271-0.359,0.549-0.511,0.832
					s-0.275,0.577-0.369,0.879c-0.095,0.303-0.142,0.624-0.142,0.964c0.151,0.177,0.327,0.306,0.53,0.388
					c0.2,0.082,0.401,0.168,0.604,0.255l0.019-0.019c0.251-0.038,0.47-0.104,0.652-0.198c0.182-0.095,0.352-0.199,0.51-0.313
					s0.314-0.236,0.473-0.368c0.158-0.133,0.338-0.256,0.538-0.368c0.265,0.012,0.495-0.017,0.691-0.085
					c0.194-0.07,0.371-0.17,0.529-0.303c0.156-0.133,0.299-0.287,0.425-0.463c0.125-0.178,0.252-0.366,0.378-0.567
					c0.113-0.215,0.265-0.448,0.454-0.699c0.188-0.253,0.39-0.436,0.604-0.549c0.012,0,0.022-0.004,0.029-0.01
					c0.005-0.007,0.016-0.009,0.027-0.009c-0.037-0.051-0.075-0.13-0.113-0.236c-0.038-0.108-0.057-0.192-0.057-0.256
					c-0.012-0.303,0.067-0.562,0.237-0.775s0.337-0.422,0.5-0.624c0.163-0.201,0.277-0.412,0.34-0.633
					c0.064-0.221-0.012-0.488-0.227-0.803c0.227-0.164,0.371-0.357,0.436-0.577c0.063-0.221,0.106-0.447,0.132-0.681
					s0.061-0.467,0.104-0.699c0.045-0.233,0.173-0.457,0.388-0.671l0.058-0.058L235.708,239.762z M234.631,231.765
					c-0.126-0.126-0.201-0.259-0.228-0.396c-0.026-0.139-0.045-0.271-0.058-0.397c-0.011-0.126-0.04-0.242-0.084-0.35
					s-0.148-0.192-0.313-0.256l-0.019-0.019c-0.088,0.038-0.197,0.063-0.33,0.076c-0.133,0.013-0.271,0.009-0.416-0.01
					c-0.146-0.019-0.283-0.048-0.416-0.085c-0.132-0.038-0.237-0.082-0.313-0.133l-0.019,0.02c-0.329,0.214-0.539,0.463-0.633,0.746
					c-0.095,0.284-0.117,0.615-0.067,0.993c0,0.024,0.003,0.057,0.011,0.095c0.005,0.037,0.016,0.088,0.027,0.151
					c0.012,0.063,0.025,0.132,0.037,0.207c0.189,0.202,0.367,0.302,0.529,0.302c0.164,0,0.322-0.047,0.474-0.142
					c0.151-0.094,0.302-0.207,0.453-0.339c0.151-0.133,0.31-0.23,0.473-0.293h0.02C234.113,232.149,234.403,232.093,234.631,231.765
					z M243.686,220.309c-0.064-0.038-0.107-0.127-0.133-0.265c-0.025-0.139-0.057-0.29-0.095-0.454
					c-0.037-0.163-0.091-0.309-0.159-0.435c-0.07-0.126-0.174-0.201-0.313-0.228l-0.038,0.038c-0.178,0.215-0.348,0.457-0.511,0.729
					c-0.163,0.271-0.324,0.552-0.481,0.841c-0.157,0.29-0.31,0.579-0.454,0.87c-0.146,0.29-0.275,0.554-0.388,0.793
					c-0.024,0.063-0.095,0.202-0.208,0.416c-0.114,0.215-0.232,0.444-0.359,0.69c-0.126,0.246-0.246,0.467-0.359,0.661
					c-0.113,0.196-0.176,0.301-0.189,0.313v0.019c-0.037,0.24-0.096,0.492-0.178,0.757c-0.083,0.265-0.183,0.523-0.303,0.774
					c-0.121,0.253-0.255,0.489-0.406,0.71c-0.151,0.22-0.321,0.406-0.511,0.558c-0.014,0.012-0.022,0.019-0.029,0.019
					s-0.016,0.006-0.027,0.019l0.038,0.038c0.201,0.277,0.27,0.501,0.208,0.671c-0.063,0.17-0.169,0.325-0.313,0.463
					c-0.144,0.14-0.292,0.291-0.443,0.454c-0.15,0.164-0.215,0.378-0.188,0.643c0,0.14,0.038,0.271,0.113,0.397h0.341
					c0.175-0.164,0.317-0.356,0.424-0.577c0.107-0.22,0.224-0.425,0.351-0.614c0.126-0.189,0.277-0.35,0.454-0.482
					c0.176-0.133,0.422-0.198,0.736-0.198l-0.038-0.321c0.403-0.403,0.731-0.863,0.982-1.38c0.253-0.517,0.397-1.059,0.435-1.626
					c0.203-0.075,0.338-0.18,0.408-0.312c0.068-0.133,0.118-0.28,0.151-0.444c0.031-0.164,0.075-0.328,0.132-0.492
					c0.057-0.163,0.172-0.314,0.35-0.454l0.037-0.037c0-0.063-0.006-0.123-0.019-0.18c-0.012-0.057-0.019-0.116-0.019-0.18
					c0-0.214,0.034-0.416,0.104-0.604c0.069-0.188,0.157-0.368,0.265-0.539c0.106-0.17,0.217-0.34,0.33-0.51
					S243.598,220.498,243.686,220.309z"/>
				<path fill="#FFFFFF" d="M259.676,229.307c0.051,0.189,0.031,0.35-0.057,0.482c-0.089,0.133-0.206,0.249-0.35,0.35
					c-0.145,0.101-0.303,0.192-0.473,0.274c-0.171,0.081-0.312,0.174-0.425,0.274c-0.567,0.126-1.082,0.217-1.542,0.273
					c-0.459,0.058-0.966,0.129-1.521,0.218c-0.163,0.025-0.318,0.022-0.463-0.01c-0.146-0.031-0.293-0.041-0.444-0.028
					c-0.088,0-0.17-0.003-0.246-0.009c-0.075-0.007-0.151-0.004-0.228,0.009c-0.29,0.025-0.479,0.123-0.566,0.293
					c-0.088,0.171-0.16,0.365-0.217,0.587c-0.057,0.22-0.127,0.428-0.208,0.623c-0.083,0.196-0.256,0.331-0.521,0.406
					c-0.026,0.063-0.016,0.12,0.029,0.17c0.043,0.051,0.077,0.095,0.103,0.133c-0.215,0.063-0.356,0.177-0.425,0.34
					c-0.07,0.165-0.131,0.328-0.18,0.492c-0.051,0.164-0.122,0.302-0.217,0.416c-0.095,0.113-0.275,0.151-0.54,0.113
					c-0.39,0.416-0.851,0.753-1.38,1.012c-0.527,0.258-1.076,0.425-1.644,0.501c-0.102-0.051-0.199-0.113-0.294-0.189
					c-0.095-0.075-0.189-0.145-0.283-0.208c-0.095-0.063-0.196-0.11-0.303-0.142s-0.23-0.035-0.368-0.01
					c-0.012-0.265-0.067-0.511-0.161-0.737c-0.095-0.227-0.217-0.44-0.368-0.643c-0.026-0.227,0.003-0.438,0.084-0.634
					c0.083-0.195,0.169-0.388,0.257-0.576c0.088-0.189,0.16-0.381,0.216-0.576c0.058-0.196,0.048-0.419-0.027-0.671
					c0.126-0.076,0.21-0.164,0.255-0.265c0.045-0.102,0.075-0.205,0.094-0.313c0.02-0.107,0.049-0.208,0.087-0.303
					c0.038-0.094,0.125-0.173,0.265-0.236c-0.102-0.302-0.086-0.525,0.046-0.671c0.132-0.145,0.294-0.274,0.483-0.388
					s0.364-0.238,0.529-0.378c0.163-0.139,0.227-0.347,0.189-0.624c0.075-0.076,0.163-0.139,0.264-0.189
					c0.1-0.05,0.198-0.097,0.293-0.142c0.095-0.044,0.186-0.091,0.273-0.142c0.089-0.05,0.17-0.119,0.245-0.208
					c-0.087-0.063-0.129-0.126-0.122-0.189c0.008-0.063,0.022-0.129,0.047-0.198c0.025-0.068,0.055-0.142,0.086-0.218
					c0.031-0.075,0.027-0.15-0.011-0.226c0.341,0.05,0.642,0.003,0.899-0.142c0.258-0.146,0.504-0.294,0.737-0.444
					c0.231-0.151,0.469-0.259,0.708-0.322s0.518,0.013,0.832,0.228c0.025,0.088,0.067,0.218,0.124,0.388s0.113,0.343,0.17,0.519
					c0.057,0.178,0.11,0.348,0.16,0.511c0.05,0.164,0.083,0.284,0.095,0.359c0,0.063,0,0.164,0,0.303c0,0.14,0,0.287,0,0.444
					c0,0.158,0,0.306,0,0.444s0,0.246,0,0.321c0.365,0.215,0.73,0.344,1.096,0.388c0.366,0.045,0.731-0.041,1.098-0.256
					c0.139,0.127,0.271,0.161,0.396,0.104s0.249-0.123,0.368-0.198c0.12-0.076,0.242-0.116,0.369-0.123
					c0.126-0.006,0.251,0.098,0.378,0.312c0.176-0.163,0.36-0.267,0.549-0.312c0.189-0.044,0.384-0.069,0.586-0.076
					c0.201-0.006,0.399-0.021,0.595-0.047C259.295,229.527,259.487,229.446,259.676,229.307z M252.283,231.141
					c-0.252,0-0.469-0.06-0.651-0.18c-0.184-0.119-0.366-0.255-0.548-0.406c-0.185-0.151-0.372-0.293-0.567-0.426
					c-0.196-0.132-0.432-0.21-0.71-0.236c-0.113,0.151-0.244,0.294-0.396,0.426c-0.151,0.133-0.284,0.274-0.397,0.426
					s-0.192,0.315-0.237,0.491c-0.044,0.177-0.016,0.378,0.087,0.605c-0.291,0.138-0.487,0.337-0.587,0.596
					c-0.102,0.258-0.169,0.538-0.199,0.84c-0.03,0.303-0.06,0.605-0.084,0.908c-0.026,0.302-0.108,0.574-0.246,0.813l0.416-0.283
					c0.05,0.025,0.091,0.063,0.122,0.113c0.031,0.051,0.034,0.107,0.01,0.17c0.1-0.101,0.214-0.18,0.341-0.236
					c0.125-0.057,0.255-0.101,0.387-0.132c0.133-0.031,0.265-0.06,0.397-0.085c0.132-0.025,0.262-0.063,0.387-0.114
					c0.316,0.178,0.543,0.215,0.681,0.114c0.139-0.101,0.252-0.252,0.34-0.454c0.09-0.201,0.184-0.412,0.284-0.634
					c0.102-0.22,0.265-0.355,0.491-0.406l-0.132-0.132c0.215-0.266,0.406-0.538,0.577-0.822
					C252.219,231.813,252.295,231.493,252.283,231.141z M252.416,229.628c0-0.188,0.031-0.39,0.094-0.604
					c0.064-0.214,0.114-0.426,0.152-0.634c0.037-0.208,0.034-0.406-0.009-0.596c-0.046-0.188-0.169-0.359-0.37-0.51
					c-0.139,0.075-0.252,0.18-0.34,0.312c-0.088,0.133-0.176,0.265-0.266,0.396c-0.088,0.133-0.191,0.244-0.311,0.331
					c-0.12,0.089-0.275,0.114-0.464,0.076c-0.062,0.151-0.062,0.274,0,0.369c0.063,0.094,0.139,0.183,0.227,0.265
					c0.09,0.082,0.174,0.167,0.257,0.255c0.08,0.089,0.109,0.202,0.084,0.34c0.052,0.038,0.119,0.073,0.207,0.104
					c0.09,0.031,0.181,0.051,0.275,0.057c0.095,0.007,0.186-0.003,0.273-0.028S252.378,229.691,252.416,229.628z"/>
				<path fill="#FFFFFF" d="M274.701,231.5c-0.291,0.139-0.484,0.309-0.586,0.511c-0.102,0.201-0.179,0.409-0.236,0.623
					c-0.056,0.215-0.126,0.42-0.207,0.614c-0.083,0.196-0.256,0.357-0.521,0.482c-0.064,0.227-0.187,0.385-0.368,0.473
					c-0.184,0.089-0.377,0.168-0.578,0.236c-0.201,0.07-0.381,0.161-0.538,0.274c-0.158,0.113-0.236,0.31-0.236,0.586
					c-0.251,0.139-0.526,0.265-0.822,0.378s-0.604,0.199-0.926,0.256c-0.322,0.057-0.64,0.078-0.955,0.065s-0.611-0.075-0.888-0.188
					c-0.189-0.089-0.373-0.202-0.549-0.341c-0.063-0.051-0.124-0.092-0.181-0.122c-0.057-0.032-0.116-0.079-0.179-0.143
					c-0.15-0.15-0.278-0.327-0.378-0.529c-0.102-0.201-0.185-0.416-0.245-0.643c-0.064-0.227-0.114-0.454-0.152-0.681
					c-0.037-0.228-0.07-0.441-0.094-0.644l0.699-1.89c-0.366-0.289-0.662-0.626-0.889-1.012c-0.227-0.384-0.506-0.739-0.832-1.068
					c-0.063,0.089-0.145,0.165-0.246,0.228c-0.102,0.063-0.139,0.164-0.113,0.303l0.189,0.17c-0.416,0.453-0.836,0.968-1.257,1.541
					c-0.423,0.573-0.755,1.149-0.993,1.729c-0.277-0.012-0.473,0.055-0.586,0.199c-0.114,0.146-0.209,0.31-0.284,0.491
					c-0.075,0.184-0.17,0.35-0.284,0.501c-0.112,0.151-0.302,0.215-0.566,0.189c-0.063,0.14-0.126,0.287-0.189,0.444
					c-0.062,0.158-0.138,0.306-0.227,0.444c-0.088,0.139-0.194,0.255-0.322,0.35c-0.125,0.095-0.283,0.142-0.472,0.142
					c-0.101-0.101-0.157-0.208-0.171-0.321c-0.012-0.113,0-0.229,0.038-0.35c0.038-0.119,0.09-0.239,0.151-0.359
					c0.063-0.119,0.108-0.236,0.133-0.35c0.101-0.365,0.283-0.696,0.548-0.992s0.529-0.593,0.794-0.889s0.492-0.608,0.681-0.936
					c0.189-0.327,0.265-0.713,0.228-1.153c0.163-0.013,0.331-0.048,0.502-0.104c0.17-0.057,0.326-0.132,0.473-0.227
					c0.144-0.095,0.258-0.214,0.34-0.359c0.081-0.145,0.11-0.318,0.084-0.52c-0.102-0.05-0.157-0.123-0.17-0.218
					c-0.012-0.095-0.012-0.191,0-0.293c0.277-0.088,0.502-0.242,0.67-0.463c0.171-0.221,0.325-0.457,0.465-0.709
					c0.139-0.253,0.273-0.508,0.405-0.766c0.133-0.259,0.306-0.481,0.521-0.671c0.175,0.101,0.353,0.186,0.528,0.255
					s0.346,0.161,0.512,0.274c-0.113,0.151-0.185,0.296-0.208,0.435c-0.026,0.139-0.038,0.28-0.038,0.426c0,0.145,0,0.286,0,0.425
					s-0.038,0.283-0.113,0.435c0.201,0.177,0.371,0.385,0.51,0.624c0.138,0.24,0.314,0.442,0.529,0.605
					c0.152-0.114,0.322-0.173,0.512-0.18c0.188-0.006,0.379-0.006,0.575,0c0.196,0.007,0.382-0.006,0.559-0.038
					c0.175-0.031,0.321-0.135,0.435-0.313c0.051,0.051,0.125,0.076,0.226,0.076c0.102,0,0.202,0,0.302,0
					c0.102,0,0.189,0.017,0.266,0.047c0.075,0.032,0.119,0.093,0.132,0.18c0.014,0.102,0.011,0.171-0.008,0.208
					c-0.02,0.038-0.042,0.102-0.067,0.189c-0.024,0.102-0.031,0.151-0.02,0.151c0.015,0,0,0.044-0.037,0.132
					c-0.063,0.164-0.167,0.303-0.312,0.416c-0.144,0.114-0.29,0.224-0.435,0.331s-0.277,0.227-0.397,0.359
					c-0.12,0.132-0.179,0.299-0.179,0.501c-0.278,0.101-0.473,0.248-0.586,0.444c-0.113,0.195-0.189,0.416-0.227,0.662
					c-0.038,0.245-0.064,0.497-0.076,0.755c-0.014,0.259-0.057,0.495-0.132,0.709l0.17,0.189l0.151-0.189
					c0.176,0.253,0.387,0.41,0.633,0.473c0.245,0.063,0.501,0.083,0.765,0.057c0.127-0.188,0.274-0.34,0.444-0.453
					c0.171-0.113,0.354-0.208,0.549-0.284c0.194-0.075,0.396-0.144,0.605-0.208c0.207-0.063,0.405-0.138,0.595-0.227
					c0.151-0.075,0.28-0.157,0.389-0.246c0.106-0.087,0.223-0.188,0.349-0.303c0.378-0.352,0.753-0.698,1.126-1.039
					c0.371-0.34,0.745-0.687,1.124-1.039c0.075,0,0.125,0.037,0.151,0.113c0.025,0.075,0.038,0.16,0.038,0.255
					s-0.004,0.189-0.011,0.284C274.705,231.377,274.701,231.449,274.701,231.5z"/>
				<path fill="#FFFFFF" d="M298.498,231.954c-0.113,0.101-0.269,0.229-0.463,0.388c-0.195,0.157-0.324,0.299-0.389,0.425
					c-0.075,0.126-0.134,0.239-0.178,0.34c-0.045,0.102-0.096,0.187-0.152,0.255c-0.057,0.07-0.132,0.123-0.227,0.161
					c-0.094,0.038-0.224,0.057-0.389,0.057c0,0.038-0.064,0.117-0.197,0.236c-0.133,0.12-0.273,0.246-0.425,0.378
					c-0.151,0.133-0.29,0.259-0.416,0.379c-0.127,0.12-0.188,0.198-0.188,0.236l-0.171-0.095c-0.025-0.012-0.098-0.01-0.218,0.01
					c-0.12,0.019-0.258,0.057-0.416,0.113s-0.312,0.136-0.463,0.236c-0.151,0.102-0.271,0.232-0.359,0.396l-0.075-0.019
					c-0.188-0.051-0.382-0.061-0.577-0.028c-0.194,0.031-0.387,0.047-0.576,0.047c-0.404,0.025-0.699-0.035-0.889-0.18
					c-0.189-0.144-0.391-0.418-0.605-0.822c-0.05-0.087-0.094-0.182-0.132-0.283c-0.038-0.101-0.069-0.201-0.095-0.303v-0.075
					c0.177-0.101,0.271-0.236,0.284-0.407c0.011-0.17,0.007-0.35-0.02-0.539c-0.025-0.188-0.041-0.371-0.048-0.547
					c-0.006-0.177,0.06-0.321,0.199-0.435c-0.076-0.202-0.066-0.395,0.027-0.577c0.095-0.183,0.188-0.355,0.275-0.521
					c0.088-0.164,0.132-0.321,0.132-0.473c0-0.15-0.14-0.309-0.415-0.472c-0.291,0.113-0.564,0.255-0.822,0.425
					c-0.26,0.17-0.518,0.347-0.775,0.529c-0.259,0.184-0.518,0.363-0.775,0.539c-0.26,0.176-0.533,0.321-0.822,0.435
					c-0.266,0.29-0.543,0.539-0.833,0.747c-0.288,0.207-0.568,0.425-0.84,0.651c-0.272,0.228-0.518,0.482-0.737,0.766
					c-0.221,0.284-0.388,0.634-0.5,1.05c-0.064-0.076-0.128-0.126-0.189-0.151c-0.064-0.025-0.146-0.05-0.246-0.075
					c-0.139-0.038-0.24-0.079-0.303-0.123c-0.063-0.044-0.146-0.11-0.246-0.199l0.02-0.037c0.113-0.328,0.245-0.662,0.396-1.002
					c0.152-0.341,0.228-0.682,0.228-1.021c0-0.126-0.015-0.243-0.038-0.35c-0.025-0.107-0.037-0.225-0.037-0.351
					c0-0.227,0.037-0.435,0.112-0.623c0.076-0.189,0.16-0.365,0.255-0.529c0.095-0.165,0.183-0.324,0.265-0.482
					c0.082-0.157,0.124-0.324,0.124-0.501c0-0.139-0.033-0.277-0.095-0.416c-0.063-0.139-0.146-0.258-0.245-0.359
					c-0.189-0.013-0.367,0.01-0.53,0.065c-0.165,0.058-0.328,0.124-0.491,0.199c-0.165,0.075-0.336,0.142-0.511,0.198
					c-0.177,0.057-0.366,0.079-0.567,0.066c-0.265,0.265-0.536,0.526-0.813,0.784c-0.279,0.259-0.555,0.515-0.832,0.767
					c-0.58,0.517-1.146,1.052-1.691,1.606c-0.549,0.555-0.987,1.185-1.315,1.891c-0.063,0.139-0.117,0.281-0.159,0.425
					c-0.045,0.146-0.099,0.287-0.162,0.426c0,0.025-0.012,0.051-0.038,0.075h-0.095c-0.139,0-0.23,0.038-0.273,0.113
					c-0.044,0.076-0.075,0.161-0.094,0.256s-0.041,0.186-0.067,0.274c-0.023,0.087-0.081,0.144-0.17,0.17
					c-0.1,0.024-0.198,0.006-0.292-0.057c-0.095-0.063-0.174-0.126-0.237-0.189l-0.02-0.019c-0.125-0.202-0.194-0.41-0.208-0.624
					c-0.012-0.214,0.011-0.426,0.067-0.634s0.14-0.412,0.245-0.614c0.107-0.201,0.212-0.39,0.312-0.567
					c0.151-0.265,0.295-0.539,0.427-0.821c0.133-0.284,0.197-0.584,0.197-0.898c0-0.14-0.016-0.262-0.046-0.368
					c-0.033-0.107-0.061-0.218-0.087-0.331l0.416-0.284c-0.063-0.088-0.098-0.166-0.103-0.236c-0.007-0.069-0.007-0.136,0-0.198
					c0.005-0.063,0.013-0.123,0.019-0.18s-0.003-0.116-0.028-0.18v-0.057l0.151-0.17c-0.026-0.416-0.039-0.807-0.039-1.173
					c0-0.365-0.075-0.749-0.227-1.153c0.178-0.163,0.348-0.204,0.511-0.122s0.328,0.173,0.491,0.273v0.02l0.02,0.019
					c0.102,0.151,0.189,0.334,0.265,0.548c0.075,0.215,0.136,0.438,0.181,0.672c0.043,0.233,0.077,0.463,0.104,0.689
					c0.025,0.228,0.037,0.43,0.037,0.605c0,0.051-0.004,0.098-0.008,0.142c-0.008,0.045-0.011,0.091-0.011,0.142l-0.113,0.114
					c0.063,0.063,0.132,0.126,0.208,0.188c0.075,0.063,0.158,0.089,0.246,0.076c0.075-0.228,0.195-0.375,0.358-0.444
					s0.33-0.123,0.5-0.161c0.171-0.038,0.321-0.091,0.454-0.16s0.199-0.218,0.199-0.445c0-0.049-0.007-0.087-0.019-0.112
					l0.038-0.038c0.352-0.353,0.715-0.672,1.086-0.955c0.371-0.284,0.764-0.494,1.173-0.634c0.409-0.138,0.839-0.194,1.285-0.17
					c0.447,0.025,0.93,0.164,1.446,0.416l0.037,0.019l0.208,0.775l-0.132,0.133c0.127,0.177,0.173,0.381,0.143,0.614
					c-0.031,0.233-0.086,0.463-0.162,0.69c-0.075,0.227-0.145,0.438-0.208,0.633c-0.062,0.195-0.057,0.337,0.019,0.426
					c0.064,0.089,0.181,0.126,0.352,0.113c0.17-0.013,0.305-0.024,0.405-0.038c0.102-0.138,0.242-0.259,0.427-0.358
					c0.182-0.101,0.364-0.195,0.548-0.284c0.183-0.089,0.343-0.18,0.481-0.274c0.139-0.094,0.215-0.198,0.227-0.312
					c0.201,0.038,0.366,0.028,0.492-0.028c0.125-0.057,0.227-0.142,0.303-0.255c0.075-0.114,0.144-0.237,0.207-0.369
					c0.063-0.133,0.137-0.258,0.219-0.378c0.08-0.12,0.186-0.211,0.311-0.274c0.126-0.063,0.296-0.082,0.511-0.057
					c0.29-0.29,0.633-0.501,1.03-0.634c0.396-0.133,0.797-0.204,1.201-0.218c0.289-0.012,0.491,0.073,0.605,0.256
					c0.113,0.183,0.17,0.4,0.17,0.652c0,0.328-0.076,0.643-0.227,0.945c-0.152,0.303-0.322,0.611-0.512,0.927
					c-0.188,0.315-0.358,0.643-0.51,0.982c-0.151,0.341-0.227,0.719-0.227,1.134c0,0.038,0,0.104,0,0.199s0.005,0.188,0.019,0.283
					c0.012,0.095,0.027,0.183,0.046,0.265c0.02,0.083,0.049,0.136,0.086,0.161c0.051,0.025,0.095,0.044,0.133,0.057l-0.095,0.075
					c0.289,0.038,0.548,0.092,0.775,0.161c0.227,0.069,0.473,0.047,0.737-0.066c0.076-0.024,0.153-0.044,0.235-0.057
					c0.083-0.012,0.162-0.031,0.237-0.057c0.113-0.012,0.182-0.06,0.208-0.142c0.024-0.082,0.072-0.164,0.141-0.246
					c0.069-0.082,0.183-0.157,0.341-0.227s0.42-0.104,0.785-0.104v-0.303c0.251-0.075,0.466-0.173,0.642-0.292
					c0.177-0.12,0.351-0.23,0.521-0.331s0.359-0.177,0.567-0.227C297.922,231.903,298.184,231.903,298.498,231.954z"/>
				<path fill="#FFFFFF" d="M325.204,218.663c-0.014,0.48-0.057,0.946-0.132,1.399c-0.076,0.454-0.222,0.889-0.436,1.305l0.02,0.019
					c0.137,0.215,0.201,0.426,0.189,0.633c-0.015,0.208-0.061,0.416-0.144,0.624c-0.082,0.208-0.177,0.416-0.283,0.624
					s-0.179,0.413-0.217,0.614c-0.241,0.102-0.378,0.236-0.416,0.407c-0.037,0.17-0.061,0.347-0.067,0.529
					c-0.006,0.183-0.041,0.359-0.103,0.529c-0.063,0.17-0.233,0.299-0.511,0.388l-0.113,0.038c0.213,0.214,0.311,0.399,0.292,0.558
					c-0.019,0.157-0.095,0.302-0.227,0.435c-0.133,0.132-0.292,0.258-0.481,0.378c-0.189,0.119-0.347,0.243-0.473,0.368
					c0.037,0.025,0.076,0.054,0.113,0.085c0.038,0.032,0.068,0.061,0.095,0.085c-0.14,0.126-0.287,0.249-0.445,0.369
					c-0.156,0.12-0.306,0.246-0.443,0.378c-0.14,0.133-0.258,0.277-0.359,0.435c-0.101,0.158-0.158,0.344-0.171,0.558
					c-0.049,0.064-0.116,0.107-0.198,0.133c-0.081,0.025-0.163,0.047-0.246,0.066c-0.081,0.019-0.157,0.045-0.228,0.075
					c-0.068,0.032-0.121,0.085-0.159,0.161l-0.02,0.019c0,0.089,0.013,0.196,0.038,0.321c-0.238,0.026-0.446,0.085-0.624,0.18
					c-0.177,0.095-0.337,0.212-0.481,0.35c-0.146,0.139-0.29,0.29-0.435,0.454c-0.146,0.164-0.301,0.314-0.464,0.454h-0.02v-0.038
					c-0.025-0.025-0.05-0.045-0.075-0.057c-0.025-0.013-0.05-0.032-0.076-0.057c-0.063-0.013-0.157,0.024-0.283,0.113
					c-0.126,0.088-0.208,0.157-0.245,0.208c-0.063,0.139-0.148,0.274-0.255,0.406c-0.108,0.133-0.196,0.265-0.265,0.396
					c-0.07,0.133-0.102,0.274-0.095,0.426c0.005,0.151,0.098,0.315,0.273,0.491c-0.088,0.177-0.11,0.366-0.065,0.567
					c0.043,0.202,0.095,0.395,0.151,0.576c0.057,0.184,0.097,0.354,0.122,0.511s-0.025,0.286-0.151,0.388
					c0.012,0.101,0.029,0.191,0.048,0.274c0.02,0.081,0.084,0.147,0.198,0.198h0.188c-0.025,0.214-0.034,0.485-0.027,0.813
					c0.006,0.327,0.002,0.661-0.01,1.002c-0.012,0.34-0.038,0.661-0.076,0.963c-0.037,0.303-0.106,0.536-0.208,0.7
					c0.102,0.101,0.201,0.192,0.303,0.274c0.102,0.081,0.158,0.198,0.171,0.35c0,0.139-0.035,0.276-0.104,0.416
					c-0.07,0.139-0.14,0.274-0.208,0.406c-0.07,0.132-0.12,0.262-0.151,0.388c-0.033,0.125,0.002,0.252,0.104,0.378
					c-0.228,0.126-0.379,0.28-0.454,0.464c-0.076,0.182-0.114,0.393-0.114,0.633c0,0.163,0.007,0.381,0.02,0.651
					c0.014,0.271-0.013,0.477-0.076,0.614c-0.075,0.151-0.154,0.303-0.235,0.454c-0.082,0.151-0.161,0.303-0.237,0.454
					c-0.15,0.315-0.286,0.633-0.405,0.955c-0.12,0.321-0.242,0.646-0.369,0.974c-0.024,0.087-0.054,0.17-0.085,0.245
					c-0.03,0.076-0.06,0.158-0.086,0.246c-0.188-0.037-0.321-0.025-0.396,0.038c-0.076,0.063-0.138,0.135-0.188,0.217
					c-0.052,0.082-0.113,0.164-0.189,0.246s-0.215,0.123-0.416,0.123v0.057c-0.051,0.29-0.202,0.548-0.453,0.774
					c-0.253,0.227-0.544,0.444-0.87,0.652c-0.328,0.208-0.656,0.41-0.983,0.605c-0.328,0.195-0.593,0.394-0.794,0.596h-0.019
					c-0.228-0.025-0.442,0.031-0.644,0.17c-0.201,0.138-0.403,0.267-0.604,0.388c-0.201,0.119-0.42,0.195-0.651,0.227
					c-0.234,0.031-0.49-0.066-0.767-0.293v-0.019c-0.064,0.012-0.106,0.019-0.133,0.019c-0.023,0-0.043,0.003-0.057,0.01
					c-0.012,0.006-0.027,0.019-0.047,0.037c-0.019,0.02-0.053,0.054-0.104,0.104v-0.019c-0.213-0.127-0.396-0.281-0.548-0.464
					c-0.152-0.183-0.258-0.394-0.322-0.634c0.026-0.024,0.054-0.053,0.086-0.085c0.031-0.031,0.061-0.06,0.084-0.085
					c-0.175-0.101-0.299-0.242-0.367-0.425s-0.113-0.381-0.133-0.596c-0.019-0.214-0.03-0.426-0.037-0.633
					c-0.007-0.208-0.041-0.388-0.105-0.539c0.189-0.025,0.344-0.11,0.465-0.255c0.118-0.146,0.242-0.274,0.367-0.388
					c-0.023-0.025-0.046-0.089-0.064-0.189c-0.02-0.102-0.029-0.164-0.029-0.188c-0.012-0.24,0.019-0.473,0.094-0.7
					c0.076-0.227,0.17-0.444,0.284-0.652c0.113-0.208,0.227-0.415,0.34-0.624c0.113-0.207,0.208-0.425,0.284-0.652
					c0.265-0.214,0.469-0.437,0.615-0.671c0.145-0.232,0.285-0.5,0.425-0.803c0.037-0.089,0.091-0.202,0.159-0.34
					c0.07-0.14,0.149-0.278,0.237-0.416c0.088-0.14,0.183-0.263,0.284-0.369c0.102-0.107,0.201-0.18,0.303-0.218
					c-0.013-0.025-0.02-0.082-0.02-0.17c0-0.215,0.072-0.395,0.217-0.539c0.146-0.145,0.287-0.287,0.426-0.425
					c0.14-0.139,0.242-0.29,0.312-0.454c0.07-0.164,0.029-0.378-0.122-0.643c0.353-0.315,0.636-0.665,0.852-1.05
					c0.212-0.384,0.405-0.771,0.575-1.162s0.347-0.775,0.529-1.153s0.426-0.718,0.729-1.021l0.037-0.038
					c-0.052-0.239-0.111-0.413-0.181-0.521c-0.068-0.106-0.158-0.176-0.265-0.207s-0.227-0.051-0.359-0.057
					c-0.132-0.007-0.276-0.025-0.435-0.058c-0.158-0.03-0.33-0.101-0.52-0.208c-0.188-0.106-0.39-0.279-0.604-0.52
					c-0.178-0.101-0.299-0.198-0.369-0.293c-0.069-0.095-0.126-0.191-0.171-0.293c-0.043-0.101-0.084-0.205-0.122-0.312
					c-0.037-0.107-0.106-0.23-0.208-0.368c0.228-0.14,0.33-0.293,0.312-0.464c-0.02-0.17-0.076-0.334-0.171-0.491
					c-0.094-0.157-0.186-0.307-0.272-0.444c-0.088-0.139-0.102-0.246-0.038-0.321c0.05-0.113,0.145-0.189,0.284-0.228
					c0.139-0.037,0.257-0.075,0.358-0.113c-0.025-0.113-0.016-0.22,0.028-0.321c0.044-0.101,0.107-0.191,0.188-0.274
					c0.083-0.081,0.174-0.151,0.275-0.208c0.101-0.057,0.201-0.104,0.302-0.142c0.114,0.026,0.205,0.026,0.273,0
					c0.068-0.024,0.133-0.057,0.189-0.095c0.057-0.037,0.102-0.078,0.133-0.123c0.03-0.043,0.066-0.072,0.104-0.085l-0.019-0.151
					c0.213-0.063,0.401-0.047,0.566,0.048c0.164,0.095,0.322,0.205,0.473,0.331c0.176,0.139,0.334,0.249,0.473,0.331
					c0.138,0.082,0.322,0.104,0.549,0.065h0.02c0.061,0.063,0.128,0.117,0.196,0.161c0.069,0.045,0.136,0.092,0.198,0.142
					c0.063-0.038,0.113-0.078,0.151-0.123c0.038-0.044,0.102-0.047,0.189-0.01l-0.151,0.151l0.794,0.624l0.473-0.643l-0.095-0.019
					l-0.133-0.133c0-0.101,0.035-0.183,0.105-0.246c0.068-0.063,0.104-0.144,0.104-0.245c-0.024-0.05-0.051-0.082-0.076-0.095
					l0.038-0.038c0.265,0.025,0.427-0.012,0.482-0.113c0.058-0.101,0.088-0.22,0.095-0.359c0.006-0.138,0.027-0.286,0.065-0.444
					c0.038-0.157,0.177-0.28,0.416-0.368c-0.201-0.189-0.283-0.328-0.245-0.416c0.037-0.088,0.116-0.16,0.236-0.217
					c0.119-0.057,0.248-0.123,0.387-0.199c0.14-0.075,0.209-0.195,0.209-0.358c0-0.063-0.007-0.117-0.02-0.161
					c-0.012-0.045-0.019-0.098-0.019-0.16c0-0.278,0.071-0.53,0.218-0.757c0.145-0.227,0.303-0.447,0.473-0.662
					c0.17-0.214,0.321-0.438,0.454-0.671c0.132-0.233,0.179-0.494,0.141-0.784c0-0.038-0.012-0.095-0.038-0.171
					c0.113-0.276,0.253-0.541,0.416-0.794c0.164-0.252,0.322-0.503,0.473-0.756c0.151-0.252,0.293-0.51,0.425-0.774
					c0.133-0.265,0.23-0.543,0.294-0.832c0.05-0.013,0.113-0.025,0.189-0.038c0.075-0.013,0.125-0.057,0.15-0.132
					c-0.014-0.063-0.019-0.12-0.019-0.171c0-0.05-0.007-0.101-0.019-0.151h0.019c0.101,0.013,0.171,0.004,0.208-0.028
					c0.038-0.03,0.088-0.078,0.151-0.142c0.024-0.024,0.054-0.05,0.084-0.075c0.033-0.025,0.054-0.057,0.067-0.095
					c0.024-0.403,0.138-0.721,0.34-0.955c0.201-0.232,0.436-0.482,0.7-0.747c0.604-0.176,1.097-0.116,1.475,0.18
					C324.693,217.722,324.989,218.134,325.204,218.663z M316.091,239.762c-0.024-0.089-0.034-0.18-0.028-0.274
					s0.055-0.161,0.142-0.199c-0.1-0.088-0.163-0.17-0.188-0.245c-0.025-0.076-0.039-0.151-0.039-0.228c0-0.075,0-0.147,0-0.217
					s-0.019-0.154-0.056-0.256c0.052-0.238,0.071-0.479,0.066-0.717c-0.007-0.24-0.025-0.477-0.057-0.709
					c-0.032-0.234-0.066-0.471-0.104-0.71s-0.057-0.479-0.057-0.718c-0.201-0.076-0.327-0.092-0.379-0.048
					c-0.049,0.044-0.076,0.106-0.084,0.189c-0.007,0.082-0.025,0.16-0.057,0.236s-0.136,0.113-0.313,0.113v0.075
					c0.063,0.114,0.052,0.233-0.038,0.359c-0.087,0.126-0.194,0.259-0.319,0.397c-0.127,0.139-0.246,0.28-0.359,0.426
					c-0.113,0.144-0.17,0.299-0.17,0.463c-0.189,0.126-0.32,0.28-0.389,0.462c-0.069,0.184-0.126,0.366-0.17,0.549
					c-0.045,0.183-0.107,0.354-0.189,0.511c-0.083,0.157-0.23,0.274-0.443,0.35c-0.025,0.024-0.038,0.044-0.038,0.057
					c-0.063,0.202-0.127,0.372-0.188,0.511c-0.064,0.139-0.128,0.271-0.189,0.396c-0.064,0.126-0.139,0.252-0.227,0.379
					c-0.09,0.125-0.196,0.271-0.322,0.435c-0.252,0.327-0.464,0.646-0.634,0.955c-0.171,0.309-0.273,0.671-0.312,1.086
					c-0.314,0.051-0.532,0.17-0.652,0.359c-0.119,0.189-0.205,0.404-0.255,0.643c-0.05,0.24-0.099,0.482-0.143,0.729
					c-0.043,0.246-0.142,0.457-0.292,0.633h-0.02c-0.177,0.266-0.358,0.532-0.548,0.804c-0.189,0.271-0.359,0.549-0.511,0.832
					s-0.273,0.577-0.367,0.879c-0.096,0.303-0.144,0.624-0.144,0.964c0.151,0.177,0.329,0.306,0.529,0.388
					c0.202,0.082,0.404,0.168,0.605,0.255l0.019-0.019c0.254-0.038,0.47-0.104,0.651-0.198c0.185-0.095,0.354-0.199,0.511-0.313
					c0.158-0.113,0.316-0.236,0.473-0.368c0.158-0.133,0.339-0.256,0.54-0.368c0.265,0.012,0.495-0.017,0.689-0.085
					c0.196-0.07,0.371-0.17,0.529-0.303s0.299-0.287,0.426-0.463c0.126-0.178,0.251-0.366,0.378-0.567
					c0.114-0.215,0.266-0.448,0.454-0.699c0.188-0.253,0.391-0.436,0.604-0.549c0.013,0,0.021-0.004,0.028-0.01
					c0.007-0.007,0.016-0.009,0.029-0.009c-0.038-0.051-0.076-0.13-0.113-0.236c-0.038-0.108-0.057-0.192-0.057-0.256
					c-0.015-0.303,0.065-0.562,0.235-0.775s0.337-0.422,0.5-0.624c0.165-0.201,0.278-0.412,0.34-0.633
					c0.064-0.221-0.012-0.488-0.227-0.803c0.227-0.164,0.373-0.357,0.436-0.577c0.063-0.221,0.107-0.447,0.132-0.681
					c0.026-0.233,0.06-0.467,0.104-0.699c0.045-0.233,0.174-0.457,0.387-0.671l0.057-0.058L316.091,239.762z M315.014,231.765
					c-0.126-0.126-0.201-0.259-0.228-0.396c-0.024-0.139-0.043-0.271-0.057-0.397c-0.013-0.126-0.04-0.242-0.085-0.35
					c-0.044-0.107-0.147-0.192-0.311-0.256l-0.019-0.019c-0.09,0.038-0.2,0.063-0.332,0.076c-0.132,0.013-0.271,0.009-0.416-0.01
					s-0.284-0.048-0.416-0.085c-0.132-0.038-0.235-0.082-0.312-0.133l-0.019,0.02c-0.328,0.214-0.54,0.463-0.634,0.746
					c-0.095,0.284-0.117,0.615-0.066,0.993c0,0.024,0.002,0.057,0.01,0.095c0.006,0.037,0.015,0.088,0.028,0.151
					c0.013,0.063,0.024,0.132,0.038,0.207c0.189,0.202,0.364,0.302,0.53,0.302c0.163,0,0.321-0.047,0.472-0.142
					c0.151-0.094,0.303-0.207,0.454-0.339c0.151-0.133,0.308-0.23,0.473-0.293h0.019
					C314.497,232.149,314.786,232.093,315.014,231.765z M324.07,220.309c-0.064-0.038-0.109-0.127-0.133-0.265
					c-0.025-0.139-0.057-0.29-0.095-0.454c-0.038-0.163-0.093-0.309-0.161-0.435s-0.174-0.201-0.312-0.228l-0.038,0.038
					c-0.177,0.215-0.347,0.457-0.51,0.729c-0.165,0.271-0.325,0.552-0.483,0.841c-0.156,0.29-0.308,0.579-0.454,0.87
					c-0.145,0.29-0.272,0.554-0.387,0.793c-0.025,0.063-0.094,0.202-0.208,0.416c-0.113,0.215-0.233,0.444-0.358,0.69
					c-0.126,0.246-0.246,0.467-0.359,0.661c-0.114,0.196-0.178,0.301-0.189,0.313v0.019c-0.037,0.24-0.098,0.492-0.181,0.757
					c-0.081,0.265-0.183,0.523-0.301,0.774c-0.12,0.253-0.256,0.489-0.407,0.71c-0.151,0.22-0.321,0.406-0.511,0.558
					c-0.012,0.012-0.022,0.019-0.027,0.019c-0.007,0-0.017,0.006-0.028,0.019l0.037,0.038c0.201,0.277,0.271,0.501,0.208,0.671
					s-0.167,0.325-0.312,0.463c-0.146,0.14-0.293,0.291-0.445,0.454c-0.15,0.164-0.215,0.378-0.188,0.643
					c0,0.14,0.038,0.271,0.113,0.397h0.341c0.176-0.164,0.317-0.356,0.426-0.577c0.106-0.22,0.224-0.425,0.349-0.614
					c0.126-0.189,0.277-0.35,0.454-0.482s0.423-0.198,0.737-0.198l-0.038-0.321c0.404-0.403,0.73-0.863,0.983-1.38
					c0.251-0.517,0.397-1.059,0.436-1.626c0.201-0.075,0.337-0.18,0.405-0.312c0.068-0.133,0.12-0.28,0.151-0.444
					c0.03-0.164,0.075-0.328,0.132-0.492c0.057-0.163,0.174-0.314,0.352-0.454l0.037-0.037c0-0.063-0.007-0.123-0.019-0.18
					c-0.014-0.057-0.019-0.116-0.019-0.18c0-0.214,0.033-0.416,0.103-0.604s0.158-0.368,0.265-0.539
					c0.106-0.17,0.219-0.34,0.332-0.51S323.98,220.498,324.07,220.309z"/>
				<path fill="#FFFFFF" d="M340.456,233.258c-0.177,0.303-0.311,0.546-0.405,0.729s-0.189,0.334-0.284,0.453
					c-0.095,0.12-0.202,0.227-0.321,0.321c-0.12,0.095-0.287,0.212-0.502,0.351c-0.139,0.126-0.276,0.232-0.416,0.321
					c-0.113,0.087-0.224,0.163-0.33,0.227c-0.107,0.063-0.192,0.095-0.256,0.095c-0.025,0-0.05-0.004-0.075-0.01
					c-0.026-0.007-0.05-0.01-0.076-0.01c-0.075,0-0.147,0.003-0.217,0.01c-0.07,0.006-0.129-0.041-0.181-0.142
					c-0.037,0.038-0.068,0.081-0.094,0.132c-0.024,0.051-0.05,0.098-0.076,0.143c-0.023,0.043-0.061,0.078-0.104,0.104
					c-0.044,0.025-0.104,0.025-0.18,0l-0.095-0.113l-0.284,0.246c-0.352-0.178-0.688-0.325-1.01-0.444
					c-0.321-0.121-0.608-0.263-0.859-0.426c-0.253-0.163-0.468-0.375-0.644-0.634c-0.177-0.258-0.302-0.614-0.378-1.068
					c-0.063-0.075-0.133-0.142-0.208-0.198s-0.165-0.072-0.265-0.047c-0.127,0.215-0.278,0.396-0.454,0.548
					c-0.177,0.151-0.354,0.315-0.529,0.492c-0.063,0.063-0.113,0.132-0.151,0.208c-0.038,0.075-0.089,0.145-0.15,0.208
					c-0.102,0.113-0.223,0.192-0.359,0.236c-0.14,0.044-0.279,0.085-0.417,0.123c-0.139,0.037-0.268,0.101-0.388,0.188
					c-0.119,0.088-0.205,0.239-0.255,0.454c-0.151-0.089-0.302-0.113-0.454-0.076c-0.113,0.025-0.233,0.054-0.358,0.086
					c-0.126,0.03-0.249,0.05-0.368,0.056c-0.12,0.007-0.237-0.009-0.351-0.047s-0.215-0.12-0.303-0.245
					c-0.177,0.075-0.34,0.071-0.491-0.01c-0.151-0.083-0.293-0.196-0.425-0.341c-0.133-0.145-0.263-0.299-0.389-0.463
					c-0.126-0.163-0.246-0.284-0.359-0.359c-0.075-0.201-0.072-0.375,0.011-0.521c0.082-0.144,0.17-0.283,0.265-0.415
					c0.095-0.133,0.16-0.265,0.197-0.397c0.038-0.133-0.019-0.293-0.17-0.481c0.126-0.188,0.239-0.388,0.341-0.596
					s0.205-0.416,0.313-0.624c0.106-0.208,0.22-0.41,0.34-0.604c0.119-0.195,0.267-0.363,0.444-0.501
					c-0.076-0.088-0.114-0.173-0.114-0.256c0-0.081,0.02-0.163,0.057-0.246c0.038-0.081,0.083-0.163,0.133-0.245
					s0.088-0.161,0.113-0.236l0.549-0.265l-0.133-0.454c0.139,0.026,0.242,0.02,0.313-0.019c0.069-0.038,0.119-0.095,0.152-0.171
					c0.03-0.075,0.056-0.16,0.074-0.255c0.02-0.095,0.047-0.18,0.085-0.255c0.063-0.113,0.158-0.195,0.284-0.246
					c0.264-0.201,0.525-0.415,0.783-0.642c0.26-0.228,0.518-0.448,0.775-0.662c0.26-0.215,0.526-0.419,0.805-0.614
					c0.276-0.195,0.579-0.363,0.907-0.501c0.228,0.037,0.405,0.107,0.538,0.208s0.233,0.221,0.303,0.359
					c0.068,0.138,0.124,0.293,0.161,0.463c0.038,0.17,0.075,0.337,0.114,0.501c0.062,0.214,0.137,0.396,0.227,0.548
					c0.088,0.15,0.238,0.277,0.454,0.378c-0.177,0.302-0.246,0.603-0.208,0.897c0.037,0.297,0.075,0.608,0.113,0.937
					c0.037,0.303,0.034,0.599-0.011,0.889c-0.044,0.289-0.229,0.548-0.557,0.775c-0.026,0.088-0.032,0.183-0.019,0.283
					c0.012,0.101,0.019,0.201,0.019,0.303c0,0.101-0.019,0.195-0.058,0.283c-0.037,0.088-0.107,0.157-0.207,0.208
					c0.113,0.139,0.172,0.277,0.179,0.415c0.007,0.14,0.012,0.271,0.019,0.397s0.038,0.239,0.095,0.341
					c0.057,0.101,0.192,0.177,0.407,0.227c0.038,0.164,0.072,0.287,0.104,0.368c0.031,0.083,0.068,0.149,0.113,0.199
					c0.045,0.051,0.104,0.098,0.179,0.142c0.075,0.045,0.177,0.111,0.303,0.198c0.101,0.026,0.215,0.026,0.34,0
					c0.128-0.024,0.228,0.013,0.303,0.113c0.063-0.063,0.14-0.097,0.228-0.104c0.089-0.006,0.169-0.003,0.245,0.009l0.246,0.416
					c0.139-0.101,0.297-0.188,0.473-0.264c0.177-0.076,0.347-0.139,0.511-0.189c0.188-0.05,0.378-0.095,0.566-0.133L340.456,233.258
					z M333.197,226.793c-0.113,0.101-0.253,0.201-0.416,0.303c-0.165,0.101-0.325,0.207-0.482,0.32s-0.293,0.236-0.406,0.369
					c-0.113,0.132-0.184,0.287-0.208,0.463c-0.29,0.051-0.492,0.17-0.604,0.359c-0.113,0.189-0.209,0.396-0.284,0.624
					c-0.076,0.227-0.158,0.451-0.245,0.671c-0.088,0.221-0.247,0.394-0.474,0.521c-0.075,0.051-0.144,0.075-0.208,0.075
					c0.013,0-0.025,0.025-0.113,0.076c-0.139,0.1-0.258,0.227-0.359,0.378s-0.186,0.315-0.254,0.491
					c-0.07,0.177-0.133,0.355-0.189,0.539c-0.057,0.183-0.111,0.35-0.162,0.501c-0.177,0.025-0.309,0.063-0.396,0.112
					c-0.088,0.051-0.141,0.104-0.16,0.161c-0.019,0.057-0.017,0.123,0.009,0.198c0.026,0.076,0.063,0.158,0.113,0.246
					c0.05,0.075,0.104,0.164,0.162,0.265c0.057,0.102,0.103,0.202,0.141,0.303c0.038,0.102,0.061,0.201,0.067,0.303
					c0.005,0.101-0.022,0.195-0.086,0.283c0.177,0.14,0.347,0.168,0.51,0.085c0.164-0.082,0.315-0.173,0.454-0.274
					c0.05-0.037,0.104-0.078,0.162-0.122c0.057-0.044,0.115-0.078,0.179-0.104c0.29,0.063,0.555,0.045,0.794-0.057
					c0.239-0.101,0.459-0.239,0.662-0.416c0.2-0.176,0.396-0.365,0.586-0.567c0.188-0.201,0.378-0.377,0.567-0.528l-0.151-0.151
					c0.227-0.063,0.387-0.148,0.481-0.255c0.094-0.107,0.154-0.23,0.18-0.369c0.024-0.14,0.024-0.287,0-0.444
					c-0.025-0.157-0.044-0.325-0.057-0.501c-0.014-0.101-0.017-0.198-0.01-0.293s0.029-0.191,0.066-0.293
					c-0.101-0.29-0.116-0.567-0.048-0.832c0.069-0.265,0.163-0.521,0.284-0.766c0.12-0.246,0.236-0.494,0.351-0.747
					c0.113-0.252,0.17-0.517,0.17-0.793L333.197,226.793z"/>
				<path fill="#FFFFFF" d="M357.201,231.5c-0.29,0.139-0.484,0.309-0.586,0.511c-0.101,0.201-0.179,0.409-0.235,0.623
					c-0.057,0.215-0.127,0.42-0.208,0.614c-0.082,0.196-0.256,0.357-0.521,0.482c-0.063,0.227-0.186,0.385-0.368,0.473
					c-0.184,0.089-0.376,0.168-0.578,0.236c-0.2,0.07-0.381,0.161-0.537,0.274c-0.158,0.113-0.237,0.31-0.237,0.586
					c-0.251,0.139-0.526,0.265-0.821,0.378c-0.296,0.113-0.605,0.199-0.927,0.256s-0.64,0.078-0.954,0.065
					c-0.316-0.013-0.611-0.075-0.889-0.188c-0.189-0.089-0.373-0.202-0.549-0.341c-0.063-0.051-0.123-0.092-0.18-0.122
					c-0.057-0.032-0.117-0.079-0.179-0.143c-0.151-0.15-0.278-0.327-0.378-0.529c-0.102-0.201-0.185-0.416-0.246-0.643
					c-0.064-0.227-0.113-0.454-0.151-0.681c-0.038-0.228-0.071-0.441-0.095-0.644l0.699-1.89c-0.365-0.289-0.661-0.626-0.889-1.012
					c-0.227-0.384-0.505-0.739-0.832-1.068c-0.063,0.089-0.144,0.165-0.246,0.228c-0.101,0.063-0.139,0.164-0.112,0.303l0.188,0.17
					c-0.416,0.453-0.835,0.968-1.256,1.541c-0.424,0.573-0.756,1.149-0.994,1.729c-0.276-0.012-0.473,0.055-0.586,0.199
					c-0.113,0.146-0.208,0.31-0.283,0.491c-0.076,0.184-0.171,0.35-0.283,0.501c-0.114,0.151-0.304,0.215-0.568,0.189
					c-0.062,0.14-0.125,0.287-0.189,0.444c-0.062,0.158-0.137,0.306-0.227,0.444c-0.087,0.139-0.194,0.255-0.321,0.35
					c-0.126,0.095-0.283,0.142-0.473,0.142c-0.1-0.101-0.156-0.208-0.17-0.321c-0.013-0.113,0-0.229,0.037-0.35
					c0.038-0.119,0.09-0.239,0.151-0.359c0.064-0.119,0.108-0.236,0.133-0.35c0.102-0.365,0.283-0.696,0.548-0.992
					c0.266-0.296,0.53-0.593,0.794-0.889c0.266-0.296,0.492-0.608,0.682-0.936s0.264-0.713,0.227-1.153
					c0.163-0.013,0.332-0.048,0.502-0.104s0.326-0.132,0.473-0.227c0.145-0.095,0.258-0.214,0.34-0.359
					c0.081-0.145,0.11-0.318,0.085-0.52c-0.102-0.05-0.158-0.123-0.171-0.218c-0.012-0.095-0.012-0.191,0-0.293
					c0.277-0.088,0.502-0.242,0.671-0.463c0.17-0.221,0.325-0.457,0.464-0.709c0.14-0.253,0.273-0.508,0.406-0.766
					c0.132-0.259,0.306-0.481,0.521-0.671c0.175,0.101,0.353,0.186,0.529,0.255c0.175,0.069,0.346,0.161,0.511,0.274
					c-0.113,0.151-0.184,0.296-0.208,0.435c-0.026,0.139-0.038,0.28-0.038,0.426c0,0.145,0,0.286,0,0.425s-0.037,0.283-0.113,0.435
					c0.201,0.177,0.371,0.385,0.511,0.624c0.137,0.24,0.314,0.442,0.529,0.605c0.151-0.114,0.321-0.173,0.511-0.18
					c0.188-0.006,0.379-0.006,0.575,0c0.196,0.007,0.382-0.006,0.559-0.038c0.176-0.031,0.322-0.135,0.436-0.313
					c0.05,0.051,0.125,0.076,0.225,0.076c0.102,0,0.203,0,0.303,0c0.101,0,0.189,0.017,0.265,0.047
					c0.076,0.032,0.121,0.093,0.133,0.18c0.014,0.102,0.01,0.171-0.009,0.208c-0.019,0.038-0.042,0.102-0.067,0.189
					c-0.024,0.102-0.03,0.151-0.019,0.151c0.014,0,0,0.044-0.038,0.132c-0.063,0.164-0.167,0.303-0.311,0.416
					c-0.145,0.114-0.291,0.224-0.436,0.331s-0.276,0.227-0.396,0.359c-0.121,0.132-0.179,0.299-0.179,0.501
					c-0.279,0.101-0.473,0.248-0.587,0.444c-0.113,0.195-0.189,0.416-0.227,0.662c-0.038,0.245-0.064,0.497-0.075,0.755
					c-0.015,0.259-0.058,0.495-0.133,0.709l0.17,0.189l0.151-0.189c0.176,0.253,0.387,0.41,0.633,0.473
					c0.246,0.063,0.502,0.083,0.765,0.057c0.127-0.188,0.274-0.34,0.445-0.453s0.353-0.208,0.548-0.284
					c0.194-0.075,0.397-0.144,0.605-0.208c0.208-0.063,0.405-0.138,0.595-0.227c0.151-0.075,0.28-0.157,0.389-0.246
					c0.106-0.087,0.224-0.188,0.349-0.303c0.378-0.352,0.753-0.698,1.126-1.039c0.371-0.34,0.746-0.687,1.124-1.039
					c0.076,0,0.126,0.037,0.151,0.113c0.026,0.075,0.038,0.16,0.038,0.255s-0.004,0.189-0.011,0.284
					C357.205,231.377,357.201,231.449,357.201,231.5z"/>
				<path fill="#FFFFFF" d="M381,231.954c-0.113,0.101-0.268,0.229-0.464,0.388c-0.194,0.157-0.325,0.299-0.387,0.425
					c-0.076,0.126-0.136,0.239-0.181,0.34c-0.043,0.102-0.095,0.187-0.151,0.255c-0.057,0.07-0.132,0.123-0.228,0.161
					c-0.094,0.038-0.223,0.057-0.387,0.057c0,0.038-0.066,0.117-0.199,0.236c-0.132,0.12-0.272,0.246-0.424,0.378
					c-0.152,0.133-0.291,0.259-0.416,0.379c-0.126,0.12-0.189,0.198-0.189,0.236l-0.17-0.095c-0.025-0.012-0.099-0.01-0.217,0.01
					c-0.12,0.019-0.26,0.057-0.416,0.113c-0.158,0.057-0.313,0.136-0.464,0.236c-0.151,0.102-0.272,0.232-0.359,0.396l-0.075-0.019
					c-0.189-0.051-0.383-0.061-0.576-0.028c-0.196,0.031-0.389,0.047-0.578,0.047c-0.402,0.025-0.699-0.035-0.889-0.18
					c-0.189-0.144-0.39-0.418-0.605-0.822c-0.049-0.087-0.094-0.182-0.13-0.283c-0.038-0.101-0.07-0.201-0.095-0.303v-0.075
					c0.176-0.101,0.27-0.236,0.282-0.407c0.014-0.17,0.007-0.35-0.019-0.539c-0.024-0.188-0.04-0.371-0.047-0.547
					c-0.007-0.177,0.061-0.321,0.198-0.435c-0.076-0.202-0.065-0.395,0.028-0.577c0.095-0.183,0.186-0.355,0.273-0.521
					c0.09-0.164,0.133-0.321,0.133-0.473c0-0.15-0.138-0.309-0.416-0.472c-0.289,0.113-0.564,0.255-0.822,0.425
					s-0.518,0.347-0.775,0.529c-0.258,0.184-0.517,0.363-0.775,0.539c-0.257,0.176-0.532,0.321-0.821,0.435
					c-0.265,0.29-0.542,0.539-0.832,0.747c-0.29,0.207-0.57,0.425-0.842,0.651c-0.271,0.228-0.516,0.482-0.737,0.766
					c-0.221,0.284-0.387,0.634-0.5,1.05c-0.063-0.076-0.126-0.126-0.189-0.151s-0.145-0.05-0.246-0.075
					c-0.139-0.038-0.238-0.079-0.303-0.123c-0.063-0.044-0.145-0.11-0.245-0.199l0.019-0.037c0.113-0.328,0.246-0.662,0.397-1.002
					c0.151-0.341,0.228-0.682,0.228-1.021c0-0.126-0.013-0.243-0.039-0.35c-0.025-0.107-0.037-0.225-0.037-0.351
					c0-0.227,0.037-0.435,0.113-0.623c0.076-0.189,0.161-0.365,0.256-0.529c0.095-0.165,0.183-0.324,0.265-0.482
					c0.081-0.157,0.122-0.324,0.122-0.501c0-0.139-0.031-0.277-0.094-0.416c-0.064-0.139-0.145-0.258-0.246-0.359
					c-0.189-0.013-0.366,0.01-0.529,0.065c-0.164,0.058-0.329,0.124-0.492,0.199s-0.333,0.142-0.51,0.198
					c-0.178,0.057-0.367,0.079-0.568,0.066c-0.264,0.265-0.533,0.526-0.813,0.784c-0.276,0.259-0.553,0.515-0.832,0.767
					c-0.579,0.517-1.143,1.052-1.691,1.606s-0.986,1.185-1.313,1.891c-0.064,0.139-0.117,0.281-0.162,0.425
					c-0.045,0.146-0.098,0.287-0.16,0.426c0,0.025-0.014,0.051-0.037,0.075h-0.096c-0.139,0-0.229,0.038-0.274,0.113
					c-0.045,0.076-0.075,0.161-0.095,0.256c-0.019,0.095-0.039,0.186-0.065,0.274c-0.025,0.087-0.082,0.144-0.17,0.17
					c-0.102,0.024-0.199,0.006-0.294-0.057c-0.095-0.063-0.172-0.126-0.235-0.189l-0.019-0.019c-0.126-0.202-0.196-0.41-0.208-0.624
					c-0.013-0.214,0.008-0.426,0.065-0.634c0.057-0.208,0.139-0.412,0.246-0.614c0.107-0.201,0.211-0.39,0.313-0.567
					c0.15-0.265,0.292-0.539,0.424-0.821c0.133-0.284,0.199-0.584,0.199-0.898c0-0.14-0.018-0.262-0.048-0.368
					c-0.03-0.107-0.06-0.218-0.084-0.331l0.416-0.284c-0.063-0.088-0.098-0.166-0.105-0.236c-0.006-0.069-0.006-0.136,0-0.198
					c0.008-0.063,0.013-0.123,0.02-0.18s-0.004-0.116-0.027-0.18v-0.057l0.151-0.17c-0.026-0.416-0.038-0.807-0.038-1.173
					c0-0.365-0.075-0.749-0.228-1.153c0.176-0.163,0.346-0.204,0.512-0.122c0.162,0.082,0.326,0.173,0.491,0.273v0.02l0.019,0.019
					c0.1,0.151,0.189,0.334,0.265,0.548c0.076,0.215,0.134,0.438,0.179,0.672s0.079,0.463,0.104,0.689
					c0.024,0.228,0.038,0.43,0.038,0.605c0,0.051-0.003,0.098-0.01,0.142c-0.008,0.045-0.009,0.091-0.009,0.142l-0.113,0.114
					c0.062,0.063,0.132,0.126,0.208,0.188c0.075,0.063,0.156,0.089,0.246,0.076c0.075-0.228,0.193-0.375,0.358-0.444
					c0.163-0.069,0.33-0.123,0.501-0.161c0.17-0.038,0.32-0.091,0.453-0.16s0.197-0.218,0.197-0.445
					c0-0.049-0.004-0.087-0.019-0.112l0.038-0.038c0.354-0.353,0.715-0.672,1.088-0.955c0.371-0.284,0.762-0.494,1.172-0.634
					c0.41-0.138,0.838-0.194,1.287-0.17c0.446,0.025,0.928,0.164,1.444,0.416l0.038,0.019l0.209,0.775l-0.133,0.133
					c0.125,0.177,0.173,0.381,0.141,0.614c-0.031,0.233-0.084,0.463-0.16,0.69c-0.075,0.227-0.145,0.438-0.208,0.633
					s-0.056,0.337,0.019,0.426c0.064,0.089,0.18,0.126,0.35,0.113s0.307-0.024,0.408-0.038c0.1-0.138,0.241-0.259,0.424-0.358
					c0.184-0.101,0.366-0.195,0.548-0.284c0.183-0.089,0.345-0.18,0.483-0.274c0.137-0.094,0.213-0.198,0.227-0.312
					c0.201,0.038,0.365,0.028,0.492-0.028c0.125-0.057,0.227-0.142,0.303-0.255c0.075-0.114,0.144-0.237,0.207-0.369
					c0.063-0.133,0.135-0.258,0.217-0.378c0.083-0.12,0.186-0.211,0.313-0.274c0.126-0.063,0.296-0.082,0.512-0.057
					c0.289-0.29,0.632-0.501,1.029-0.634c0.396-0.133,0.797-0.204,1.199-0.218c0.291-0.012,0.492,0.073,0.605,0.256
					s0.17,0.4,0.17,0.652c0,0.328-0.075,0.643-0.227,0.945s-0.322,0.611-0.511,0.927s-0.359,0.643-0.511,0.982
					c-0.15,0.341-0.227,0.719-0.227,1.134c0,0.038,0,0.104,0,0.199s0.007,0.188,0.019,0.283c0.015,0.095,0.03,0.183,0.049,0.265
					c0.019,0.083,0.046,0.136,0.084,0.161c0.052,0.025,0.095,0.044,0.132,0.057l-0.094,0.075c0.29,0.038,0.548,0.092,0.774,0.161
					c0.228,0.069,0.474,0.047,0.737-0.066c0.076-0.024,0.155-0.044,0.238-0.057c0.08-0.012,0.159-0.031,0.234-0.057
					c0.114-0.012,0.183-0.06,0.209-0.142c0.025-0.082,0.071-0.164,0.142-0.246c0.069-0.082,0.183-0.157,0.341-0.227
					c0.156-0.069,0.418-0.104,0.784-0.104v-0.303c0.252-0.075,0.466-0.173,0.643-0.292c0.177-0.12,0.349-0.23,0.52-0.331
					c0.17-0.101,0.358-0.177,0.567-0.227C380.422,231.903,380.684,231.903,381,231.954z"/>
			</g>
		</g>
	</g>
</g>
</svg>
